<?xml version="1.0" encoding="UTF-8"?>
<svg version="1.1" xmlns="http://www.w3.org/2000/svg" width="3079" height="810">
<path d="M0 0 C1.3750483 0.00790941 2.75009941 0.01534299 4.12515259 0.02235413 C23.5739123 0.14994624 43.02098737 0.6205816 62.46478271 1.0524292 C66.61671947 1.14377067 70.76872864 1.23153393 74.92074203 1.31931114 C84.92876301 1.53097337 94.93640154 1.75492224 104.94381332 1.99368858 C110.22814934 2.11856403 115.51243536 2.22929559 120.79740715 2.32340527 C123.88313569 2.38035129 126.96857586 2.44779488 130.05403519 2.5177021 C132.08267804 2.56029898 134.1115852 2.58970555 136.14047241 2.61839294 C162.09778277 3.24802838 185.92043297 12.3487901 204.2109375 31.18359375 C208.91835355 36.56271448 213.05748989 42.37432862 217.2109375 48.18359375 C218.28020477 49.65831051 219.35051704 51.13227014 220.421875 52.60546875 C222.58848059 55.59124103 224.74462526 58.584216 226.89453125 61.58203125 C230.29333658 66.3122961 233.74792297 71.00022419 237.2109375 75.68359375 C242.29320421 82.56046795 247.3209675 89.4739274 252.31640625 96.4140625 C256.24485766 101.86443213 260.21799018 107.28033391 264.2109375 112.68359375 C269.29298828 119.56062935 274.32096547 126.47392458 279.31640625 133.4140625 C283.82151371 139.66449005 288.38979354 145.86684408 292.96948242 152.06274414 C297.57317512 158.29866098 302.1178225 164.57544519 306.6394043 170.87109375 C310.56279981 176.3225229 314.58960833 181.68385047 318.69921875 186.99609375 C320.2109375 189.18359375 320.2109375 189.18359375 320.2109375 191.18359375 C319.63875488 191.29316406 319.06657227 191.40273438 318.47705078 191.515625 C303.17513911 194.52163041 289.62797451 198.87984126 276.0078125 206.51171875 C275.33548584 206.88578857 274.66315918 207.2598584 273.97045898 207.64526367 C272.71616729 208.35442998 271.47229613 209.08252041 270.24243164 209.83325195 C267.36627154 211.49052507 265.30216092 212.18150298 261.97265625 212.2578125 C256.62034544 210.72937483 252.06084235 208.12665542 247.2109375 205.43359375 C227.40019877 194.77567971 207.57773096 188.48052708 185.22802734 194.85986328 C178.67484417 196.90045473 172.69434437 200.10786783 166.6484375 203.30859375 C164.81588679 204.26401167 162.98122605 205.21509633 161.14430237 206.16207886 C159.50022114 207.01178295 157.86207273 207.87293852 156.22436523 208.73486328 C150.19435995 211.63383852 143.92349753 213.80139307 137.33203125 211.53857422 C135.40845668 210.64059978 133.56416733 209.65626507 131.7109375 208.62109375 C130.30893315 207.88229324 128.90523556 207.14669845 127.5 206.4140625 C126.79004883 206.04071777 126.08009766 205.66737305 125.34863281 205.28271484 C109.58008477 197.1751311 89.52751941 188.28186559 71.5859375 193.18359375 C64.65508084 195.84643634 58.95322751 200.93752842 55.7109375 207.62109375 C52.57116393 216.07099128 52.77096246 222.83344687 56.2109375 231.18359375 C59.63929853 237.55054996 64.53991067 242.46104513 71.3984375 244.93359375 C74.82769858 245.95372688 78.16508229 246.43938224 81.7109375 246.87109375 C91.49076929 248.36419784 100.2357463 253.53449464 108.8828125 258.125 C127.38047614 267.81325596 145.24604299 269.81300099 165.10839844 263.87255859 C173.55349718 261.10524918 181.46064223 257.20268516 189.20776367 252.88671875 C201.80935994 245.88600808 201.80935994 245.88600808 209.30859375 247.6875 C216.18209469 250.12800548 222.53855426 254.01200394 228.94726562 257.45800781 C244.7510016 265.83386315 261.36785354 270.39250335 279.0703125 265.3515625 C284.96852777 263.158072 290.47292668 260.20572844 296.04199219 257.29492188 C299.82654173 255.35578753 303.67363186 253.55124407 307.5234375 251.74609375 C308.24684326 251.40425049 308.97024902 251.06240723 309.71557617 250.71020508 C319.51360802 246.11222641 319.51360802 246.11222641 325.2109375 247.18359375 C329.5243292 248.9673673 333.59711843 251.1721145 337.7109375 253.37109375 C348.82936278 259.12288346 359.2931806 264.20217851 371.7734375 266.05859375 C375.2455038 266.68774723 376.86094195 267.43050311 379.07421875 270.18359375 C379.58299561 270.81378418 380.09177246 271.44397461 380.6159668 272.09326172 C383.42951826 275.78063775 386.15143588 279.52645713 388.8359375 283.30859375 C389.95191441 284.87456134 391.06907133 286.43968879 392.1875 288.00390625 C392.96528809 289.09493652 392.96528809 289.09493652 393.75878906 290.20800781 C394.98023698 291.86973554 396.28612739 293.46891847 397.609375 295.05078125 C399.2109375 297.18359375 399.2109375 297.18359375 399.2109375 300.18359375 C398.19515625 300.69148438 397.179375 301.199375 396.1328125 301.72265625 C395.4720874 302.05338135 394.8113623 302.38410645 394.13061523 302.72485352 C392.67556509 303.45164181 391.21933022 304.17606275 389.76196289 304.89819336 C386.38235604 306.57628398 383.03612572 308.27892783 379.72265625 310.0859375 C378.70816406 310.63378906 377.69367187 311.18164062 376.6484375 311.74609375 C375.76027344 312.24238281 374.87210937 312.73867188 373.95703125 313.25 C369.41524999 314.79407642 366.06316856 314.03549925 361.73999023 312.04711914 C358.86893199 310.55650141 356.03909244 309.00401542 353.2109375 307.43359375 C332.98061069 296.54994689 312.94892724 290.47740691 290.2109375 297.18359375 C285.88402876 298.92059956 281.74210899 300.94941445 277.5859375 303.05859375 C274.46393855 304.60800164 271.34049772 306.15429461 268.21386719 307.69433594 C266.24631051 308.67011608 264.28807085 309.66496652 262.34082031 310.68066406 C256.23820636 313.72446343 251.04422677 315.54318877 244.2109375 314.18359375 C240.68543593 312.83098969 237.52204267 311.0343922 234.2734375 309.12109375 C221.18248401 301.85510535 207.3275682 295.42795055 192.2109375 294.18359375 C191.4271875 294.11398437 190.6434375 294.044375 189.8359375 293.97265625 C181.66345582 293.60375951 174.68441724 295.58410714 168.3359375 300.80859375 C162.5550584 306.39541507 159.69777554 312.84201384 159.109375 320.85546875 C159.48186087 329.39399107 163.25533043 336.56848222 169.3984375 342.37109375 C174.89804618 346.83369995 180.81294904 348.03125658 187.7109375 348.87109375 C197.49076929 350.36419784 206.2357463 355.53449464 214.8828125 360.125 C233.38756056 369.81696646 251.25329103 371.81085069 271.12158203 365.86816406 C279.04464959 363.27219755 286.53753402 359.64646433 293.86328125 355.6953125 C294.65033447 355.27854248 295.4373877 354.86177246 296.24829102 354.43237305 C297.75999533 353.62481508 299.2603609 352.79549727 300.74584961 351.94067383 C306.44232539 348.88943689 310.96305226 348.43513958 317.2109375 350.18359375 C321.45808906 351.98822334 325.44034066 354.17531545 329.4609375 356.43359375 C347.18978709 366.0352011 364.66440847 373.15783729 385 367.3515625 C391.97199838 364.81551929 398.58420253 361.50133436 405.2109375 358.18359375 C405.96149414 357.80912109 406.71205078 357.43464844 407.48535156 357.04882812 C411.80914017 354.89030165 411.80914017 354.89030165 416.12207031 352.71020508 C422.51501347 349.46839932 427.20340817 348.22178671 434.3359375 349.93359375 C442.32677791 356.18729494 444.1571869 369.94890271 445.7734375 379.51171875 C448.5990376 403.22657671 443.04312893 426.48855092 429.1484375 446.09375 C419.6723319 458.12501979 407.9960214 466.6998321 395.62109375 475.46289062 C391.61598455 478.32229193 387.66517943 481.25446548 383.7109375 484.18359375 C376.83454806 489.26650856 369.92059526 494.29362993 362.98046875 499.2890625 C357.53009912 503.21751391 352.11419734 507.19064643 346.7109375 511.18359375 C339.8339019 516.26564453 332.92060667 521.29362172 325.98046875 526.2890625 C320.53009912 530.21751391 315.11419734 534.19064643 309.7109375 538.18359375 C302.8339019 543.26564453 295.92060667 548.29362172 288.98046875 553.2890625 C283.53009912 557.21751391 278.11419734 561.19064643 272.7109375 565.18359375 C265.83583946 570.26421269 258.93156954 575.30099996 251.98266602 580.28027344 C248.10100795 583.06832169 244.25701205 585.8943499 240.45703125 588.79296875 C217.1739228 606.48586103 193.22047378 617.33024284 163.26098633 613.36108398 C145.17826288 610.70786271 128.91960487 603.38708649 115.2109375 591.18359375 C114.1590625 590.27287109 114.1590625 590.27287109 113.0859375 589.34375 C104.88038508 581.72646328 98.70086392 572.24141274 92.2109375 563.18359375 C91.11273591 561.66091226 90.01380206 560.13875858 88.9140625 558.6171875 C87.31003337 556.39763048 85.7066496 554.17763884 84.10644531 551.95532227 C80.17850559 546.50361282 76.20435 541.08748307 72.2109375 535.68359375 C67.12888672 528.80655815 62.10090953 521.89326292 57.10546875 514.953125 C53.17701734 509.50275537 49.20388482 504.08685359 45.2109375 498.68359375 C40.12888672 491.80655815 35.10090953 484.89326292 30.10546875 477.953125 C26.17701734 472.50275537 22.20388482 467.08685359 18.2109375 461.68359375 C13.12888672 454.80655815 8.10090953 447.89326292 3.10546875 440.953125 C-0.82298266 435.50275537 -4.79611518 430.08685359 -8.7890625 424.68359375 C-13.87111328 417.80655815 -18.89909047 410.89326292 -23.89453125 403.953125 C-27.82298266 398.50275537 -31.79611518 393.08685359 -35.7890625 387.68359375 C-40.32657261 381.54343106 -44.82872826 375.38004714 -49.2890625 369.18359375 C-56.04889999 359.79578602 -62.91323594 350.4866288 -69.7890625 341.18359375 C-77.20904045 331.14431856 -84.60126981 321.08830929 -91.89257812 310.95507812 C-95.25476185 306.28877465 -98.65032552 301.64895779 -102.07202148 297.02612305 C-104.41729661 293.85651059 -106.75377591 290.68050765 -109.08691406 287.50195312 C-110.20933594 285.97319263 -111.33364389 284.44581487 -112.45996094 282.91992188 C-128.76641408 260.75562155 -138.74212971 237.17032072 -135.42651367 209.1159668 C-133.22233391 195.22355059 -128.49764418 181.95278203 -124.16296387 168.6124649 C-122.99835812 165.02165329 -121.84425986 161.4274686 -120.68945312 157.83349609 C-119.23520666 153.30944609 -117.78002782 148.78570674 -116.32028198 144.26342773 C-112.99483503 133.95831478 -109.70568456 123.6421858 -106.44123268 113.31759453 C-105.68825822 110.93662444 -104.93445901 108.55591718 -104.18034363 106.17530823 C-103.93439233 105.39887561 -103.68844103 104.62244299 -103.43503666 103.82248211 C-102.94322998 102.27001231 -102.45140565 100.7175481 -101.95956326 99.16508961 C-100.76122259 95.38172051 -99.56447784 91.59786131 -98.3711853 87.81289673 C-97.24705023 84.24800853 -96.11758286 80.68485 -94.98436546 77.12283897 C-94.37696803 75.20895791 -93.77507107 73.29333383 -93.17341614 71.37763977 C-87.42628652 53.35445199 -80.16371096 38.59549749 -66.7890625 25.18359375 C-66.00789063 24.37921875 -65.22671875 23.57484375 -64.421875 22.74609375 C-47.00248573 5.85456476 -23.68552112 -0.25171656 0 0 Z M-36.7890625 64.18359375 C-43.6895156 73.12982825 -44.70137013 82.06267916 -43.7890625 93.18359375 C-41.58986898 103.02070488 -34.96056527 110.24500847 -26.875 115.9296875 C-18.87470578 120.73885313 -9.95231923 121.58093131 -0.89453125 119.52734375 C8.42651558 116.50289219 15.85996201 111.10918446 20.98828125 102.6953125 C24.91662299 94.6252686 26.43220447 85.94661398 24.2109375 77.18359375 C19.65295327 65.80261471 13.98636841 59.01464981 3.2109375 53.18359375 C-11.55230101 47.05241273 -26.62423726 52.86240307 -36.7890625 64.18359375 Z " fill="#00B0FF" transform="translate(135.7890625,69.81640625)"/>
<path d="M0 0 C1.22155792 -0.00540298 2.44311584 -0.01080597 3.70169067 -0.01637268 C7.01478045 -0.0266476 10.32685064 -0.01925638 13.63984895 -0.00266147 C17.14529291 0.01136886 20.65071166 0.00470751 24.15617371 0.00120544 C30.05097765 -0.00148661 35.94557688 0.01187819 41.84033203 0.03515625 C48.58794363 0.06162339 55.33521043 0.06355288 62.082856 0.05176789 C68.64224756 0.04085129 75.20151835 0.04729278 81.7609005 0.06132317 C84.51822566 0.06697817 87.27545933 0.06708523 90.03278542 0.06225777 C134.25574534 0.02846903 170.89904053 6.66677471 204.06323242 37.50170898 C204.97202148 38.32928711 204.97202148 38.32928711 205.89916992 39.17358398 C234.33807803 66.14381608 247.60561011 109.94200159 249.17024231 148.11228943 C249.22652638 150.85964059 249.25399836 153.6053717 249.26635742 156.35327148 C249.2720575 157.36980804 249.27775757 158.3863446 249.28363037 159.4336853 C249.2930258 161.5800474 249.29959247 163.72642357 249.3034668 165.87280273 C249.31306131 169.06969356 249.34409135 172.26590902 249.37573242 175.46264648 C249.60055872 219.40188498 239.88464231 262.3450381 211.06323242 296.50170898 C210.38776367 297.3125293 209.71229492 298.12334961 209.01635742 298.95874023 C185.66731083 326.01466102 152.15837249 338.86903055 117.06323242 341.50170898 C112.7648762 341.64597299 108.46947774 341.65870592 104.16894531 341.6628418 C102.91719009 341.6678067 101.66543488 341.67277161 100.37574768 341.67788696 C96.9707356 341.68991134 93.56578421 341.69743051 90.16075826 341.70189762 C88.02687719 341.70484644 85.89300128 341.70895431 83.75912285 341.71340179 C77.06304359 341.72703943 70.36697636 341.73672622 63.67088419 341.74060369 C55.97643836 341.74508585 48.28217004 341.76265679 40.58777815 341.79160428 C34.61377739 341.81328994 28.63982635 341.8233115 22.66578668 341.8246448 C19.10914805 341.82568722 15.55267713 341.8314747 11.9960804 341.84946442 C8.02630113 341.86915861 4.05674079 341.86462877 0.08691406 341.8581543 C-1.07342346 341.86736908 -2.23376099 341.87658386 -3.42926025 341.88607788 C-15.56532319 341.82432641 -26.4327797 339.32118805 -35.18676758 330.50170898 C-43.28093642 320.40053915 -43.08770334 305.55339142 -43.07720947 293.26338196 C-43.08018059 292.16301092 -43.08315172 291.06263988 -43.08621287 289.92892426 C-43.09485337 286.25827242 -43.09640417 282.58765337 -43.09790039 278.91699219 C-43.10253181 276.27831369 -43.10753683 273.63963809 -43.11294556 271.0009613 C-43.1264803 263.84375938 -43.13254573 256.6865631 -43.13695621 249.52935052 C-43.13972637 245.05416957 -43.14396505 240.57899076 -43.14846039 236.10381126 C-43.16064573 223.69487933 -43.17094712 211.28594909 -43.17433548 198.8770113 C-43.17466483 197.68763568 -43.17466483 197.68763568 -43.17500083 196.47423227 C-43.17521911 195.67950564 -43.17543739 194.88477902 -43.17566228 194.06596977 C-43.17610573 192.4557637 -43.1765523 190.84555763 -43.17700195 189.23535156 C-43.17722338 188.43664743 -43.17744481 187.63794331 -43.17767295 186.81503602 C-43.18161932 173.87905409 -43.1990717 160.94312855 -43.22236148 148.00716839 C-43.24612112 134.70204762 -43.25853939 121.3969551 -43.2597034 108.09181279 C-43.26061746 100.63109109 -43.26630199 93.17044293 -43.28452301 85.70974159 C-43.29998629 79.35622268 -43.3050079 73.00280004 -43.29678491 66.64926586 C-43.29290055 63.41303526 -43.29535898 60.177037 -43.30784225 56.9408226 C-43.4400171 20.52568451 -43.4400171 20.52568451 -32.22583008 8.69702148 C-23.27111183 1.1025136 -11.28076887 -0.09722051 0 0 Z M27.06323242 54.50170898 C27.06323242 131.06170898 27.06323242 207.62170898 27.06323242 286.50170898 C90.94556553 291.18381948 90.94556553 291.18381948 148.68823242 266.37670898 C173.92292474 239.70003425 178.26834797 203.52255413 178.43823242 168.43920898 C178.44626892 167.51357147 178.45430542 166.58793396 178.46258545 165.63424683 C178.67011648 134.06192943 173.72211548 100.71989822 150.82495117 77.19702148 C137.79749707 64.48281592 122.76392316 59.4893345 105.06323242 56.81420898 C104.30099365 56.69480957 103.53875488 56.57541016 102.75341797 56.45239258 C77.98193028 53.02726041 51.75059905 54.50170898 27.06323242 54.50170898 Z " fill="#838383" transform="translate(850.936767578125,69.498291015625)"/>
<path d="M0 0 C14.31693306 12.4705032 17.7739831 40.2113663 22.86155701 57.89106369 C23.99483229 61.82343648 25.13587103 65.7535545 26.27636719 69.68383789 C28.19211558 76.28847921 30.10440599 82.89411134 32.01416016 89.50048828 C36.1975762 103.97007318 40.39771024 118.43479493 44.60792255 132.89660454 C46.00980971 137.71265556 47.40822156 142.52969733 48.80383015 147.34757137 C49.66899939 150.33202415 50.5368319 153.31569758 51.40538979 156.29916573 C51.80911983 157.68803852 52.21172438 159.07723902 52.61314964 160.46677971 C53.15936002 162.35689276 53.70992244 164.24574656 54.26074219 166.13452148 C54.56824402 167.19420639 54.87574585 168.2538913 55.19256592 169.34568787 C55.74832272 171.64502121 55.74832272 171.64502121 56.96875 172.71484375 C57.14598823 172.09220548 57.32322645 171.4695672 57.50583553 170.8280611 C61.8612579 155.5283579 66.22054217 140.22976084 70.58389187 124.93231678 C72.69406686 117.53392895 74.80303269 110.13520082 76.90893555 102.7355957 C78.74897394 96.27018301 80.59150132 89.80548521 82.43676716 83.34156245 C83.40960553 79.93342849 84.38136761 76.52499775 85.35012627 73.11570168 C87.85443131 64.30505888 90.39347979 55.5050398 92.96875 46.71484375 C93.25301023 45.73940967 93.25301023 45.73940967 93.5430131 44.74426985 C94.88644522 40.13594587 96.25781408 35.53677897 97.64086914 30.94018555 C97.98606566 29.75791539 98.33126219 28.57564524 98.68691921 27.35754871 C102.34537396 15.37024154 107.39299837 6.37047643 117.96484375 -0.6015625 C123.88604671 -3.63076972 130.01385176 -3.69497556 136.53125 -3.78515625 C137.41772217 -3.80376709 138.30419434 -3.82237793 139.2175293 -3.84155273 C148.32834887 -3.75444474 155.4213922 -0.63748992 161.98779297 5.65844727 C168.42224781 12.33794112 171.55484032 20.06522747 174.34375 28.77734375 C174.54639465 29.39818848 174.74903931 30.0190332 174.95782471 30.65869141 C181.39693497 50.40845889 186.86454857 70.47192641 192.5039978 90.46006775 C195.46336127 100.94686778 198.44978024 111.42582186 201.4453125 121.90234375 C201.79079699 123.11066612 201.79079699 123.11066612 202.14326096 124.34339905 C203.29587312 128.37426983 204.44879458 132.40505206 205.60186768 136.43579102 C207.5881089 143.3794945 209.57178032 150.32393215 211.55555344 157.26834106 C212.49917233 160.57150156 213.4429513 163.87461632 214.38671875 167.17773438 C214.9140625 169.0234375 215.44140625 170.86914062 215.96875 172.71484375 C219.11695148 164.84594463 221.41761366 156.72693292 223.80859375 148.60546875 C224.28778995 146.98534817 224.7672271 145.36529885 225.24688721 143.74531555 C226.27017108 140.28726556 227.2915874 136.8286713 228.31161499 133.36965942 C229.64568495 128.8461634 230.98341356 124.32375993 232.32247639 119.80173969 C237.63048944 101.87610161 242.91382332 83.94363686 248.12725639 65.99024582 C248.8203418 63.60491177 249.51465335 61.2199386 250.20948792 58.83511353 C250.43351005 58.06621355 250.65753218 57.29731358 250.88834286 56.5051136 C251.33223739 54.98175159 251.77619916 53.45840918 252.22023106 51.9350872 C253.49771283 47.54942492 254.76625398 43.16130102 256.02812386 38.77112293 C256.81156764 36.05266217 257.60289588 33.33654148 258.39626312 30.62096214 C258.92613298 28.79816693 259.4462326 26.97254017 259.96588135 25.14680481 C265.25304172 7.13073752 265.25304172 7.13073752 271.96875 1.71484375 C272.608125 1.17859375 273.2475 0.64234375 273.90625 0.08984375 C281.25073677 -4.80648076 290.46709742 -4.23671736 298.96875 -3.28515625 C307.26429734 -0.98540055 313.64682056 4.61276841 317.84375 12.02734375 C322.65455574 27.79609589 316.40749257 43.28837335 311.26171875 58.23828125 C310.69796807 59.89860073 310.13504535 61.55920153 309.57289124 63.22006226 C308.08454058 67.60988149 306.58490893 71.99576416 305.08283997 76.38090515 C303.52536903 80.93426023 301.978588 85.49124412 300.43066406 90.04785156 C297.73330929 97.98317463 295.02753937 105.91558909 292.3163166 113.84618378 C290.07148281 120.41258867 287.83320509 126.98120941 285.59765625 133.55078125 C283.43610805 139.89980128 281.2663551 146.24593911 279.08984375 152.58984375 C276.76933222 159.35363513 274.4764508 166.12649487 272.19140625 172.90234375 C266.61066833 189.43712106 261.02775707 205.97293354 254.96875 222.33984375 C254.56052002 223.4700293 254.15229004 224.60021484 253.73168945 225.76464844 C249.39559463 237.23938218 243.00932125 247.37814833 231.84375 253.08984375 C226.46249179 255.06324815 221.0760251 255.14077423 215.40625 255.21484375 C214.5198584 255.23337402 213.6334668 255.2519043 212.72021484 255.27099609 C203.49139236 255.18362465 196.49090099 251.96653953 189.80859375 245.66796875 C184.75398357 240.30214053 181.72521266 234.55208032 179.16845703 227.66381836 C178.91014162 226.96979133 178.65182621 226.27576429 178.38568306 225.56070614 C175.13884558 216.65831127 172.53425009 207.5662324 169.8984375 198.46875 C169.33094589 196.52702032 168.76290903 194.58544992 168.19436646 192.64402771 C166.7042385 187.55034839 165.22132261 182.45459823 163.74005127 177.3583374 C162.27367122 172.31772464 160.80066844 167.27904932 159.328125 162.24023438 C157.01254396 154.31346472 154.69966322 146.38591308 152.38964844 138.45751953 C152.10795681 137.49074091 151.82626518 136.52396229 151.53603745 135.52788734 C150.09273352 130.5739754 148.64994654 125.61991333 147.2076416 120.66571045 C145.79443982 115.81203707 144.37932443 110.95892514 142.96292496 106.10618401 C142.43395779 104.29255613 141.90569623 102.47872229 141.37817001 100.66467476 C140.65505636 98.17820132 139.92962065 95.6924169 139.20361328 93.20678711 C138.99038044 92.47142416 138.7771476 91.73606121 138.55745316 90.97841454 C137.48180416 87.26410474 137.48180416 87.26410474 135.96875 83.71484375 C134.0880339 90.28377436 132.20889923 96.85315632 130.33032227 103.42269897 C129.27121987 107.12490514 128.21081083 110.82673556 127.15039062 114.52856445 C123.13058658 128.57094894 119.14559356 142.6224559 115.20766258 156.68803406 C113.81796241 161.64790874 112.42315302 166.6063499 111.02848911 171.56483078 C109.8923857 175.60618988 108.76001881 179.64852149 107.63613892 183.69329834 C91.1244642 243.09335061 91.1244642 243.09335061 76.96875 251.71484375 C70.50630311 254.57697452 64.47641721 255.20844589 57.46875 255.15234375 C56.58316406 255.17232422 55.69757813 255.19230469 54.78515625 255.21289062 C45.23640716 255.2058798 36.7983818 251.41851923 29.96875 244.71484375 C18.88885417 230.65370476 14.18287512 211.97042766 8.59375 195.27734375 C7.76953596 192.83012874 6.94473138 190.38311256 6.11938477 187.9362793 C4.34139718 182.66360482 2.56695367 177.38974915 0.79443359 172.11523438 C-3.38516966 159.68035568 -7.5915404 147.25451549 -11.79471302 134.82758904 C-13.58150431 129.54414472 -15.36559366 124.25979278 -17.14868164 118.97509766 C-21.67126292 105.57442234 -26.20413141 92.17777823 -30.80267525 78.80294991 C-32.26219026 74.55579515 -33.71692176 70.30699693 -35.17306519 66.0586853 C-36.30558465 62.76339346 -37.44665955 59.47115303 -38.58813477 56.17895508 C-49.77589229 23.68458582 -49.77589229 23.68458582 -44.40625 11.52734375 C-40.86074174 5.23692586 -35.72128975 0.05669795 -28.9453125 -2.62109375 C-19.72338013 -4.72260649 -8.25020093 -5.09986736 0 0 Z " fill="#838383" transform="translate(1949.03125,162.28515625)"/>
<path d="M0 0 C7.10600542 4.23946395 10.66967735 11.054002 12.75 18.8125 C14.03405782 24.50733271 14.66761228 30.17748402 15 36 C15.77601562 35.11699219 16.55203125 34.23398438 17.3515625 33.32421875 C34.23516396 14.43003486 55.85626521 -1.69928622 82.14941406 -3.17700195 C116.11997164 -3.79540999 142.74129786 2.5403876 168.0625 26.6875 C195.35443856 54.74702433 202.4750457 93.78635399 202.1484375 131.484375 C201.60248415 162.46946512 193.05438185 196.41091587 172 220 C171.32582031 220.81597656 170.65164063 221.63195312 169.95703125 222.47265625 C154.6545872 240.50668412 132.41139095 252.0371325 109 255 C78.79263166 256.90266099 54.24831159 252.64800256 30.90625 232.33203125 C26.44321173 228.35615561 22.2381184 224.33118721 18.31738281 219.81835938 C17.69406067 219.10208374 17.07073853 218.38580811 16.42852783 217.64782715 C15.95711365 217.10404419 15.48569946 216.56026123 15 216 C14.99413376 217.21949844 14.98826752 218.43899689 14.98222351 219.69544983 C14.92476733 231.24307745 14.85188794 242.79052088 14.76428509 254.33796024 C14.71974361 260.2732257 14.68045246 266.20842506 14.65356445 272.14379883 C14.62736876 277.88221835 14.58685354 283.62038131 14.53681374 289.35864067 C14.5202543 291.53721336 14.50867258 293.71583031 14.50238609 295.89445686 C14.39092659 331.00229152 14.39092659 331.00229152 4.109375 342.02734375 C-2.53197425 348.22509143 -8.52050756 349.34730539 -17.375 349.3125 C-18.18710938 349.32861328 -18.99921875 349.34472656 -19.8359375 349.36132812 C-26.62978903 349.36677192 -32.1717776 348.17049626 -37.6875 343.9375 C-46.29744963 333.00053695 -47.30625098 320.93903934 -47.26069641 307.43125916 C-47.26452196 306.21201754 -47.26834751 304.99277592 -47.27228898 303.73658758 C-47.2807696 300.38300156 -47.28040562 297.0296369 -47.27610838 293.6760577 C-47.27362818 290.04752084 -47.28267114 286.41900906 -47.29014587 282.79048157 C-47.30285778 275.69458012 -47.30469107 268.59871657 -47.30234561 261.50280564 C-47.30055885 255.73369866 -47.30231975 249.96460313 -47.30657005 244.19549751 C-47.30716524 243.37281748 -47.30776043 242.55013745 -47.30837366 241.70252772 C-47.30958546 240.03101591 -47.3107996 238.35950409 -47.31201603 236.68799228 C-47.32287743 221.03409792 -47.32073535 205.38022514 -47.31463119 189.72632957 C-47.3094597 175.41686781 -47.32072608 161.10747408 -47.33972941 146.79802578 C-47.35911546 132.08712138 -47.36736269 117.37624915 -47.36360615 102.6653319 C-47.36169574 94.41335437 -47.36416643 86.16143478 -47.37832069 77.9094677 C-47.39024502 70.8868713 -47.39162737 63.86436853 -47.37953053 56.84177082 C-47.37365006 53.26174857 -47.37251933 49.68189751 -47.38453293 46.10188675 C-47.39742417 42.21509252 -47.38690797 38.32855643 -47.3742218 34.4417572 C-47.38159609 33.31888634 -47.38897037 32.19601548 -47.39656812 31.03911823 C-47.32411118 20.47022398 -45.11418216 11.08938466 -38 3 C-26.88501583 -6.09609483 -12.56432709 -6.31321213 0 0 Z M33.9765625 65.32421875 C16.80842172 87.32706584 14.33934924 117.1474628 17.49609375 144.0546875 C20.69816307 165.75063608 30.25974518 183.61884373 47.60546875 197.01171875 C60.68731944 205.48397768 76.47853035 207.22673355 91.59765625 204.3046875 C94.543882 203.39991108 97.22440178 202.33546883 100 201 C100.84433594 200.59910156 101.68867187 200.19820312 102.55859375 199.78515625 C118.06267061 191.4405283 126.82799367 177.11469374 132.375 160.9375 C132.73331909 159.89517212 132.73331909 159.89517212 133.09887695 158.83178711 C136.58947046 147.87741278 137.3665176 136.68266515 137.3125 125.25 C137.30831055 124.02861328 137.30412109 122.80722656 137.29980469 121.54882812 C137.02786215 99.68927709 131.7872329 76.16824153 116.12109375 59.921875 C102.33905459 47.43428151 88.49240272 44.15312736 70.44970703 44.82519531 C56.15775937 45.84503132 43.18327989 54.74893527 33.9765625 65.32421875 Z " fill="#838383" transform="translate(1679,162)"/>
<path d="M0 0 C1.00428543 -0.00570007 2.00857086 -0.01140015 3.04328918 -0.01727295 C5.16711387 -0.02668482 7.29095291 -0.03324169 9.41479492 -0.03710938 C12.58995842 -0.04670999 15.76444404 -0.07772628 18.93945312 -0.109375 C48.63344061 -0.26295536 78.81861252 3.6501214 101.69921875 24.21875 C121.92108474 44.8340375 122.67123277 77.76423665 122.50163078 104.75620461 C122.48397045 107.66427239 122.47385675 110.57228325 122.4657135 113.48039246 C122.44149844 121.73966846 122.40589088 129.99886724 122.36108398 138.25805664 C122.33405324 143.33700243 122.31717481 148.41590467 122.30621529 153.49490929 C122.30007835 155.41034241 122.29016766 157.32576787 122.2761364 159.24115944 C122.1712381 173.68627673 122.5670737 187.79978129 126.62109375 201.78125 C127.02490758 203.22391132 127.42854853 204.66662104 127.83203125 206.109375 C128.45708037 208.29115024 129.08732322 210.47130351 129.72167969 212.65039062 C135.85090563 233.86185669 135.85090563 233.86185669 132.01953125 243.453125 C128.06682421 250.13375662 121.31979397 255.73957693 114.109375 258.578125 C107.18951556 260.20872516 98.77743256 260.69111196 92.14453125 257.765625 C90.328125 256.62890625 90.328125 256.62890625 88.45703125 255.203125 C87.70550781 254.63980469 86.95398437 254.07648438 86.1796875 253.49609375 C76.96115254 245.87951589 69.38149557 235.56591683 63.45703125 225.203125 C62.98136719 225.52023437 62.50570312 225.83734375 62.015625 226.1640625 C60.47776337 227.18930359 58.93852026 228.21247345 57.3984375 229.234375 C55.27070089 230.65851743 53.15562386 232.09523836 51.046875 233.546875 C20.69889571 254.31726254 -13.05950339 264.33739975 -50.01953125 258.47265625 C-53.96949974 257.6831719 -57.74247753 256.54473359 -61.54296875 255.203125 C-62.61546875 254.84089844 -63.68796875 254.47867188 -64.79296875 254.10546875 C-82.61785824 247.39839936 -96.77584658 234.26069346 -105.0078125 217.16015625 C-112.27331745 200.54426231 -113.37057866 180.72607033 -107.7890625 163.3828125 C-100.89333558 145.78681967 -87.24984738 132.69384352 -70.54296875 124.203125 C-56.36314426 118.0252374 -41.17878689 115.33908798 -26.10351562 112.27990723 C-18.72687097 110.78296225 -11.35941421 109.24173509 -3.9921875 107.69921875 C-3.27051769 107.54843998 -2.54884789 107.39766121 -1.8053093 107.24231339 C14.02235541 103.93057317 29.6794705 100.08102497 45.3203125 95.98632812 C49.6702785 94.90019091 54.04685967 94.00660795 58.45703125 93.203125 C56.51288425 71.38526476 56.51288425 71.38526476 45.45703125 53.203125 C35.46167149 46.52819992 24.98405447 45.84940971 13.24755859 45.88745117 C11.22437911 45.89059802 9.20268591 45.86712739 7.1796875 45.84179688 C-9.97893819 45.83339402 -24.02034229 49.56421553 -36.44921875 61.765625 C-41.30936107 66.89783636 -44.99980972 72.91276308 -48.75390625 78.87109375 C-57.09516605 92.02000888 -57.09516605 92.02000888 -63.14453125 93.8046875 C-72.42864578 95.34699969 -81.7315545 95.03243189 -89.73046875 89.76171875 C-95.8747024 84.89376893 -99.01151571 79.78137146 -99.91796875 71.97265625 C-100.46541607 56.55859264 -94.63656055 43.24886817 -84.85546875 31.515625 C-63.6382065 9.04074299 -30.01893627 0.13532082 0 0 Z M51.17456055 134.05044556 C38.05921536 137.91679771 24.81488324 140.93320919 11.45703125 143.828125 C-19.07843903 148.90598055 -19.07843903 148.90598055 -42.54296875 167.203125 C-46.99742123 174.88321548 -47.66939462 182.61169406 -45.41796875 191.140625 C-41.97211343 201.54200309 -35.60211104 207.9950296 -26.328125 213.5234375 C-14.10423644 219.18961599 3.75079268 217.82710328 16.2578125 213.52734375 C32.55950921 206.779755 46.24973435 198.26356114 53.76953125 181.578125 C59.39093653 165.51339791 58.81910619 149.0015452 58.45703125 132.203125 C55.9808463 132.203125 53.54005866 133.34885687 51.17456055 134.05044556 Z " fill="#838383" transform="translate(2402.54296875,157.796875)"/>
<path d="M0 0 C0.83066986 0.00304138 1.66133972 0.00608276 2.5171814 0.00921631 C15.10660001 0.07727785 27.07540301 0.72677595 39.1875 4.4375 C40.28795654 4.75895996 40.28795654 4.75895996 41.41064453 5.08691406 C68.64590051 13.20960599 91.44261761 31.45690278 105.21923828 56.29785156 C116.07036813 76.77929103 121.75468223 101.59285566 116.1875 124.4375 C114.04884727 131.03355525 110.08780525 135.80722237 104.1875 139.4375 C92.17196273 144.46998152 81.34194212 145.58686586 68.44946289 145.55102539 C67.0592855 145.550743 65.66910797 145.55090227 64.27893066 145.5514679 C60.52118737 145.55175384 56.76347625 145.54589 53.0057404 145.53889394 C49.07263049 145.53262653 45.13951978 145.53205392 41.20640564 145.53086853 C33.76573695 145.52776519 26.32508302 145.51956526 18.88442081 145.50951904 C10.41041933 145.49832691 1.93641713 145.49283965 -6.53758991 145.48782361 C-23.96256846 145.4773818 -41.38753267 145.4598017 -58.8125 145.4375 C-58.36994695 148.60423117 -57.91455541 151.76899376 -57.45703125 154.93359375 C-57.33332153 155.81994507 -57.20961182 156.70629639 -57.08215332 157.61950684 C-54.30316824 176.66102509 -46.36585157 193.59312274 -31.04296875 205.609375 C-15.84990566 215.78155458 2.55972315 218.11858519 20.42578125 214.7890625 C40.88787159 209.36649269 56.07819405 194.95487061 70.984375 180.77734375 C78.68047801 173.60597503 84.29026542 170.80774552 94.9609375 171.08984375 C101.05032459 171.74596415 105.96863251 173.73447203 110.125 178.3125 C114.19096008 184.47304557 115.01615253 190.18941264 114.1875 197.4375 C109.45951866 216.77409435 94.97790425 231.98455347 78.34765625 242.125 C59.56771583 252.88505326 38.00737694 259.46786969 16.30859375 259.67578125 C15.46757111 259.6855751 14.62654846 259.69536896 13.76004028 259.70545959 C-21.40340019 260.03078084 -21.40340019 260.03078084 -37.8125 255.4375 C-38.97797363 255.12401611 -38.97797363 255.12401611 -40.16699219 254.80419922 C-55.91452212 250.44801346 -70.5739404 243.35871464 -82.8125 232.4375 C-83.616875 231.77492188 -84.42125 231.11234375 -85.25 230.4296875 C-109.8668923 209.58225684 -121.1332943 178.55696999 -124.0625 147.1875 C-127.19226787 109.0831461 -120.55322742 68.92533896 -95.16748047 38.99609375 C-70.8160662 10.98538588 -36.43490546 -0.28443691 0 0 Z M-40.625 61.1875 C-44.88527634 66.20853997 -48.00345306 71.49960693 -50.8125 77.4375 C-51.17988281 78.16839844 -51.54726562 78.89929688 -51.92578125 79.65234375 C-55.84189263 88.25569269 -58.8125 99.93011237 -58.8125 109.4375 C-21.1925 109.4375 16.4275 109.4375 55.1875 109.4375 C55.29464974 103.10016739 55.29464974 103.10016739 54.48828125 97.140625 C54.33399658 96.41568848 54.17971191 95.69075195 54.02075195 94.94384766 C53.84890381 94.19925293 53.67705566 93.4546582 53.5 92.6875 C53.22772583 91.50679932 53.22772583 91.50679932 52.94995117 90.30224609 C49.26773042 75.00734867 42.42156519 62.12004401 29.09765625 53.125 C6.6592064 40.11371096 -22.35010286 41.93468194 -40.625 61.1875 Z " fill="#838383" transform="translate(2940.8125,157.5625)"/>
<path d="M0 0 C2.36725577 0.00314698 4.7332404 -0.02034953 7.1003418 -0.0456543 C21.71619513 -0.10790264 36.03843444 1.64312829 49.88745117 6.50317383 C50.76264404 6.80433105 51.63783691 7.10548828 52.53955078 7.41577148 C81.88106252 17.87014487 104.38394236 39.54355408 118.13793945 67.2019043 C134.24023306 101.36475316 134.59023601 145.17969371 122.13330078 180.48632812 C117.27286038 193.62940444 111.15210807 205.43978779 102.19995117 216.31567383 C101.13454102 217.61118164 101.13454102 217.61118164 100.04760742 218.93286133 C80.16490163 242.01549626 50.1812919 256.19159197 19.86502075 258.49291992 C15.115141 258.7207838 10.37043694 258.7443224 5.6159668 258.70678711 C3.20067936 258.69067868 0.78706419 258.70676241 -1.62817383 258.72583008 C-34.97955957 258.77131491 -65.75830185 246.55555194 -89.80004883 223.31567383 C-115.79434733 196.36306017 -124.41300125 160.06361086 -124.01098633 123.68676758 C-123.16529156 89.1855531 -111.76706156 58.22827432 -87.80004883 33.31567383 C-87.22899414 32.66985352 -86.65793945 32.0240332 -86.06958008 31.35864258 C-65.04331434 8.27839715 -29.89360083 -0.08265512 0 0 Z M-20.80004883 52.31567383 C-21.74879883 52.72817383 -22.69754883 53.14067383 -23.67504883 53.56567383 C-38.95043471 61.03364026 -48.15007984 75.35742664 -53.77270508 90.97583008 C-55.52566757 96.67462449 -56.76845144 102.44672111 -57.80004883 108.31567383 C-57.98567383 109.33145508 -58.17129883 110.34723633 -58.36254883 111.39379883 C-61.35100312 138.18315692 -58.84879247 168.19970217 -41.63208008 190.06958008 C-35.13566171 197.57232831 -28.02777965 203.53381693 -18.80004883 207.31567383 C-17.72303711 207.76620117 -17.72303711 207.76620117 -16.62426758 208.22583008 C-1.89758468 213.27564957 16.00998598 211.73761573 29.85229492 205.03051758 C45.98331632 196.10750266 55.87395878 181.67757028 61.19995117 164.31567383 C66.50803425 144.77835964 67.76446575 122.15099894 63.19995117 102.31567383 C63.04929199 101.65986328 62.89863281 101.00405273 62.7434082 100.32836914 C58.43089159 82.25805459 49.75719883 66.33974142 33.88745117 55.85083008 C17.62085069 46.55900742 -3.46569889 44.6115183 -20.80004883 52.31567383 Z " fill="#838383" transform="translate(1454.800048828125,158.684326171875)"/>
<path d="M0 0 C1.19955322 -0.02247803 1.19955322 -0.02247803 2.42333984 -0.04541016 C9.50379378 0.07880833 15.44161797 2.22926607 20.4375 7.375 C30.09900682 19.81621858 34.34044383 37.15375451 39.45365524 51.77165222 C40.59675449 55.03376775 41.748891 58.29268643 42.90063477 61.55175781 C44.32398468 65.58052597 45.74694041 69.60942757 47.16651917 73.63952637 C51.44266562 85.77732039 55.77507393 97.89463118 60.12521362 110.00610352 C61.3042148 113.2894271 62.48156454 116.57333842 63.65844727 119.85742188 C66.96810601 129.09036232 70.28370698 138.32102744 73.62559509 147.5423584 C74.96235765 151.23130761 76.29605991 154.92136007 77.62966919 158.6114502 C78.53789444 161.11955077 79.45132462 163.6257132 80.36499023 166.13183594 C80.90374821 167.62164894 81.44225736 169.11155195 81.98046875 170.6015625 C82.226297 171.27065643 82.47212524 171.93975037 82.72540283 172.62911987 C83.73161259 175.43006442 84.375 177.55807256 84.375 180.5625 C85.035 180.5625 85.695 180.5625 86.375 180.5625 C86.46297852 179.78688721 86.55095703 179.01127441 86.64160156 178.2121582 C87.62482236 173.31929278 89.35067216 168.82995668 91.109375 164.16796875 C91.49477951 163.13286163 91.88018402 162.09775452 92.27726746 161.03128052 C93.55503084 157.60236953 94.84012269 154.17625089 96.125 150.75 C97.72059564 146.47354456 99.31358426 142.19611939 100.90691948 137.91882133 C101.61945203 136.00687943 102.33271025 134.09520964 103.04615784 132.18360901 C107.7270469 119.63888375 112.35449709 107.07474232 116.9758606 94.50796509 C118.3085039 90.88586133 119.64303054 87.26445746 120.97827148 83.64331055 C126.19950721 69.48472508 126.19950721 69.48472508 131.38581848 55.31332397 C148.80080182 7.54596719 148.80080182 7.54596719 159.5390625 1.8984375 C167.01763598 -1.10563229 176.79366808 -0.62738169 184.48828125 1.37109375 C191.46100734 4.50502507 197.09445652 10.03980603 200.53515625 16.86328125 C206.3843299 32.61524192 197.36545647 49.74927173 191.29879761 64.20281982 C189.66870108 68.08736828 188.06021106 71.98075888 186.45018005 75.87365723 C185.62043288 77.87952883 184.78967059 79.88498083 183.957901 81.89001465 C180.16403035 91.04154837 176.47477732 100.23269018 172.8125 109.4375 C171.51141343 112.70222094 170.20909408 115.9664488 168.90625 119.23046875 C168.39054695 120.52254745 168.39054695 120.52254745 167.86442566 121.84072876 C161.46553459 137.8589433 155.00366843 153.85208956 148.54296875 169.84545898 C147.74051275 171.83205852 146.93806136 173.81865992 146.13562012 175.80526543 C145.60888924 177.10924432 145.08211535 178.41320583 144.55529785 179.71714973 C141.61921234 186.98518198 138.69265036 194.25683253 135.79234314 201.53923035 C134.43969984 204.93490159 133.08131562 208.32825962 131.72219849 211.72134399 C131.131268 213.20153477 130.54326819 214.68290013 129.95870972 216.1656189 C127.05396721 223.53227987 123.9385942 230.70003487 120.25390625 237.7109375 C119.77539467 238.62938698 119.77539467 238.62938698 119.28721619 239.56639099 C114.65631508 248.13153664 108.3405927 253.91547924 99.375 257.5625 C94.84413179 258.91093896 90.38055477 258.78499492 85.6875 258.8125 C84.82705078 258.833125 83.96660156 258.85375 83.08007812 258.875 C72.55347601 258.93846105 65.01313857 255.76220301 57.375 248.5625 C51.24727174 241.24074359 47.50394602 232.83271878 43.8125 224.125 C43.203108 222.7088979 42.59331609 221.29296785 41.9831543 219.87719727 C36.16354562 206.30663726 30.70756119 192.59135626 25.27523804 178.86244202 C21.69272966 169.82003005 18.04249127 160.80507134 14.39273071 151.78964233 C13.18396941 148.80377878 11.97603692 145.81758113 10.76831055 142.83129883 C7.06085268 133.66514282 3.350139 124.50031103 -0.36390686 115.33682251 C-4.7410879 104.53672395 -9.10923874 93.73304091 -13.46386719 82.92382812 C-14.86236739 79.45247558 -16.26404526 75.98243902 -17.66894531 72.51367188 C-19.21789308 68.68757173 -20.75721096 64.85774365 -22.28863525 61.02459717 C-22.83298173 59.66621377 -23.38046886 58.30908334 -23.93157959 56.95343018 C-34.55026007 30.80941422 -34.55026007 30.80941422 -29.8515625 17.96484375 C-26.23494851 10.88134819 -20.07374465 4.56874567 -12.765625 1.33984375 C-8.494535 0.28269585 -4.38914945 0.06505573 0 0 Z " fill="#838383" transform="translate(2587.625,158.4375)"/>
<path d="M0 0 C1.25804443 0.00749268 1.25804443 0.00749268 2.54150391 0.01513672 C10.93969765 0.25136137 16.46572214 2.41829944 22.5625 8.25 C28.167926 16.82300448 29.95845063 25.55796615 31.6875 35.5 C32.13738281 34.77296875 32.58726563 34.0459375 33.05078125 33.296875 C41.97526996 19.34677241 52.90848778 5.71835922 69.54296875 1.16015625 C90.93910714 -2.90046465 112.80317135 1.38166293 130.9765625 13.25 C137.13396003 17.74855527 141.61428415 23.17286535 143.6875 30.5 C144.73354373 39.17665745 143.89351324 46.34487552 138.6875 53.5 C134.0596504 58.62161598 128.62737512 63.02682547 121.52612305 63.70703125 C114.85936163 63.82691988 109.20871017 62.55517915 102.875 60.5625 C101.05646607 60.01014755 99.23746974 59.45931473 97.41796875 58.91015625 C96.62801514 58.66402588 95.83806152 58.41789551 95.02416992 58.16430664 C84.67421621 55.22185297 70.56536123 54.28639796 60.75390625 59.18359375 C46.96690279 67.96661864 42.11308986 81.90133884 38.55859375 97.1953125 C36.32367853 107.75120604 35.24484138 118.32504471 34.59765625 129.0859375 C34.55522671 129.7814698 34.51279716 130.47700211 34.46908188 131.19361115 C33.72991068 143.60095224 33.49065678 155.99452618 33.4140625 168.421875 C33.4082762 169.31224079 33.40248989 170.20260658 33.39652824 171.11995316 C33.34574397 179.37012208 33.31397393 187.6202831 33.30664062 195.87060547 C33.30159638 200.4540784 33.2772579 205.03713083 33.24131393 209.62046051 C33.23164042 211.33458166 33.22911438 213.04876128 33.23448563 214.76290131 C33.27144486 227.08584736 32.79547499 239.80971433 24.53515625 249.78125 C15.99587058 257.72477156 7.34686431 258.95507012 -3.8359375 258.78125 C-11.87266064 258.44846643 -17.64990026 255.16259974 -23.3125 249.5 C-32.32335684 238.25568292 -31.75278404 224.77484745 -31.71655273 211.12988281 C-31.72226328 209.1821758 -31.72923017 207.23447214 -31.73735046 205.28677368 C-31.75522424 200.02207434 -31.75412402 194.75754221 -31.74840808 189.49282169 C-31.74530693 185.08469924 -31.75141917 180.67660848 -31.75744683 176.26849055 C-31.77147236 165.86060726 -31.76994803 155.45280609 -31.75854492 145.04492188 C-31.74707393 134.33909848 -31.76112686 123.63352591 -31.7879414 112.92773557 C-31.81016021 103.70865413 -31.81672163 94.48965106 -31.81086498 85.27054477 C-31.80750798 79.77660791 -31.80982615 74.28283166 -31.82711601 68.78891754 C-31.84268115 63.61770967 -31.83852424 58.44687054 -31.81981087 53.27567673 C-31.8161509 51.38882641 -31.8191568 49.50194818 -31.82969666 47.61512375 C-31.89775865 34.41224394 -31.95333837 19.56548081 -22.8125 9.0078125 C-15.97961996 2.13934455 -9.46843794 -0.07366229 0 0 Z " fill="#838383" transform="translate(1186.3125,158.5)"/>
<path d="M0 0 C6.13213409 5.2349742 9.39857825 9.9912725 14.27734375 16.9609375 C14.60734375 8.3809375 14.93734375 -0.1990625 15.27734375 -9.0390625 C18.90734375 -9.0390625 22.53734375 -9.0390625 26.27734375 -9.0390625 C26.34692482 8.89428924 26.40039614 26.82759433 26.43278027 44.76105213 C26.44821946 53.0887138 26.46925231 61.41628981 26.50366211 69.74389648 C26.53365506 77.00605937 26.55294015 84.26816018 26.55960923 91.53038329 C26.56350481 95.37222493 26.57259774 99.21388909 26.59453392 103.0556736 C26.61505587 106.6794986 26.62114623 110.30307477 26.61666679 113.92695236 C26.61787208 115.87506553 26.63393136 117.82315226 26.65060425 119.77119446 C26.59591977 135.48026111 21.68245171 149.27212522 10.68359375 160.7109375 C-2.9226674 173.4336752 -18.2217828 176.48967425 -36.23828125 176.23828125 C-51.70404951 175.69821533 -65.1569672 170.12735237 -76.43359375 159.44140625 C-82.12810782 153.27072974 -89.72265625 142.8194454 -89.72265625 133.9609375 C-85.76265625 133.9609375 -81.80265625 133.9609375 -77.72265625 133.9609375 C-77.31015625 134.87875 -76.89765625 135.7965625 -76.47265625 136.7421875 C-70.20700558 150.25543291 -62.68188218 157.29765505 -48.72265625 162.9609375 C-42.9421979 164.87854368 -37.41144235 165.31558955 -31.34765625 165.2734375 C-30.51057129 165.26852295 -29.67348633 165.2636084 -28.81103516 165.25854492 C-17.39133102 165.04196816 -6.87010345 161.27782666 1.8046875 153.59375 C11.2838025 143.08374982 14.46646051 131.07420854 14.375 117.28125 C14.37358505 116.46848602 14.3721701 115.65572205 14.37071228 114.81832886 C14.3651471 112.24082649 14.35260115 109.6634133 14.33984375 107.0859375 C14.33482425 105.33073043 14.33026213 103.57552198 14.32617188 101.8203125 C14.31518909 97.53382018 14.29794867 93.24739393 14.27734375 88.9609375 C13.80756104 89.64075684 13.33777832 90.32057617 12.85375977 91.02099609 C12.23170654 91.91641113 11.60965332 92.81182617 10.96875 93.734375 C10.35459229 94.62044434 9.74043457 95.50651367 9.10766602 96.41943359 C1.80016254 106.56630716 -9.83163793 114.01709769 -22.12890625 116.5625 C-41.83191721 118.74696426 -59.18576827 116.98125961 -75.51953125 104.890625 C-87.50261752 94.75947024 -94.5024335 80.37892222 -96.72265625 64.9609375 C-98.39811798 43.77236348 -95.98766358 23.95050688 -81.91015625 7.0859375 C-61.23698728 -14.57922614 -24.1335101 -18.07416395 0 0 Z M-73.72265625 14.9609375 C-79.06583917 22.71415748 -82.99572792 30.62659212 -84.72265625 39.9609375 C-84.8515625 40.65574219 -84.98046875 41.35054687 -85.11328125 42.06640625 C-87.74504901 59.41529636 -83.86647085 75.92140389 -74.09765625 90.36328125 C-66.57953697 99.77900275 -55.42538217 105.04382428 -43.72265625 106.9609375 C-27.66623955 107.98118898 -14.20759903 105.3385277 -1.3515625 95.06640625 C9.44614161 85.25196693 14.54006748 71.36587866 15.5546875 57.046875 C16.12687703 40.89755284 12.18588606 26.46791758 1.52734375 14.0859375 C-8.56210261 3.65116783 -20.82721912 -1.13473031 -35.34765625 -1.4765625 C-50.00218367 -1.02098134 -63.89482245 3.68367497 -73.72265625 14.9609375 Z " fill="#00B0FF" transform="translate(3029.72265625,568.0390625)"/>
<path d="M0 0 C13.16970067 11.21204247 20.57376386 26.31967277 22.19140625 43.49609375 C23.45960846 63.04496687 19.83219657 82.26820039 7.09765625 97.6953125 C-4.45324569 109.95076383 -18.45401425 115.91934834 -35.12475586 116.43554688 C-50.31627581 116.58273964 -62.19864739 114.20571569 -74.6484375 104.96484375 C-75.63263672 104.25521484 -75.63263672 104.25521484 -76.63671875 103.53125 C-82.17880357 99.19343195 -86.50833778 93.2450432 -89.6484375 86.96484375 C-89.9784375 115.34484375 -90.3084375 143.72484375 -90.6484375 172.96484375 C-94.2784375 172.96484375 -97.9084375 172.96484375 -101.6484375 172.96484375 C-101.6484375 112.57484375 -101.6484375 52.18484375 -101.6484375 -10.03515625 C-98.0184375 -10.03515625 -94.3884375 -10.03515625 -90.6484375 -10.03515625 C-90.3184375 -1.12515625 -89.9884375 7.78484375 -89.6484375 16.96484375 C-87.6684375 13.99484375 -85.6884375 11.02484375 -83.6484375 7.96484375 C-75.83043126 -2.89349825 -62.5939891 -9.59532935 -49.51953125 -11.75 C-31.63456431 -13.52633005 -14.61743671 -11.23257305 0 0 Z M-77.6484375 13.96484375 C-88.0592075 27.63964614 -91.85507643 43.48397057 -90.1796875 60.5234375 C-88.13557346 73.76508798 -82.54393067 87.58211082 -71.6484375 95.96484375 C-58.69158161 104.86919665 -46.13022528 107.47944251 -30.6484375 105.96484375 C-18.56515673 103.70401849 -7.21713548 97.8261349 0.3515625 87.96484375 C10.03666117 72.01749253 13.25260376 53.9550722 9.2890625 35.58984375 C5.22172276 22.21491727 -1.21322745 10.79643212 -13.81591797 3.95898438 C-34.78361738 -6.70085321 -61.34332223 -4.03296357 -77.6484375 13.96484375 Z " fill="#00B0FF" transform="translate(2538.6484375,569.03515625)"/>
<path d="M0 0 C13.16970067 11.21204247 20.57376386 26.31967277 22.19140625 43.49609375 C23.45960846 63.04496687 19.83219657 82.26820039 7.09765625 97.6953125 C-4.45324569 109.95076383 -18.45401425 115.91934834 -35.12475586 116.43554688 C-50.31627581 116.58273964 -62.19864739 114.20571569 -74.6484375 104.96484375 C-75.63263672 104.25521484 -75.63263672 104.25521484 -76.63671875 103.53125 C-82.17880357 99.19343195 -86.50833778 93.2450432 -89.6484375 86.96484375 C-89.9784375 115.34484375 -90.3084375 143.72484375 -90.6484375 172.96484375 C-94.2784375 172.96484375 -97.9084375 172.96484375 -101.6484375 172.96484375 C-101.6484375 112.57484375 -101.6484375 52.18484375 -101.6484375 -10.03515625 C-98.0184375 -10.03515625 -94.3884375 -10.03515625 -90.6484375 -10.03515625 C-90.3184375 -1.12515625 -89.9884375 7.78484375 -89.6484375 16.96484375 C-87.6684375 13.99484375 -85.6884375 11.02484375 -83.6484375 7.96484375 C-75.83043126 -2.89349825 -62.5939891 -9.59532935 -49.51953125 -11.75 C-31.63456431 -13.52633005 -14.61743671 -11.23257305 0 0 Z M-77.6484375 13.96484375 C-88.0592075 27.63964614 -91.85507643 43.48397057 -90.1796875 60.5234375 C-88.13557346 73.76508798 -82.54393067 87.58211082 -71.6484375 95.96484375 C-58.69158161 104.86919665 -46.13022528 107.47944251 -30.6484375 105.96484375 C-18.56515673 103.70401849 -7.21713548 97.8261349 0.3515625 87.96484375 C10.03666117 72.01749253 13.25260376 53.9550722 9.2890625 35.58984375 C5.22172276 22.21491727 -1.21322745 10.79643212 -13.81591797 3.95898438 C-34.78361738 -6.70085321 -61.34332223 -4.03296357 -77.6484375 13.96484375 Z " fill="#00B0FF" transform="translate(2332.6484375,569.03515625)"/>
<path d="M0 0 C13.16970067 11.21204247 20.57376386 26.31967277 22.19140625 43.49609375 C23.45960846 63.04496687 19.83219657 82.26820039 7.09765625 97.6953125 C-4.45324569 109.95076383 -18.45401425 115.91934834 -35.12475586 116.43554688 C-50.31627581 116.58273964 -62.19864739 114.20571569 -74.6484375 104.96484375 C-75.63263672 104.25521484 -75.63263672 104.25521484 -76.63671875 103.53125 C-82.17880357 99.19343195 -86.50833778 93.2450432 -89.6484375 86.96484375 C-89.9784375 115.34484375 -90.3084375 143.72484375 -90.6484375 172.96484375 C-94.2784375 172.96484375 -97.9084375 172.96484375 -101.6484375 172.96484375 C-101.6484375 112.57484375 -101.6484375 52.18484375 -101.6484375 -10.03515625 C-98.0184375 -10.03515625 -94.3884375 -10.03515625 -90.6484375 -10.03515625 C-90.3184375 -1.12515625 -89.9884375 7.78484375 -89.6484375 16.96484375 C-87.6684375 13.99484375 -85.6884375 11.02484375 -83.6484375 7.96484375 C-75.83043126 -2.89349825 -62.5939891 -9.59532935 -49.51953125 -11.75 C-31.63456431 -13.52633005 -14.61743671 -11.23257305 0 0 Z M-77.6484375 13.96484375 C-88.0592075 27.63964614 -91.85507643 43.48397057 -90.1796875 60.5234375 C-88.13557346 73.76508798 -82.54393067 87.58211082 -71.6484375 95.96484375 C-58.69158161 104.86919665 -46.13022528 107.47944251 -30.6484375 105.96484375 C-18.56515673 103.70401849 -7.21713548 97.8261349 0.3515625 87.96484375 C10.03666117 72.01749253 13.25260376 53.9550722 9.2890625 35.58984375 C5.22172276 22.21491727 -1.21322745 10.79643212 -13.81591797 3.95898438 C-34.78361738 -6.70085321 -61.34332223 -4.03296357 -77.6484375 13.96484375 Z " fill="#00B0FF" transform="translate(1448.6484375,569.03515625)"/>
<path d="M0 0 C87.42589704 0 87.42589704 0 111 23 C127.48482352 41.56821354 132.03842348 64.86521258 131 89 C129.49247352 109.97615422 122.53723471 128.29418922 107 143 C77.29070374 167.9399109 35.59685173 161 0 161 C0 107.87 0 54.74 0 0 Z M11 10 C11 56.86 11 103.72 11 152 C60.73472753 153.95716793 60.73472753 153.95716793 102.0859375 132.03125 C114.99313308 118.27860492 119.41468301 99.52120442 119.3125 81.1875 C119.30758545 80.13723633 119.3026709 79.08697266 119.29760742 78.00488281 C119.03262981 60.38862745 113.98925435 42.66193141 101.6796875 29.5234375 C76.32373828 5.75720297 44.80599011 10 11 10 Z " fill="#00B0FF" transform="translate(802,522)"/>
<path d="M0 0 C3.63 0 7.26 0 11 0 C11.33 21.78 11.66 43.56 12 66 C14.64 62.37 17.28 58.74 20 55 C33.04395139 44.21700019 47.36307548 41.03273695 64 42 C77.5210779 43.94691258 89.3536685 49.22210561 97.75390625 60.31640625 C104.42081641 70.72614316 107.1719168 82.04570245 107.11352539 94.30029297 C107.11367142 95.11071548 107.11381744 95.921138 107.1139679 96.75611877 C107.11327471 99.4181695 107.10551023 102.08014909 107.09765625 104.7421875 C107.09578996 106.59449221 107.09436705 108.44679741 107.09336853 110.29910278 C107.08955997 115.1619606 107.07974392 120.02478831 107.06866455 124.88763428 C107.05841466 129.85477288 107.05386325 134.82191636 107.04882812 139.7890625 C107.03812012 149.52605486 107.02106371 159.26302492 107 169 C103.37 169 99.74 169 96 169 C95.99413376 168.02662186 95.98826752 167.05324371 95.98222351 166.05036926 C95.92473376 156.8272392 95.85183784 147.604339 95.76428509 138.38144398 C95.71976882 133.64111378 95.68047266 128.90086583 95.65356445 124.16040039 C95.62734287 119.57608195 95.58681087 114.99208328 95.53681374 110.40796471 C95.5202714 108.6687388 95.5086792 106.92945775 95.50238609 105.19016457 C95.44154956 89.90608055 94.61934432 75.09938695 83.8125 63.25 C74.75133372 54.76008116 63.54703055 52.53583296 51.52734375 52.75390625 C40.22836358 53.54220719 30.62779679 57.95863904 22.6875 66.0625 C11.20532618 79.98028645 11.72252289 99.5027057 11.5859375 116.65625 C11.56715882 118.18038908 11.54758087 119.7045185 11.5272522 121.2286377 C11.47663059 125.18050348 11.43663783 129.13240273 11.39910889 133.08441162 C11.35862204 137.14098908 11.30773725 141.19743591 11.2578125 145.25390625 C11.16188561 153.16918051 11.07722371 161.08452123 11 169 C7.37 169 3.74 169 0 169 C0 113.23 0 57.46 0 0 Z " fill="#00B0FF" transform="translate(1837,514)"/>
<path d="M0 0 C12.73114615 11.03493057 20.17830661 25.06530377 22.109375 41.82421875 C23.359699 63.74123536 19.82676479 81.77098186 5.38671875 98.86328125 C-3.41829093 108.31357533 -17.43893561 115.06631969 -30.33154297 116.0012207 C-48.25029594 116.43161372 -62.64629723 115.28011579 -77.890625 104.82421875 C-78.87095703 104.16679688 -78.87095703 104.16679688 -79.87109375 103.49609375 C-91.90001512 94.35741664 -98.55428212 78.29382609 -100.890625 63.82421875 C-102.51031377 44.68439053 -100.55017905 25.30757215 -88.4453125 9.6640625 C-80.07621239 -0.22130016 -70.32614726 -6.54190617 -57.890625 -10.17578125 C-57.12621094 -10.40136719 -56.36179687 -10.62695312 -55.57421875 -10.859375 C-36.69802252 -15.49059066 -15.51667515 -11.67944333 0 0 Z M-76.92578125 13.41796875 C-84.76924199 23.02347931 -89.07866118 34.44177042 -89.890625 46.82421875 C-89.9421875 47.53191406 -89.99375 48.23960937 -90.046875 48.96875 C-90.65659464 64.28795604 -86.24423359 79.23412241 -76.640625 91.26171875 C-67.22360905 101.01281952 -54.91861033 105.72818291 -41.50854492 106.29467773 C-28.86013966 106.46604231 -18.33296958 102.98243613 -7.890625 95.82421875 C-6.5603125 94.95796875 -6.5603125 94.95796875 -5.203125 94.07421875 C6.38238421 82.80183141 11.00946523 67.63190723 11.359375 51.82421875 C11.04555981 37.64715619 7.57754121 24.65843879 -1.890625 13.82421875 C-2.36757812 13.23125 -2.84453125 12.63828125 -3.3359375 12.02734375 C-10.07760088 4.37098232 -21.7226555 -1.30562221 -31.890625 -2.17578125 C-48.94975755 -3.20504735 -64.96021856 0.43544142 -76.92578125 13.41796875 Z " fill="#00B0FF" transform="translate(2125.890625,569.17578125)"/>
<path d="M0 0 C12.73114615 11.03493057 20.17830661 25.06530377 22.109375 41.82421875 C23.359699 63.74123536 19.82676479 81.77098186 5.38671875 98.86328125 C-3.41829093 108.31357533 -17.43893561 115.06631969 -30.33154297 116.0012207 C-48.25029594 116.43161372 -62.64629723 115.28011579 -77.890625 104.82421875 C-78.87095703 104.16679688 -78.87095703 104.16679688 -79.87109375 103.49609375 C-91.90001512 94.35741664 -98.55428212 78.29382609 -100.890625 63.82421875 C-102.51031377 44.68439053 -100.55017905 25.30757215 -88.4453125 9.6640625 C-80.07621239 -0.22130016 -70.32614726 -6.54190617 -57.890625 -10.17578125 C-57.12621094 -10.40136719 -56.36179687 -10.62695312 -55.57421875 -10.859375 C-36.69802252 -15.49059066 -15.51667515 -11.67944333 0 0 Z M-76.92578125 13.41796875 C-84.76924199 23.02347931 -89.07866118 34.44177042 -89.890625 46.82421875 C-89.9421875 47.53191406 -89.99375 48.23960937 -90.046875 48.96875 C-90.65659464 64.28795604 -86.24423359 79.23412241 -76.640625 91.26171875 C-67.22360905 101.01281952 -54.91861033 105.72818291 -41.50854492 106.29467773 C-28.86013966 106.46604231 -18.33296958 102.98243613 -7.890625 95.82421875 C-6.5603125 94.95796875 -6.5603125 94.95796875 -5.203125 94.07421875 C6.38238421 82.80183141 11.00946523 67.63190723 11.359375 51.82421875 C11.04555981 37.64715619 7.57754121 24.65843879 -1.890625 13.82421875 C-2.36757812 13.23125 -2.84453125 12.63828125 -3.3359375 12.02734375 C-10.07760088 4.37098232 -21.7226555 -1.30562221 -31.890625 -2.17578125 C-48.94975755 -3.20504735 -64.96021856 0.43544142 -76.92578125 13.41796875 Z " fill="#00B0FF" transform="translate(1242.890625,569.17578125)"/>
<path d="M0 0 C10.53784797 8.71128765 15.75154475 20.8588508 17.59375 34.25 C17.67995065 37.02589945 17.72049793 39.77528112 17.70727539 42.55029297 C17.70742142 43.36071548 17.70756744 44.171138 17.7077179 45.00611877 C17.70702471 47.6681695 17.69926023 50.33014909 17.69140625 52.9921875 C17.68953996 54.84449221 17.68811705 56.69679741 17.68711853 58.54910278 C17.68330997 63.4119606 17.67349392 68.27478831 17.66241455 73.13763428 C17.65216466 78.10477288 17.64761325 83.07191636 17.64257812 88.0390625 C17.63187012 97.77605486 17.61481371 107.51302492 17.59375 117.25 C13.96375 117.25 10.33375 117.25 6.59375 117.25 C6.58788376 116.27662186 6.58201752 115.30324371 6.57597351 114.30036926 C6.51848376 105.0772392 6.44558784 95.854339 6.35803509 86.63144398 C6.31351882 81.89111378 6.27422266 77.15086583 6.24731445 72.41040039 C6.22109287 67.82608195 6.18056087 63.24208328 6.13056374 58.65796471 C6.1140214 56.9187388 6.1024292 55.17945775 6.09613609 53.44016457 C6.03529956 38.15608055 5.21309432 23.34938695 -5.59375 11.5 C-14.65491628 3.01008116 -25.85921945 0.78583296 -37.87890625 1.00390625 C-49.17788642 1.79220719 -58.77845321 6.20863904 -66.71875 14.3125 C-78.20092382 28.23028645 -77.68372711 47.7527057 -77.8203125 64.90625 C-77.83909118 66.43038908 -77.85866913 67.9545185 -77.8789978 69.4786377 C-77.92961941 73.43050348 -77.96961217 77.38240273 -78.00714111 81.33441162 C-78.04762796 85.39098908 -78.09851275 89.44743591 -78.1484375 93.50390625 C-78.24436439 101.41918051 -78.32902629 109.33452123 -78.40625 117.25 C-82.03625 117.25 -85.66625 117.25 -89.40625 117.25 C-89.40625 76.33 -89.40625 35.41 -89.40625 -6.75 C-85.77625 -6.75 -82.14625 -6.75 -78.40625 -6.75 C-78.07625 0.18 -77.74625 7.11 -77.40625 14.25 C-76.25125 12.55875 -75.09625 10.8675 -73.90625 9.125 C-66.70070486 -0.71795133 -57.09327301 -6.5390709 -45.09375 -9.0625 C-29.21472822 -11.41160137 -13.21958723 -9.61424526 0 0 Z " fill="#00B0FF" transform="translate(2833.40625,565.75)"/>
<path d="M0 0 C7.07116176 6.44916142 9.55547222 15.07475202 11.25 24.25 C11.25 25.24 11.25 26.23 11.25 27.25 C7.29 27.25 3.33 27.25 -0.75 27.25 C-1.12125 25.435 -1.4925 23.62 -1.875 21.75 C-3.72519331 14.38397216 -6.72511639 9.79365213 -12.5 4.9375 C-22.62402317 -0.31920434 -33.82627183 -1.44794175 -44.9765625 0.94140625 C-52.13039948 3.29645727 -57.22683118 6.83151321 -61.6875 12.875 C-63.62482357 19.02885133 -63.61402801 25.38790721 -61.75 31.5625 C-52.48199974 44.01637535 -37.73189474 46.72799054 -23.5 50.75 C-15.0588218 53.13985368 -7.23735114 55.55881008 0.25 60.25 C1.17232422 60.81074219 1.17232422 60.81074219 2.11328125 61.3828125 C6.9161588 64.79130624 9.60255438 69.72579937 11.25 75.25 C12.4195953 85.3797123 11.79753765 93.94101106 5.70703125 102.390625 C-0.71608347 110.32765464 -9.65637672 115.56156382 -19.75 117.25 C-37.19207819 118.42263641 -53.74060323 117.28714408 -68 106.1875 C-73.93457438 100.66220661 -77.69897674 93.04244855 -78.625 85 C-78.66625 83.7625 -78.7075 82.525 -78.75 81.25 C-75.12 81.25 -71.49 81.25 -67.75 81.25 C-67.37875 82.57 -67.0075 83.89 -66.625 85.25 C-63.74311443 93.70972862 -59.1413869 98.51383414 -51.5078125 103.0234375 C-40.99843652 107.69757922 -25.71566205 108.64427367 -14.875 104.5625 C-12.67319616 103.49203066 -12.67319616 103.49203066 -10.75 102.25 C-9.86828125 101.70666016 -9.86828125 101.70666016 -8.96875 101.15234375 C-4.7414203 98.0958186 -2.23233611 94.17168901 -0.75 89.25 C0.04480747 83.61335519 0.24466296 77.69201073 -3.23583984 72.91186523 C-10.60192571 64.82722375 -22.52642617 62.60095093 -32.625 59.75 C-65.03499664 50.55910543 -65.03499664 50.55910543 -72.71484375 37.421875 C-76.2887806 29.9233509 -76.91878638 21.52901232 -74.5 13.625 C-71.05397087 4.37762826 -64.21850776 -2.91561282 -55.25 -7.125 C-53.76301295 -7.70143066 -52.26269874 -8.24488091 -50.75 -8.75 C-50.08871094 -8.97429688 -49.42742187 -9.19859375 -48.74609375 -9.4296875 C-32.10955416 -14.0386719 -13.52716112 -10.47919563 0 0 Z " fill="#00B0FF" transform="translate(1742.75,567.75)"/>
<path d="M0 0 C0 3.96 0 7.92 0 12 C-1.11117188 12.09796875 -2.22234375 12.1959375 -3.3671875 12.296875 C-16.72685936 13.58804941 -28.50595007 16.01087777 -37.56640625 26.87890625 C-46.17823191 39.60384268 -45.16050051 55.46536852 -45.31640625 70.1640625 C-45.33701733 71.80887321 -45.35801476 73.45367913 -45.37937927 75.09848022 C-45.43417155 79.39569168 -45.48376694 83.69294747 -45.53222656 87.99023438 C-45.58275755 92.38806025 -45.63827748 96.78582294 -45.69335938 101.18359375 C-45.80041564 109.78900884 -45.9019738 118.39447732 -46 127 C-49.63 127 -53.26 127 -57 127 C-57 86.08 -57 45.16 -57 3 C-53.37 3 -49.74 3 -46 3 C-45.67 9.6 -45.34 16.2 -45 23 C-44.175 21.659375 -43.35 20.31875 -42.5 18.9375 C-35.31461161 8.29309907 -25.77259606 3.18854554 -13.25 0.6875 C-8.78369598 -0.00610599 -4.51256741 -0.17028556 0 0 Z " fill="#00B0FF" transform="translate(1072,556)"/>
<path d="M0 0 C3.63 0 7.26 0 11 0 C11 40.92 11 81.84 11 124 C7.37 124 3.74 124 0 124 C0 83.08 0 42.16 0 0 Z " fill="#00B0FF" transform="translate(2643,559)"/>
<path d="M0 0 C2.51666056 2.12948202 3.71851452 3.6855159 4.4140625 6.93359375 C4.69682873 10.86999737 4.23298334 12.65052498 2 16 C-1.32830398 18.21886932 -3.13955335 18.76241935 -7.0625 18.47265625 C-10.66317126 17.59426669 -12.00772296 16.05067422 -14 13 C-14.62886083 9.87239126 -14.6427262 7.12598652 -14 4 C-10.17052389 -1.28203602 -6.09432941 -1.49685284 0 0 Z " fill="#00B0FF" transform="translate(2654,514)"/>
</svg>
