<?xml version="1.0" encoding="UTF-8"?>
<svg id="Layer_1" data-name="Layer 1" xmlns="http://www.w3.org/2000/svg" xmlns:xlink="http://www.w3.org/1999/xlink" viewBox="0 0 1896.67 902.19">
  <image width="1787" height="897" transform="translate(0 6.01) scale(.97)" xlink:href="../Desktop/Screenshot 2025-12-14 115450.png"/>
  <path d="M1687.04,4c4.41,0,8,3.59,8,8v869.29c0,4.41-3.59,8-8,8H15.02c-4.41,0-8-3.59-8-8V12c0-4.41,3.59-8,8-8h1672.02M1687.04,0H15.02C8.39,0,3.02,5.37,3.02,12v869.29c0,6.63,5.37,12,12,12h1672.02c6.63,0,12-5.37,12-12V12c0-6.63-5.37-12-12-12h0Z"/>
  <image width="442" height="895" transform="translate(1491.83 82.43) scale(.92)" xlink:href="../Desktop/iPhone-14-Plus-localhost.png"/>
</svg>