<svg width="131" height="136" viewBox="0 0 131 136" fill="none" xmlns="http://www.w3.org/2000/svg">
<path d="M112.426 131.316C122.513 131.316 130.691 126.596 130.691 120.773C130.691 114.951 122.513 110.231 112.426 110.231C102.339 110.231 94.1611 114.951 94.1611 120.773C94.1611 126.596 102.339 131.316 112.426 131.316Z" fill="#E0E0E0"/>
<path d="M49.6602 135.966C49.3606 135.963 49.0713 135.857 48.8404 135.666C48.6094 135.476 48.4509 135.211 48.3912 134.918L48.096 133.364C47.4296 133.243 46.7713 133.081 46.1246 132.879H46.0737L43.3389 134.148C43.1141 134.245 42.8702 134.29 42.6257 134.279C42.3811 134.267 42.1423 134.201 41.9273 134.084L39.2129 132.51C39.0491 132.422 38.9108 132.293 38.8114 132.136C38.7121 131.979 38.655 131.798 38.6458 131.613C38.6366 131.427 38.6755 131.242 38.7588 131.076C38.8421 130.91 38.967 130.768 39.1213 130.664L40.7703 129.477C40.6206 129.278 40.4835 129.069 40.3597 128.853L36.8852 128.636C36.5699 128.616 36.2738 128.477 36.0571 128.247C35.8403 128.017 35.7191 127.714 35.718 127.398V125.362C35.7182 125.046 35.8385 124.742 36.0547 124.512C36.2708 124.281 36.5665 124.142 36.8818 124.121L40.3563 123.9C40.4801 123.685 40.6172 123.478 40.7669 123.28L39.1111 122.103C38.9568 121.999 38.832 121.857 38.7487 121.691C38.6654 121.525 38.6264 121.34 38.6356 121.154C38.6449 120.968 38.7019 120.788 38.8013 120.631C38.9006 120.474 39.0389 120.345 39.2027 120.257L41.9172 118.683C42.1534 118.551 42.4202 118.484 42.6908 118.487C42.9105 118.483 43.1283 118.529 43.3287 118.619L46.0669 119.888H46.1008C46.7554 119.685 47.4217 119.521 48.096 119.399L48.3912 117.846C48.4503 117.552 48.6087 117.287 48.8397 117.096C49.0708 116.906 49.3605 116.8 49.6602 116.797H53.6674C53.9669 116.801 54.2563 116.906 54.4872 117.097C54.7181 117.288 54.8767 117.552 54.9364 117.846L55.2316 119.399C55.8964 119.521 56.5535 119.682 57.1996 119.881H57.2505L59.9887 118.612C60.188 118.522 60.4046 118.477 60.6232 118.48C60.8949 118.476 61.1629 118.544 61.4002 118.677L64.1147 120.251C64.2779 120.339 64.4156 120.468 64.5147 120.625C64.6138 120.781 64.6708 120.961 64.6804 121.147C64.6899 121.332 64.6516 121.516 64.5692 121.683C64.4868 121.849 64.363 121.991 64.2097 122.096L62.5572 123.283C62.7072 123.482 62.8455 123.689 62.9712 123.904L66.4457 124.124C66.7611 124.145 67.0568 124.285 67.2729 124.515C67.489 124.746 67.6093 125.05 67.6095 125.366V127.401C67.6085 127.717 67.4879 128.02 67.272 128.251C67.056 128.481 66.7608 128.621 66.4457 128.643L62.9712 128.86C62.8463 129.076 62.708 129.285 62.5572 129.484L64.2097 130.671C64.363 130.776 64.4868 130.918 64.5692 131.084C64.6516 131.25 64.6899 131.435 64.6804 131.62C64.6708 131.806 64.6138 131.985 64.5147 132.142C64.4156 132.299 64.2779 132.428 64.1147 132.516L61.4002 134.09C61.1622 134.221 60.8947 134.289 60.6232 134.287C60.4047 134.288 60.1885 134.243 59.9887 134.155L57.2505 132.886H57.2165C56.5632 133.09 55.8981 133.254 55.2248 133.378L54.9296 134.928C54.8706 135.222 54.7123 135.487 54.4813 135.679C54.2503 135.87 53.9606 135.976 53.6606 135.98L49.6602 135.966ZM51.6655 124.542C50.2163 124.507 48.7827 124.846 47.5022 125.525C46.5691 126.065 46.033 126.753 46.033 127.421C46.033 128.09 46.5691 128.778 47.5022 129.318C48.7952 129.964 50.2213 130.301 51.6672 130.301C53.1131 130.301 54.5391 129.964 55.8322 129.318C56.7653 128.778 57.298 128.09 57.298 127.421C57.298 126.753 56.7653 126.065 55.8322 125.525C54.5502 124.847 53.1157 124.508 51.6655 124.542Z" fill="#E0E0E0"/>
<path d="M39.0051 106.107L49.4082 100.096C50.4805 99.4757 51.0166 98.665 51.0166 97.8543C51.0166 97.0436 51.0166 96.4059 51.0166 96.4059L41.2241 90.853C40.9231 90.6559 40.6726 90.3908 40.4928 90.0791C40.3131 89.7674 40.2091 89.4178 40.1893 89.0586V76.2365L22.0261 86.735V99.5571C22.0435 99.9145 22.1447 100.263 22.3215 100.574C22.4983 100.885 22.7458 101.15 23.044 101.348L31.2214 106.097C33.3827 107.345 36.8606 107.345 39.0051 106.107Z" fill="#37474F"/>
<path d="M26.3862 101.826V103.268L23.0576 101.348C22.7565 101.151 22.506 100.886 22.3263 100.574C22.1465 100.262 22.0425 99.9129 22.0227 99.5536V86.7349L25.4836 84.7369C25.5583 85.6155 25.6329 86.5246 25.7076 87.4099L23.2781 88.8142V98.8311C23.2945 99.1892 23.3952 99.5384 23.5721 99.8502C23.749 100.162 23.997 100.428 24.2961 100.626L26.3862 101.826Z" fill="#263238"/>
<path d="M23.2781 98.8345C23.296 99.1923 23.3974 99.5409 23.5741 99.8525C23.7509 100.164 23.9981 100.43 24.296 100.629L31.2179 104.662C33.3657 105.9 36.8436 105.9 38.988 104.662L49.3946 98.6514C51.5424 97.4133 51.5424 95.4051 49.3946 94.167L42.4659 90.1304C42.1641 89.9341 41.913 89.6691 41.7332 89.3573C41.5533 89.0454 41.4498 88.6955 41.431 88.336V78.3225L23.2781 88.8143V98.8345Z" fill="#455A64"/>
<path opacity="0.15" d="M44.5934 91.3482L42.4863 90.1304C42.1845 89.9341 41.9334 89.6691 41.7535 89.3573C41.5737 89.0454 41.4701 88.6955 41.4514 88.336V78.3225L23.2781 88.8143V98.8345C23.296 99.1923 23.3974 99.5409 23.5741 99.8524C23.7509 100.164 23.9981 100.43 24.296 100.629L26.3692 101.823L44.5934 91.3482Z" fill="#103E13"/>
<path d="M1.63013 106.742C2.023 106.931 2.45503 107.026 2.89124 107.018C3.32745 107.009 3.75559 106.899 4.141 106.694C13.075 101.538 54.993 77.3423 63.927 72.1897C64.3031 71.9433 64.616 71.612 64.8405 71.2225C65.0651 70.8331 65.195 70.3963 65.2197 69.9475V19.8971C65.2377 19.4538 65.134 19.014 64.9196 18.6255C64.7053 18.2371 64.3887 17.9147 64.004 17.6934C63.6194 17.4721 63.1815 17.3604 62.7378 17.3704C62.2941 17.3803 61.8617 17.5116 61.4874 17.7499L1.71156 52.2543C1.33799 52.5022 1.02771 52.8341 0.805567 53.2235C0.583429 53.6129 0.455616 54.0488 0.432373 54.4965V104.547C0.446853 104.981 0.56272 105.405 0.770704 105.786C0.978688 106.167 1.27301 106.495 1.63013 106.742Z" fill="#37474F"/>
<path d="M4.14117 106.694L63.9271 72.1863C64.3038 71.9405 64.6171 71.6093 64.8418 71.2197C65.0664 70.8302 65.1959 70.3931 65.2199 69.9441V19.897C65.2199 19.0694 64.6397 18.7369 63.9271 19.1508L4.14117 53.6552C3.76452 53.901 3.45116 54.2322 3.22654 54.6217C3.00192 55.0113 2.87237 55.4484 2.8484 55.8974V105.948C2.84501 106.772 3.42523 107.105 4.14117 106.694Z" fill="#455A64"/>
<path d="M4.55835 99.9098V56.4909C4.57338 56.2152 4.65308 55.9469 4.79101 55.7077C4.92894 55.4684 5.12122 55.265 5.35233 55.1138L62.7123 22.0069C63.15 21.7525 63.5062 21.9594 63.5062 22.4648V65.8837C63.4914 66.1603 63.4114 66.4295 63.2728 66.6694C63.1343 66.9093 62.9411 67.1131 62.7089 67.2643L5.35233 100.371C4.91462 100.622 4.55835 100.419 4.55835 99.9098Z" fill="#4CAF4F"/>
<path opacity="0.75" d="M4.55835 99.9098V56.4909C4.57338 56.2152 4.65308 55.9469 4.79101 55.7077C4.92894 55.4684 5.12122 55.265 5.35233 55.1138L62.7123 22.0069C63.15 21.7525 63.5062 21.9594 63.5062 22.4648V65.8837C63.4914 66.1603 63.4114 66.4295 63.2728 66.6694C63.1343 66.9093 62.9411 67.1131 62.7089 67.2643L5.35233 100.371C4.91462 100.622 4.55835 100.419 4.55835 99.9098Z" fill="white"/>
<path d="M0.798945 53.2211L3.22839 54.622C2.99671 55.01 2.86497 55.4494 2.84497 55.9008V105.948C2.84497 106.701 3.35732 107.122 4.14112 106.694C3.75648 106.901 3.32808 107.013 2.89143 107.021C2.45478 107.03 2.02244 106.934 1.63025 106.742C1.27495 106.53 0.977942 106.233 0.765912 105.877C0.553882 105.522 0.43348 105.12 0.415527 104.706V54.5033C0.432657 54.0503 0.564587 53.6091 0.798945 53.2211Z" fill="#263238"/>
<path d="M31.3908 87.5151L36.6738 84.4622C36.9385 84.313 37.1489 84.4181 37.1489 84.7031C37.137 84.8623 37.0878 85.0165 37.0053 85.1532C36.9228 85.2899 36.8092 85.4053 36.6738 85.49L31.3908 88.5429C31.1295 88.6956 30.9158 88.587 30.9158 88.3055C30.9271 88.1456 30.9761 87.9908 31.0586 87.8534C31.1412 87.7161 31.255 87.6002 31.3908 87.5151Z" fill="#4CAF4F"/>
<path d="M11.9452 80.3579C12.0235 80.3554 12.0997 80.3319 12.1658 80.29L70.2824 46.7082C70.5207 46.5515 70.7192 46.3415 70.8623 46.0948C71.0054 45.8481 71.0891 45.5715 71.1069 45.2869V1.38638C71.1069 1.0777 70.978 0.894531 70.7676 0.894531C70.6475 0.897821 70.5304 0.932939 70.4283 0.996294L12.3083 34.5645C12.07 34.722 11.8714 34.9326 11.7284 35.1799C11.5853 35.4271 11.5016 35.7041 11.4838 35.9892V79.6591C11.4806 79.8368 11.5302 80.0115 11.6263 80.1611C11.6589 80.2178 11.7052 80.2655 11.7608 80.2999C11.8165 80.3342 11.8799 80.3542 11.9452 80.3579Z" fill="#F5F7FA"/>
<path d="M10.5711 79.7879C10.6695 79.8388 11.3685 80.2356 11.6738 80.412C11.5616 80.3217 11.4723 80.206 11.4133 80.0746C11.3543 79.9431 11.3273 79.7995 11.3345 79.6556V38.9165L10.1843 38.238V79.0009C10.1742 79.1545 10.2046 79.308 10.2725 79.4461C10.3403 79.5842 10.4433 79.7021 10.5711 79.7879Z" fill="#F5F7FA"/>
<path d="M70.7609 1.04714C70.9305 1.04714 70.9543 1.25745 70.9543 1.38635V45.2835C70.9367 45.5416 70.8602 45.7922 70.7309 46.0162C70.6015 46.2402 70.4226 46.4317 70.2078 46.5759L12.0912 80.1577C12.0472 80.1848 11.9969 80.2 11.9453 80.2018C11.7858 80.2018 11.6467 79.9542 11.6467 79.6692V35.979C11.6625 35.7205 11.7382 35.4692 11.8677 35.2449C11.9973 35.0206 12.1772 34.8295 12.3932 34.6866L70.5098 1.12855C70.5849 1.07981 70.6715 1.05173 70.7609 1.04714ZM70.7609 0.745239C70.6188 0.749074 70.4805 0.791271 70.3605 0.867355L12.2405 34.422C11.9794 34.593 11.7623 34.8231 11.6067 35.0936C11.4511 35.3641 11.3613 35.6674 11.3447 35.979V79.6591C11.3447 80.1102 11.5958 80.4969 11.9453 80.4969C12.051 80.4949 12.1541 80.4644 12.2439 80.4087L70.3571 46.8269C70.6195 46.6576 70.8381 46.4285 70.995 46.1585C71.1519 45.8885 71.2426 45.5851 71.2596 45.2733V1.38635C71.2596 0.979294 71.0561 0.745239 70.7609 0.745239Z" fill="#E0E0E0"/>
<path d="M71.2566 1.36597V4.37476L11.3451 38.9742L10.1948 38.2958V35.3378C10.2076 35.0201 10.301 34.7107 10.4663 34.4389C10.617 34.1713 10.8329 33.9461 11.094 33.7843L69.2106 0.216048C69.3045 0.148452 69.4151 0.107689 69.5305 0.0981276C69.6458 0.0885667 69.7616 0.110569 69.8654 0.161775C70.0317 0.263538 70.8189 0.711294 70.9784 0.792704C71.0035 0.804557 71.0265 0.820619 71.0462 0.840195C71.0734 0.860261 71.0974 0.884271 71.1175 0.911429C71.1406 0.939347 71.1599 0.970131 71.1752 1.00302C71.196 1.03637 71.211 1.0731 71.2193 1.11156C71.2322 1.15129 71.2413 1.19219 71.2464 1.23368C71.2537 1.27739 71.2571 1.32166 71.2566 1.36597Z" fill="#4CAF4F"/>
<path opacity="0.15" d="M71.2566 1.36597V4.37476L11.3451 38.9742L10.1948 38.2958V35.3378C10.2076 35.0201 10.301 34.7107 10.4663 34.4389C10.617 34.1713 10.8329 33.9461 11.094 33.7843L69.2106 0.216048C69.3045 0.148452 69.4151 0.107689 69.5305 0.0981276C69.6458 0.0885667 69.7616 0.110569 69.8654 0.161775C70.0317 0.263538 70.8189 0.711294 70.9784 0.792704C71.0035 0.804557 71.0265 0.820619 71.0462 0.840195C71.0734 0.860261 71.0974 0.884271 71.1175 0.911429C71.1406 0.939347 71.1599 0.970131 71.1752 1.00302C71.196 1.03637 71.211 1.0731 71.2193 1.11156C71.2322 1.15129 71.2413 1.19219 71.2464 1.23368C71.2537 1.27739 71.2571 1.32166 71.2566 1.36597Z" fill="#103E13"/>
<path d="M71.2562 1.36607V4.37487L11.3447 38.9743V36.0028C11.3472 35.8113 11.384 35.6217 11.4533 35.4431C11.4634 35.4117 11.4759 35.3811 11.4906 35.3515C11.5258 35.2675 11.5666 35.1859 11.6128 35.1073C11.7626 34.8361 11.98 34.6083 12.2439 34.4458L70.3571 0.867436C70.454 0.794532 70.5709 0.752884 70.6921 0.748036C70.8134 0.743188 70.9332 0.775371 71.0357 0.840299C71.0629 0.860366 71.0869 0.884375 71.1069 0.911533C71.13 0.939451 71.1494 0.970235 71.1646 1.00312C71.1855 1.03647 71.2004 1.0732 71.2087 1.11167C71.2217 1.1514 71.2308 1.19229 71.2359 1.23378C71.2466 1.27719 71.2534 1.32146 71.2562 1.36607Z" fill="#4CAF4F"/>
<path d="M65.2403 4.97179C65.062 5.11343 64.9188 5.2942 64.8217 5.50008C64.7247 5.70597 64.6763 5.93144 64.6804 6.15902C64.6804 6.63731 64.9315 6.87815 65.2403 6.69837C65.4185 6.55673 65.5617 6.37596 65.6588 6.17007C65.7559 5.96419 65.8042 5.73871 65.8001 5.51113C65.7832 5.0532 65.5321 4.79201 65.2403 4.97179Z" fill="#F5F7FA"/>
<path d="M67.2423 3.80492C67.0637 3.94621 66.9202 4.12691 66.823 4.33288C66.7259 4.53885 66.6778 4.76449 66.6824 4.99215C66.6824 5.46705 66.9335 5.71128 67.2423 5.5315C67.4213 5.39038 67.5653 5.20979 67.663 5.00385C67.7607 4.7979 67.8095 4.57216 67.8055 4.34426C67.8055 3.86598 67.5544 3.62514 67.2423 3.80492Z" fill="#F5F7FA"/>
<path d="M69.2644 2.63466C69.0854 2.77578 68.9413 2.95636 68.8436 3.16231C68.7459 3.36825 68.6972 3.59399 68.7012 3.82189C68.7012 4.30018 68.9522 4.54102 69.2644 4.36463C69.4424 4.22282 69.5855 4.04202 69.6826 3.83617C69.7796 3.63032 69.8281 3.40494 69.8242 3.1774C69.8242 2.69911 69.5732 2.45827 69.2644 2.63466Z" fill="#F5F7FA"/>
<path d="M70.3604 0.867331L12.2438 34.422C11.9781 34.5906 11.7597 34.8241 11.6093 35.1004L10.4692 34.422C10.6167 34.1522 10.8318 33.9254 11.0936 33.7639L69.2101 0.216048C69.3041 0.148452 69.4147 0.107689 69.53 0.0981276C69.6454 0.0885667 69.7612 0.110569 69.865 0.161775C70.0245 0.260146 70.771 0.684157 70.961 0.78592C70.8617 0.750111 70.7553 0.738813 70.6507 0.752988C70.5461 0.767163 70.4465 0.80639 70.3604 0.867331Z" fill="#4CAF4F"/>
<g opacity="0.5">
<path opacity="0.5" d="M70.3604 0.867331L12.2438 34.422C11.9781 34.5906 11.7597 34.8241 11.6093 35.1004L10.4692 34.422C10.6167 34.1522 10.8318 33.9254 11.0936 33.7639L69.2101 0.216048C69.3041 0.148452 69.4147 0.107689 69.53 0.0981276C69.6454 0.0885667 69.7612 0.110569 69.865 0.161775C70.0245 0.260146 70.771 0.684157 70.961 0.78592C70.8617 0.750111 70.7553 0.738813 70.6507 0.752988C70.5461 0.767163 70.4465 0.80639 70.3604 0.867331Z" fill="white"/>
</g>
<path d="M25.8805 40.4125C25.8589 40.4125 25.8382 40.4039 25.8229 40.3886C25.8077 40.3734 25.7991 40.3527 25.7991 40.3311V36.9084C25.7991 36.8868 25.8077 36.8661 25.8229 36.8509C25.8382 36.8356 25.8589 36.827 25.8805 36.827C25.891 36.827 25.9015 36.8291 25.9112 36.8333C25.9209 36.8374 25.9296 36.8435 25.9369 36.8511C25.9442 36.8587 25.9499 36.8677 25.9536 36.8775C25.9573 36.8874 25.959 36.8979 25.9585 36.9084V40.3311C25.959 40.3416 25.9573 40.3521 25.9536 40.362C25.9499 40.3718 25.9442 40.3808 25.9369 40.3884C25.9296 40.396 25.9209 40.4021 25.9112 40.4062C25.9015 40.4104 25.891 40.4125 25.8805 40.4125Z" fill="#455A64"/>
<path d="M25.5923 40.0088L25.8671 40.2835L26.1386 40.0088V40.2428L25.8671 40.5142L25.5923 40.2428V40.0088Z" fill="#455A64"/>
<path d="M28.775 40.7856C28.7604 40.7865 28.7459 40.7832 28.7332 40.7759C28.7206 40.7687 28.7103 40.7579 28.7037 40.7449C28.6984 40.7358 28.6949 40.7258 28.6935 40.7153C28.6922 40.7049 28.6929 40.6943 28.6958 40.6841C28.6986 40.674 28.7035 40.6645 28.7101 40.6563C28.7167 40.6481 28.7249 40.6413 28.7343 40.6364L30.9873 39.3338C30.9966 39.3284 31.0069 39.3248 31.0176 39.3234C31.0283 39.322 31.0392 39.3228 31.0496 39.3256C31.0601 39.3285 31.0698 39.3333 31.0783 39.34C31.0868 39.3466 31.0939 39.3549 31.0992 39.3643C31.1091 39.3829 31.1115 39.4045 31.1058 39.4247C31.1001 39.445 31.0868 39.4622 31.0687 39.4729L28.8123 40.7754C28.8011 40.7824 28.7881 40.7859 28.775 40.7856Z" fill="#455A64"/>
<path d="M30.8855 39.8019L30.9873 39.4288L30.614 39.327L30.8142 39.2117L31.1874 39.31L31.089 39.6832L30.8855 39.8019Z" fill="#455A64"/>
<path d="M28.3575 58.7671C28.3429 58.768 28.3284 58.7646 28.3158 58.7574C28.3031 58.7502 28.2928 58.7394 28.2862 58.7264C28.2809 58.7173 28.2774 58.7073 28.276 58.6968C28.2747 58.6864 28.2755 58.6757 28.2783 58.6656C28.2812 58.6555 28.286 58.646 28.2926 58.6378C28.2993 58.6296 28.3075 58.6228 28.3168 58.6178L30.5698 57.3153C30.5888 57.3052 30.611 57.3027 30.6318 57.3084C30.6526 57.3141 30.6705 57.3275 30.6817 57.3458C30.6911 57.365 30.6931 57.3869 30.6875 57.4075C30.6819 57.4281 30.669 57.4459 30.6512 57.4578L28.3948 58.7569C28.3836 58.7639 28.3707 58.7674 28.3575 58.7671Z" fill="#455A64"/>
<path d="M30.468 57.7835L30.5698 57.4103L30.1965 57.312L30.3967 57.1932L30.77 57.295L30.6716 57.6681L30.468 57.7835Z" fill="#455A64"/>
<path d="M36.5382 54.0453C36.5242 54.0455 36.5104 54.0419 36.4984 54.0347C36.4864 54.0275 36.4767 54.0171 36.4703 54.0046C36.4644 53.9957 36.4605 53.9856 36.4589 53.975C36.4573 53.9644 36.4579 53.9536 36.4608 53.9433C36.4637 53.9331 36.4688 53.9235 36.4757 53.9153C36.4826 53.9072 36.4912 53.9006 36.5008 53.896L38.7538 52.5935C38.7628 52.5876 38.7729 52.5837 38.7834 52.5821C38.794 52.5804 38.8048 52.5811 38.8151 52.584C38.8254 52.5869 38.835 52.5919 38.8431 52.5988C38.8513 52.6057 38.8579 52.6143 38.8624 52.624C38.8679 52.6329 38.8716 52.6427 38.8732 52.6531C38.8748 52.6634 38.8743 52.6739 38.8718 52.684C38.8693 52.6941 38.8647 52.7036 38.8585 52.712C38.8522 52.7203 38.8443 52.7273 38.8353 52.7325L36.5789 54.0351C36.5664 54.042 36.5524 54.0455 36.5382 54.0453Z" fill="#455A64"/>
<path d="M38.6521 53.0615L38.7539 52.6884L38.3806 52.5866L38.5808 52.4713L38.954 52.5697L38.8522 52.9428L38.6521 53.0615Z" fill="#455A64"/>
<path d="M37.0778 35.9994C37.0639 35.9997 37.0501 35.996 37.0381 35.9888C37.0261 35.9816 37.0163 35.9712 37.01 35.9587C37.0045 35.9498 37.0008 35.94 36.9992 35.9296C36.9976 35.9193 36.9981 35.9088 37.0006 35.8987C37.0032 35.8886 37.0077 35.8791 37.014 35.8707C37.0202 35.8624 37.0281 35.8554 37.0371 35.8501L39.2935 34.5476C39.3026 34.5422 39.3127 34.5388 39.3231 34.5374C39.3336 34.536 39.3442 34.5368 39.3543 34.5397C39.3645 34.5425 39.3739 34.5474 39.3822 34.554C39.3904 34.5606 39.3971 34.5688 39.4021 34.5781C39.4076 34.587 39.4113 34.5969 39.4129 34.6072C39.4145 34.6175 39.414 34.628 39.4115 34.6381C39.4089 34.6482 39.4044 34.6577 39.3981 34.6661C39.3919 34.6744 39.384 34.6814 39.375 34.6867L37.1186 35.9892C37.106 35.9957 37.092 35.9992 37.0778 35.9994Z" fill="#455A64"/>
<path d="M39.1782 35.0156L39.28 34.6425L38.9067 34.5407L39.1069 34.4254L39.4802 34.5238L39.3784 34.9003L39.1782 35.0156Z" fill="#455A64"/>
<path d="M36.9182 45.0427C36.9041 45.0432 36.8902 45.04 36.8777 45.0335C36.8652 45.0269 36.8546 45.0172 36.847 45.0054C36.8416 44.9961 36.838 44.9857 36.8366 44.975C36.8352 44.9643 36.836 44.9535 36.8388 44.943C36.8416 44.9326 36.8465 44.9229 36.8532 44.9144C36.8598 44.9058 36.8681 44.8987 36.8775 44.8935L39.1305 43.5909C39.1494 43.5801 39.1718 43.5772 39.1928 43.583C39.2138 43.5887 39.2317 43.6025 39.2425 43.6214C39.2533 43.6403 39.2561 43.6627 39.2504 43.6837C39.2447 43.7047 39.2309 43.7226 39.212 43.7334L36.9556 45.0325C36.9444 45.0395 36.9314 45.043 36.9182 45.0427Z" fill="#455A64"/>
<path d="M37.0574 44.5677L36.959 44.9409L37.3322 45.0393L37.132 45.1546L36.7588 45.0562L36.8572 44.6831L37.0574 44.5677Z" fill="#455A64"/>
<path d="M36.7725 61.8607C36.7585 61.8609 36.7447 61.8573 36.7327 61.8501C36.7207 61.8429 36.711 61.8324 36.7046 61.82C36.6968 61.8106 36.6914 61.7995 36.6889 61.7876C36.6864 61.7757 36.6868 61.7633 36.6901 61.7516C36.6935 61.7399 36.6996 61.7292 36.7081 61.7204C36.7165 61.7116 36.727 61.7051 36.7385 61.7012L38.8423 60.4835C38.8608 60.4736 38.8824 60.4712 38.9027 60.4769C38.9229 60.4826 38.9402 60.4959 38.9508 60.514C38.9563 60.5229 38.96 60.5328 38.9616 60.5431C38.9632 60.5534 38.9627 60.5639 38.9602 60.574C38.9577 60.5841 38.9531 60.5937 38.9469 60.602C38.9406 60.6103 38.9327 60.6173 38.9237 60.6226L36.8166 61.8403C36.804 61.851 36.7887 61.858 36.7725 61.8607Z" fill="#455A64"/>
<path d="M36.9148 61.3824L36.813 61.7556L37.1862 61.8573L36.986 61.9727L36.6128 61.8709L36.7146 61.4978L36.9148 61.3824Z" fill="#455A64"/>
<path d="M28.8122 49.7203C28.7982 49.7206 28.7845 49.7169 28.7725 49.7097C28.7605 49.7025 28.7507 49.6921 28.7444 49.6796C28.7389 49.6708 28.7352 49.6609 28.7336 49.6506C28.732 49.6403 28.7325 49.6297 28.735 49.6196C28.7375 49.6095 28.7421 49.6 28.7483 49.5917C28.7546 49.5833 28.7625 49.5763 28.7715 49.5711L31.0279 48.2685C31.0464 48.2586 31.0681 48.2563 31.0883 48.262C31.1086 48.2676 31.1258 48.2809 31.1365 48.2991C31.1419 48.3084 31.1454 48.3187 31.1468 48.3294C31.1482 48.3401 31.1475 48.351 31.1447 48.3614C31.1418 48.3718 31.1369 48.3816 31.1303 48.3901C31.1236 48.3986 31.1154 48.4057 31.1059 48.411L28.8529 49.7102L28.8122 49.7203Z" fill="#455A64"/>
<path d="M28.9548 49.2455L28.853 49.6186L29.2263 49.717L29.0261 49.8323L28.6528 49.7339L28.7546 49.3608L28.9548 49.2455Z" fill="#455A64"/>
<path d="M41.6381 39.0556C41.6165 39.0556 41.5958 39.0471 41.5805 39.0318C41.5652 39.0165 41.5566 38.9958 41.5566 38.9742V36.3657C41.5566 36.3441 41.5652 36.3234 41.5805 36.3081C41.5958 36.2929 41.6165 36.2843 41.6381 36.2843C41.6597 36.2843 41.6804 36.2929 41.6957 36.3081C41.7109 36.3234 41.7195 36.3441 41.7195 36.3657V38.9742C41.7195 38.9958 41.7109 39.0165 41.6957 39.0318C41.6804 39.0471 41.6597 39.0556 41.6381 39.0556Z" fill="#455A64"/>
<path d="M41.3667 38.6554L41.6381 38.9268L41.913 38.6554V38.8861L41.6381 39.1574L41.3667 38.8861V38.6554Z" fill="#455A64"/>
<path d="M25.8805 55.7244C25.8672 55.7284 25.8531 55.7284 25.8398 55.7244C25.8273 55.7181 25.8169 55.7083 25.8097 55.6963C25.8025 55.6843 25.7988 55.6706 25.7991 55.6566V53.7366C25.7991 53.715 25.8077 53.6943 25.8229 53.6791C25.8382 53.6638 25.8589 53.6552 25.8805 53.6552C25.8911 53.6552 25.9015 53.6573 25.9112 53.6615C25.9209 53.6656 25.9296 53.6717 25.9369 53.6793C25.9442 53.6869 25.9499 53.6959 25.9536 53.7057C25.9573 53.7156 25.959 53.7261 25.9586 53.7366V55.5141L41.5667 46.5047V45.3107C41.5667 45.2891 41.5753 45.2684 41.5906 45.2531C41.6058 45.2378 41.6265 45.2292 41.6481 45.2292C41.6697 45.2292 41.6905 45.2378 41.7057 45.2531C41.721 45.2684 41.7296 45.2891 41.7296 45.3107V46.5522C41.7291 46.566 41.7251 46.5795 41.718 46.5914C41.7109 46.6032 41.7009 46.6131 41.6889 46.62L25.9144 55.7244C25.9033 55.7273 25.8916 55.7273 25.8805 55.7244Z" fill="#455A64"/>
<path d="M26.1386 54.0453L25.8671 53.774L25.5923 54.0453V53.8147L25.8671 53.5399L26.1386 53.8147V54.0453Z" fill="#455A64"/>
<path d="M25.8807 64.6287C25.8674 64.6327 25.8532 64.6327 25.8399 64.6287C25.8269 64.6221 25.8161 64.6118 25.8089 64.5992C25.8017 64.5865 25.7983 64.572 25.7992 64.5575V63.3193C25.7992 63.2978 25.8078 63.277 25.8231 63.2618C25.8383 63.2465 25.8591 63.2379 25.8807 63.2379C25.8912 63.2379 25.9016 63.2401 25.9113 63.2442C25.921 63.2483 25.9298 63.2544 25.9371 63.262C25.9444 63.2696 25.95 63.2786 25.9538 63.2884C25.9575 63.2983 25.9592 63.3088 25.9587 63.3193V64.415L41.5668 55.4056V53.5264C41.5668 53.5048 41.5754 53.4841 41.5907 53.4688C41.606 53.4535 41.6267 53.4449 41.6483 53.4449C41.6699 53.4449 41.6906 53.4535 41.7059 53.4688C41.7211 53.4841 41.7297 53.5048 41.7297 53.5264V55.4463C41.7292 55.4601 41.7253 55.4736 41.7181 55.4855C41.711 55.4974 41.701 55.5072 41.689 55.5141L25.9044 64.6185C25.8972 64.6234 25.8891 64.6269 25.8807 64.6287Z" fill="#455A64"/>
<path d="M41.913 53.8452L41.6381 53.5738L41.3667 53.8452V53.6145L41.6381 53.3431L41.913 53.6145V53.8452Z" fill="#455A64"/>
<path d="M22.2567 62.2881C22.2433 62.2912 22.2294 62.2912 22.216 62.2881C22.2035 62.2809 22.1932 62.2705 22.186 62.258C22.1789 62.2455 22.1752 62.2313 22.1753 62.2169V53.4246C22.1758 53.4107 22.1797 53.3972 22.1869 53.3854C22.194 53.3735 22.204 53.3636 22.216 53.3567L23.0711 52.8615C23.087 52.8542 23.1048 52.8523 23.1219 52.8559C23.1391 52.8596 23.1545 52.8687 23.1661 52.8818C23.1715 52.8912 23.175 52.9015 23.1764 52.9122C23.1778 52.9229 23.1771 52.9338 23.1743 52.9442C23.1714 52.9546 23.1665 52.9644 23.1599 52.9729C23.1532 52.9814 23.145 52.9885 23.1355 52.9938L22.3246 53.4619V62.0575L23.2204 61.5419C23.2295 61.5339 23.2403 61.5281 23.2519 61.5249C23.2636 61.5217 23.2758 61.5211 23.2877 61.5231C23.2996 61.5252 23.3109 61.5299 23.3208 61.5369C23.3306 61.5439 23.3388 61.553 23.3448 61.5635C23.3507 61.5741 23.3542 61.5858 23.355 61.5978C23.3558 61.6099 23.3539 61.622 23.3495 61.6332C23.345 61.6445 23.3382 61.6546 23.3293 61.6628C23.3205 61.6711 23.3099 61.6773 23.2984 61.6809L22.2805 62.2678C22.2738 62.2759 22.2658 62.2827 22.2567 62.2881Z" fill="#455A64"/>
<path d="M23.1323 62.0202L23.2307 61.647L22.8574 61.5453L23.061 61.4299L23.4309 61.5317L23.3325 61.9014L23.1323 62.0202Z" fill="#455A64"/>
<path d="M44.6951 57.2916C44.6811 57.2919 44.6673 57.2882 44.6554 57.281C44.6434 57.2738 44.6336 57.2634 44.6273 57.2509C44.6218 57.2416 44.6183 57.2312 44.6169 57.2205C44.6155 57.2098 44.6162 57.1989 44.6191 57.1885C44.6219 57.1781 44.6268 57.1684 44.6335 57.1599C44.6401 57.1513 44.6484 57.1442 44.6578 57.139L45.5061 56.6505V48.8826L44.7732 49.3032C44.7643 49.3087 44.7544 49.3124 44.7441 49.314C44.7338 49.3156 44.7233 49.3151 44.7131 49.3126C44.703 49.31 44.6935 49.3055 44.6852 49.2992C44.6768 49.293 44.6698 49.2851 44.6646 49.2761C44.659 49.2669 44.6553 49.2568 44.6536 49.2462C44.652 49.2357 44.6524 49.2249 44.655 49.2145C44.6575 49.2041 44.662 49.1943 44.6683 49.1856C44.6746 49.177 44.6826 49.1697 44.6917 49.1641L45.5468 48.6723C45.5593 48.6654 45.5733 48.6619 45.5875 48.6619C45.6017 48.6619 45.6157 48.6654 45.6282 48.6723C45.6401 48.6799 45.6497 48.6905 45.6563 48.703C45.6628 48.7154 45.666 48.7294 45.6655 48.7435V56.6946C45.6658 56.7082 45.6624 56.7216 45.6559 56.7335C45.6493 56.7454 45.6398 56.7553 45.6282 56.7624L44.7358 57.2916C44.7225 57.295 44.7085 57.295 44.6951 57.2916Z" fill="#455A64"/>
<path d="M44.8376 56.8099L44.7392 57.1831L45.1125 57.2814L44.9089 57.4002L44.5356 57.2984L44.6374 56.9253L44.8376 56.8099Z" fill="#455A64"/>
<path d="M28.3 33.3806C28.3 34.2931 27.2108 35.6601 25.8671 36.4335C24.5235 37.2069 23.4309 37.1119 23.4309 36.1859C23.4309 35.2598 24.5201 33.9064 25.8671 33.133C27.2142 32.3596 28.3 32.4681 28.3 33.3806Z" fill="#4CAF4F"/>
<path d="M34.725 64.5066C35.9795 63.4568 36.6074 62.1412 36.1275 61.568C35.6476 60.9948 34.2415 61.3811 32.987 62.4308C31.7325 63.4806 31.1046 64.7962 31.5845 65.3694C32.0645 65.9426 33.4705 65.5563 34.725 64.5066Z" fill="#4CAF4F"/>
<path d="M28.0827 42.5665L23.6479 45.1241C23.5156 45.1988 23.4104 45.1241 23.4104 44.941V42.6581C23.4114 42.5685 23.4335 42.4804 23.4747 42.4009C23.516 42.3214 23.5753 42.2526 23.6479 42.2001L28.0827 39.6527C28.215 39.5781 28.3202 39.6527 28.3202 39.8359V42.1153C28.3178 42.2037 28.2952 42.2904 28.254 42.3686C28.2128 42.4468 28.1542 42.5145 28.0827 42.5665Z" fill="#4CAF4F"/>
<path opacity="0.6" d="M28.0827 42.5665L23.6479 45.1241C23.5156 45.1988 23.4104 45.1241 23.4104 44.941V42.6581C23.4114 42.5685 23.4335 42.4804 23.4747 42.4009C23.516 42.3214 23.5753 42.2526 23.6479 42.2001L28.0827 39.6527C28.215 39.5781 28.3202 39.6527 28.3202 39.8359V42.1153C28.3178 42.2037 28.2952 42.2904 28.254 42.3686C28.2128 42.4468 28.1542 42.5145 28.0827 42.5665Z" fill="white"/>
<path d="M36.0599 37.9566L31.6489 40.5108C31.5165 40.5889 31.408 40.5108 31.408 40.3311V38.0482C31.4094 37.9583 31.4319 37.87 31.4738 37.7905C31.5156 37.711 31.5756 37.6424 31.6489 37.5902L36.0599 35.0326C36.1922 34.9546 36.3008 35.0326 36.3008 35.2124V37.4953C36.2999 37.5857 36.2776 37.6747 36.2357 37.7548C36.1938 37.835 36.1336 37.9042 36.0599 37.9566Z" fill="#4CAF4F"/>
<path opacity="0.6" d="M36.0599 37.9566L31.6489 40.5108C31.5165 40.5889 31.408 40.5108 31.408 40.3311V38.0482C31.4094 37.9583 31.4319 37.87 31.4738 37.7905C31.5156 37.711 31.5756 37.6424 31.6489 37.5902L36.0599 35.0326C36.1922 34.9546 36.3008 35.0326 36.3008 35.2124V37.4953C36.2999 37.5857 36.2776 37.6747 36.2357 37.7548C36.1938 37.835 36.1336 37.9042 36.0599 37.9566Z" fill="white"/>
<path d="M36.0599 46.9117L31.6489 49.4693C31.5165 49.5474 31.408 49.4693 31.408 49.2896V47.0067C31.4097 46.9169 31.4323 46.8287 31.4742 46.7492C31.516 46.6697 31.5758 46.601 31.6489 46.5487L36.0599 43.9911C36.1922 43.9131 36.3008 43.9911 36.3008 44.1709V46.4538C36.2993 46.5436 36.2768 46.6319 36.2349 46.7114C36.1931 46.791 36.1331 46.8596 36.0599 46.9117Z" fill="#4CAF4F"/>
<path opacity="0.6" d="M36.0599 46.9117L31.6489 49.4693C31.5165 49.5474 31.408 49.4693 31.408 49.2896V47.0067C31.4097 46.9169 31.4323 46.8287 31.4742 46.7492C31.516 46.6697 31.5758 46.601 31.6489 46.5487L36.0599 43.9911C36.1922 43.9131 36.3008 43.9911 36.3008 44.1709V46.4538C36.2993 46.5436 36.2768 46.6319 36.2349 46.7114C36.1931 46.791 36.1331 46.8596 36.0599 46.9117Z" fill="white"/>
<path d="M36.0599 55.6973L31.6489 58.2549C31.5165 58.3295 31.408 58.2549 31.408 58.0718V55.7889C31.4097 55.6991 31.4323 55.6109 31.4742 55.5314C31.516 55.4519 31.5758 55.3832 31.6489 55.3309L36.0599 52.7733C36.1922 52.6987 36.3008 52.7733 36.3008 52.9565V55.236C36.2993 55.3263 36.2768 55.415 36.235 55.4951C36.1932 55.5752 36.1332 55.6445 36.0599 55.6973Z" fill="#4CAF4F"/>
<path opacity="0.6" d="M36.0599 55.6973L31.6489 58.2549C31.5165 58.3295 31.408 58.2549 31.408 58.0718V55.7889C31.4097 55.6991 31.4323 55.6109 31.4742 55.5314C31.516 55.4519 31.5758 55.3832 31.6489 55.3309L36.0599 52.7733C36.1922 52.6987 36.3008 52.7733 36.3008 52.9565V55.236C36.2993 55.3263 36.2768 55.415 36.235 55.4951C36.1932 55.5752 36.1332 55.6445 36.0599 55.6973Z" fill="white"/>
<path d="M43.8639 51.2027L39.4326 53.7604C39.3002 53.8384 39.1917 53.7604 39.1917 53.5806V51.2977C39.1934 51.2079 39.216 51.1197 39.2578 51.0402C39.2997 50.9607 39.3595 50.8921 39.4326 50.8398L43.8639 48.2821C43.9962 48.2041 44.1048 48.2821 44.1048 48.4619V50.7448C44.1034 50.8347 44.0808 50.9229 44.039 51.0025C43.9971 51.082 43.9372 51.1506 43.8639 51.2027Z" fill="#4CAF4F"/>
<path opacity="0.6" d="M43.8639 51.2027L39.4326 53.7604C39.3002 53.8384 39.1917 53.7604 39.1917 53.5806V51.2977C39.1934 51.2079 39.216 51.1197 39.2578 51.0402C39.2997 50.9607 39.3595 50.8921 39.4326 50.8398L43.8639 48.2821C43.9962 48.2041 44.1048 48.2821 44.1048 48.4619V50.7448C44.1034 50.8347 44.0808 50.9229 44.039 51.0025C43.9971 51.082 43.9372 51.1506 43.8639 51.2027Z" fill="white"/>
<path d="M43.8638 59.1539L39.4223 61.7014C39.29 61.7794 39.1814 61.7014 39.1814 61.5216V59.2387C39.1828 59.1488 39.2054 59.0606 39.2472 58.981C39.2891 58.9015 39.3491 58.8329 39.4223 58.7808L43.8638 56.2333C43.9962 56.1553 44.1047 56.2333 44.1047 56.4131V58.696C44.103 58.7858 44.0804 58.8739 44.0385 58.9534C43.9967 59.033 43.9369 59.1016 43.8638 59.1539Z" fill="#4CAF4F"/>
<path opacity="0.6" d="M43.8638 59.1539L39.4223 61.7014C39.29 61.7794 39.1814 61.7014 39.1814 61.5216V59.2387C39.1828 59.1488 39.2054 59.0606 39.2472 58.981C39.2891 58.9015 39.3491 58.8329 39.4223 58.7808L43.8638 56.2333C43.9962 56.1553 44.1047 56.2333 44.1047 56.4131V58.696C44.103 58.7858 44.0804 58.8739 44.0385 58.9534C43.9967 59.033 43.9369 59.1016 43.8638 59.1539Z" fill="white"/>
<path d="M28.0827 51.5249L23.6479 54.0826C23.5156 54.1606 23.4104 54.0826 23.4104 53.8994V51.6199C23.4115 51.5298 23.4335 51.4413 23.4747 51.3612C23.5159 51.2811 23.5752 51.2118 23.6479 51.1586L28.0827 48.6009C28.215 48.5263 28.3202 48.6009 28.3202 48.7841V51.067C28.3191 51.1566 28.2971 51.2446 28.2559 51.3242C28.2146 51.4037 28.1553 51.4724 28.0827 51.5249Z" fill="#4CAF4F"/>
<path opacity="0.6" d="M28.0827 51.5249L23.6479 54.0826C23.5156 54.1606 23.4104 54.0826 23.4104 53.8994V51.6199C23.4115 51.5298 23.4335 51.4413 23.4747 51.3612C23.5159 51.2811 23.5752 51.2118 23.6479 51.1586L28.0827 48.6009C28.215 48.5263 28.3202 48.6009 28.3202 48.7841V51.067C28.3191 51.1566 28.2971 51.2446 28.2559 51.3242C28.2146 51.4037 28.1553 51.4724 28.0827 51.5249Z" fill="white"/>
<path d="M41.414 35.6736L39.541 33.0583C39.482 32.9133 39.472 32.7531 39.5124 32.6019C39.5528 32.4506 39.6415 32.3167 39.7649 32.2205L43.4973 30.0597C43.7348 29.9206 43.8672 30.2632 43.7213 30.6364L41.8483 35.4158C41.7499 35.7076 41.5293 35.8331 41.414 35.6736Z" fill="#455A64"/>
<path d="M43.545 41.4878L41.8078 44.483C41.706 44.656 41.5703 44.7374 41.4685 44.6798L39.7312 43.6893C39.5785 43.6011 39.5785 43.2517 39.7312 42.9871L41.4685 39.9953C41.5703 39.8223 41.706 39.7409 41.8078 39.7985L43.545 40.789C43.6977 40.8738 43.6977 41.2266 43.545 41.4878Z" fill="#C8E6C9"/>
<path d="M27.7706 59.3743L26.0368 62.3797C25.935 62.5527 25.7959 62.6342 25.6975 62.5765L23.9602 61.586C23.8075 61.5012 23.8075 61.1484 23.9602 60.8838L25.6975 57.892C25.7959 57.719 25.935 57.6376 26.0368 57.6953L27.7706 58.6858C27.9165 58.7604 27.9165 59.1132 27.7706 59.3743Z" fill="#C8E6C9"/>
<path d="M19.2947 48.8112C19.2808 48.8111 19.267 48.8077 19.2546 48.8012C19.2422 48.7947 19.2316 48.7854 19.2235 48.7739C19.2134 48.7549 19.2109 48.7327 19.2166 48.7119C19.2223 48.6911 19.2357 48.6733 19.254 48.662L24.4862 45.643C24.4953 45.6375 24.5054 45.6337 24.516 45.6321C24.5266 45.6304 24.5374 45.6309 24.5478 45.6334C24.5582 45.6359 24.568 45.6405 24.5766 45.6468C24.5852 45.6531 24.5926 45.661 24.5981 45.6702C24.6082 45.6892 24.6107 45.7114 24.605 45.7322C24.5993 45.753 24.5859 45.7708 24.5676 45.7821L19.3355 48.8112C19.3221 48.8143 19.3081 48.8143 19.2947 48.8112Z" fill="#455A64"/>
<path d="M19.2947 49.5847C19.2804 49.5845 19.2663 49.5806 19.2539 49.5735C19.2414 49.5664 19.2309 49.5562 19.2235 49.544C19.2136 49.5254 19.2112 49.5038 19.2169 49.4836C19.2226 49.4633 19.2359 49.4461 19.254 49.4354L24.4861 46.4131C24.5052 46.403 24.5274 46.4005 24.5482 46.4062C24.569 46.4119 24.5868 46.4252 24.5981 46.4436C24.608 46.4621 24.6104 46.4838 24.6047 46.504C24.599 46.5242 24.5857 46.5415 24.5676 46.5521L19.3355 49.5745C19.3228 49.581 19.3089 49.5845 19.2947 49.5847Z" fill="#E0E0E0"/>
<path d="M19.2947 50.3445C19.2805 50.3437 19.2667 50.3397 19.2543 50.3326C19.2419 50.3255 19.2314 50.3157 19.2235 50.3038C19.2134 50.2848 19.2109 50.2626 19.2166 50.2418C19.2223 50.221 19.2357 50.2032 19.254 50.1919L24.4862 47.1729C24.4955 47.1675 24.5058 47.164 24.5165 47.1626C24.5272 47.1612 24.5381 47.1619 24.5485 47.1647C24.559 47.1676 24.5687 47.1725 24.5772 47.1791C24.5857 47.1857 24.5928 47.194 24.5981 47.2034C24.608 47.222 24.6104 47.2436 24.6047 47.2639C24.599 47.2841 24.5857 47.3013 24.5676 47.312L19.3355 50.3343L19.2947 50.3445Z" fill="#E0E0E0"/>
<path d="M19.2947 51.101C19.2808 51.1009 19.267 51.0975 19.2546 51.091C19.2422 51.0845 19.2316 51.0752 19.2235 51.0637C19.2134 51.0447 19.2109 51.0225 19.2166 51.0017C19.2223 50.9809 19.2357 50.9631 19.254 50.9518L24.4862 47.9328C24.4953 47.9272 24.5054 47.9235 24.516 47.9219C24.5266 47.9202 24.5374 47.9207 24.5478 47.9232C24.5582 47.9257 24.568 47.9303 24.5766 47.9366C24.5852 47.9429 24.5926 47.9508 24.5981 47.96C24.6082 47.979 24.6107 48.0012 24.605 48.022C24.5993 48.0428 24.5859 48.0606 24.5676 48.0719L19.3355 51.0909C19.3229 51.0974 19.3089 51.1008 19.2947 51.101Z" fill="#E0E0E0"/>
<path d="M16.9941 39.9478C16.9801 39.948 16.9663 39.9444 16.9543 39.9372C16.9423 39.93 16.9326 39.9195 16.9262 39.9071C16.9207 39.8979 16.9169 39.8878 16.9153 39.8772C16.9136 39.8667 16.9141 39.8559 16.9166 39.8455C16.9191 39.8351 16.9237 39.8253 16.93 39.8166C16.9363 39.808 16.9442 39.8007 16.9534 39.7951L22.1889 36.7762C22.2067 36.7705 22.226 36.7711 22.2435 36.778C22.2609 36.7849 22.2754 36.7976 22.2846 36.8139C22.2938 36.8303 22.297 36.8493 22.2938 36.8677C22.2906 36.8862 22.2811 36.903 22.2669 36.9152L17.0348 39.9376C17.0222 39.9441 17.0083 39.9476 16.9941 39.9478Z" fill="#455A64"/>
<path d="M16.9941 40.7042C16.9805 40.7044 16.9671 40.7011 16.9552 40.6946C16.9433 40.688 16.9333 40.6785 16.9262 40.6669C16.9207 40.6578 16.9169 40.6476 16.9153 40.6371C16.9136 40.6265 16.9141 40.6157 16.9166 40.6053C16.9191 40.5949 16.9237 40.5851 16.93 40.5765C16.9363 40.5678 16.9442 40.5605 16.9534 40.555L22.1889 37.536C22.1978 37.5305 22.2076 37.5268 22.218 37.5252C22.2283 37.5236 22.2388 37.5241 22.2489 37.5266C22.259 37.5292 22.2685 37.5337 22.2769 37.54C22.2852 37.5462 22.2922 37.5541 22.2975 37.5631C22.3029 37.5725 22.3064 37.5828 22.3078 37.5935C22.3092 37.6042 22.3085 37.6151 22.3056 37.6255C22.3028 37.6359 22.2979 37.6457 22.2913 37.6542C22.2846 37.6627 22.2763 37.6698 22.2669 37.6751L17.0348 40.694C17.0222 40.7005 17.0083 40.704 16.9941 40.7042Z" fill="#E0E0E0"/>
<path d="M16.9941 41.464C16.9801 41.4642 16.9663 41.4605 16.9543 41.4533C16.9423 41.4461 16.9326 41.4357 16.9262 41.4233C16.9208 41.4144 16.9171 41.4045 16.9155 41.3942C16.9139 41.3839 16.9143 41.3734 16.9169 41.3632C16.9194 41.3531 16.9239 41.3436 16.9302 41.3353C16.9365 41.3269 16.9444 41.3199 16.9534 41.3147L22.1889 38.2957C22.2074 38.2858 22.2291 38.2835 22.2493 38.2892C22.2696 38.2949 22.2868 38.3082 22.2975 38.3263C22.3028 38.3353 22.3063 38.3454 22.3077 38.3559C22.309 38.3663 22.3083 38.3769 22.3054 38.3871C22.3026 38.3972 22.2977 38.4067 22.2911 38.4149C22.2845 38.4231 22.2763 38.4299 22.2669 38.4348L17.0348 41.4572C17.0219 41.4625 17.008 41.4648 16.9941 41.464Z" fill="#E0E0E0"/>
<path d="M16.9941 42.2238C16.976 42.2241 16.9582 42.2183 16.9437 42.2074C16.9292 42.1964 16.9188 42.181 16.9141 42.1634C16.9094 42.1459 16.9108 42.1272 16.9179 42.1105C16.925 42.0938 16.9375 42.08 16.9534 42.0712L22.1889 39.0522C22.198 39.0469 22.2081 39.0434 22.2185 39.042C22.229 39.0407 22.2396 39.0414 22.2497 39.0443C22.2599 39.0472 22.2693 39.052 22.2776 39.0586C22.2858 39.0652 22.2925 39.0735 22.2975 39.0828C22.3029 39.0918 22.3063 39.1019 22.3077 39.1123C22.309 39.1228 22.3083 39.1334 22.3054 39.1435C22.3026 39.1537 22.2977 39.1632 22.2911 39.1714C22.2845 39.1796 22.2763 39.1863 22.267 39.1913L17.0348 42.2136L16.9941 42.2238Z" fill="#E0E0E0"/>
<path d="M31.2383 41.8405C31.2201 41.8408 31.2024 41.835 31.1879 41.8241C31.1734 41.8131 31.1629 41.7977 31.1583 41.7801C31.1536 41.7626 31.1549 41.744 31.162 41.7272C31.1691 41.7105 31.1816 41.6967 31.1975 41.6879L36.4331 38.6689C36.4421 38.6636 36.4522 38.6601 36.4627 38.6587C36.4731 38.6574 36.4837 38.6581 36.4939 38.661C36.504 38.6638 36.5135 38.6687 36.5217 38.6753C36.5299 38.6819 36.5367 38.6901 36.5416 38.6995C36.547 38.7085 36.5505 38.7186 36.5518 38.729C36.5532 38.7395 36.5524 38.7501 36.5496 38.7602C36.5467 38.7704 36.5418 38.7799 36.5352 38.7881C36.5286 38.7963 36.5204 38.803 36.5111 38.808L31.279 41.827C31.2674 41.836 31.253 41.8408 31.2383 41.8405Z" fill="#455A64"/>
<path d="M31.2383 42.5969C31.2243 42.5972 31.2105 42.5935 31.1985 42.5863C31.1865 42.5791 31.1767 42.5687 31.1704 42.5562C31.1649 42.5474 31.1612 42.5375 31.1596 42.5272C31.158 42.5169 31.1585 42.5064 31.161 42.4962C31.1636 42.4861 31.1681 42.4766 31.1744 42.4683C31.1806 42.4599 31.1885 42.4529 31.1975 42.4477L36.4331 39.4253C36.4518 39.4167 36.4731 39.4155 36.4927 39.422C36.5123 39.4284 36.5287 39.4421 36.5386 39.4602C36.5485 39.4782 36.5511 39.4994 36.546 39.5194C36.5409 39.5394 36.5285 39.5567 36.5111 39.5678L31.279 42.5868L31.2383 42.5969Z" fill="#E0E0E0"/>
<path d="M31.2383 43.3568C31.2243 43.357 31.2105 43.3533 31.1985 43.3461C31.1865 43.3389 31.1767 43.3285 31.1704 43.3161C31.1649 43.3072 31.1612 43.2973 31.1596 43.287C31.158 43.2767 31.1585 43.2662 31.161 43.256C31.1636 43.2459 31.1681 43.2364 31.1744 43.2281C31.1806 43.2197 31.1885 43.2127 31.1975 43.2075L36.4331 40.1852C36.4516 40.1752 36.4732 40.1729 36.4935 40.1786C36.5137 40.1843 36.531 40.1976 36.5416 40.2157C36.547 40.2248 36.5505 40.2348 36.5518 40.2453C36.5532 40.2557 36.5524 40.2663 36.5496 40.2765C36.5467 40.2866 36.5418 40.2961 36.5352 40.3043C36.5286 40.3125 36.5204 40.3193 36.5111 40.3242L31.279 43.3466C31.2664 43.3531 31.2524 43.3566 31.2383 43.3568Z" fill="#E0E0E0"/>
<path d="M31.2383 44.1167C31.2201 44.117 31.2024 44.1112 31.1879 44.1002C31.1734 44.0893 31.1629 44.0738 31.1583 44.0562C31.1536 44.0387 31.1549 44.0201 31.162 44.0034C31.1691 43.9867 31.1816 43.9728 31.1975 43.964L36.4331 40.945C36.4419 40.9395 36.4518 40.9359 36.4621 40.9343C36.4724 40.9327 36.483 40.9331 36.4931 40.9357C36.5032 40.9382 36.5127 40.9427 36.5211 40.949C36.5294 40.9553 36.5364 40.9632 36.5416 40.9722C36.5471 40.9815 36.5506 40.9918 36.552 41.0025C36.5534 41.0132 36.5527 41.0241 36.5498 41.0345C36.547 41.045 36.5421 41.0547 36.5355 41.0632C36.5288 41.0717 36.5205 41.0788 36.5111 41.0841L31.279 44.1031C31.2674 44.1121 31.253 44.1169 31.2383 44.1167Z" fill="#E0E0E0"/>
<path d="M38.8082 28.8658C38.7942 28.866 38.7804 28.8624 38.7684 28.8552C38.7564 28.848 38.7467 28.8376 38.7403 28.8251C38.7344 28.8162 38.7306 28.8061 38.7289 28.7955C38.7273 28.7849 38.7279 28.7741 38.7308 28.7638C38.7337 28.7536 38.7388 28.744 38.7457 28.7358C38.7526 28.7277 38.7612 28.7211 38.7709 28.7165L44.003 25.6942C44.0215 25.6843 44.0432 25.6819 44.0634 25.6876C44.0836 25.6933 44.1009 25.7066 44.1116 25.7247C44.1171 25.7336 44.1207 25.7435 44.1223 25.7538C44.1239 25.7641 44.1235 25.7746 44.1209 25.7847C44.1184 25.7948 44.1139 25.8043 44.1076 25.8127C44.1013 25.821 44.0934 25.828 44.0844 25.8333L38.8489 28.8556C38.8365 28.8625 38.8224 28.866 38.8082 28.8658Z" fill="#455A64"/>
<path d="M38.8082 29.6256C38.7943 29.6251 38.7808 29.6211 38.7689 29.614C38.7571 29.6069 38.7472 29.5969 38.7403 29.5849C38.7307 29.5659 38.7288 29.544 38.7352 29.5237C38.7415 29.5034 38.7555 29.4864 38.7742 29.4763L44.0063 26.4574C44.0153 26.4515 44.0254 26.4476 44.0359 26.446C44.0465 26.4443 44.0573 26.445 44.0676 26.4479C44.0779 26.4507 44.0875 26.4558 44.0956 26.4627C44.1038 26.4696 44.1104 26.4782 44.1149 26.4879C44.1204 26.4968 44.1241 26.5066 44.1257 26.5169C44.1273 26.5273 44.1268 26.5378 44.1243 26.5479C44.1218 26.558 44.1172 26.5675 44.111 26.5759C44.1047 26.5842 44.0968 26.5912 44.0878 26.5964L38.8523 29.6154C38.846 29.62 38.8388 29.6233 38.8312 29.625C38.8237 29.6267 38.8158 29.6269 38.8082 29.6256Z" fill="#E0E0E0"/>
<path d="M38.8082 30.3819C38.7942 30.3822 38.7804 30.3785 38.7684 30.3713C38.7564 30.3641 38.7467 30.3537 38.7403 30.3412C38.735 30.3322 38.7315 30.3221 38.7301 30.3117C38.7288 30.3012 38.7296 30.2906 38.7324 30.2804C38.7353 30.2703 38.7401 30.2608 38.7468 30.2526C38.7534 30.2444 38.7616 30.2376 38.7709 30.2327L44.003 27.2137C44.0119 27.2082 44.0217 27.2046 44.0321 27.203C44.0424 27.2014 44.0529 27.2018 44.063 27.2044C44.0731 27.2069 44.0827 27.2114 44.091 27.2177C44.0993 27.224 44.1063 27.2318 44.1116 27.2409C44.1171 27.25 44.1209 27.2601 44.1225 27.2707C44.1242 27.2813 44.1237 27.2921 44.1212 27.3024C44.1187 27.3128 44.1141 27.3226 44.1078 27.3313C44.1015 27.3399 44.0936 27.3472 44.0844 27.3528L38.8489 30.3718C38.8365 30.3787 38.8224 30.3822 38.8082 30.3819Z" fill="#E0E0E0"/>
<path d="M38.8082 31.1418C38.7942 31.1421 38.7804 31.1384 38.7684 31.1312C38.7564 31.124 38.7467 31.1136 38.7403 31.1011C38.7344 31.0922 38.7306 31.0821 38.7289 31.0715C38.7273 31.0609 38.7279 31.0501 38.7308 31.0398C38.7337 31.0296 38.7388 31.02 38.7457 31.0118C38.7526 31.0037 38.7612 30.9971 38.7709 30.9925L44.003 27.9702C44.0215 27.9603 44.0432 27.9579 44.0634 27.9636C44.0836 27.9693 44.1009 27.9826 44.1116 28.0007C44.1171 28.0096 44.1207 28.0195 44.1223 28.0298C44.1239 28.0401 44.1235 28.0506 44.1209 28.0607C44.1184 28.0708 44.1139 28.0804 44.1076 28.0887C44.1013 28.097 44.0934 28.104 44.0844 28.1093L38.8489 31.1316C38.8365 31.1385 38.8224 31.142 38.8082 31.1418Z" fill="#E0E0E0"/>
<path d="M43.6568 37.3596C43.6428 37.3598 43.629 37.3561 43.617 37.3489C43.605 37.3417 43.5953 37.3313 43.589 37.3188C43.5831 37.3099 43.5792 37.2998 43.5775 37.2893C43.5759 37.2787 43.5766 37.2679 43.5794 37.2576C43.5823 37.2473 43.5874 37.2378 43.5943 37.2296C43.6012 37.2214 43.6098 37.2149 43.6195 37.2103L48.8516 34.1879C48.8705 34.1771 48.8929 34.1743 48.9139 34.18C48.9349 34.1857 48.9528 34.1996 48.9636 34.2185C48.9744 34.2374 48.9772 34.2598 48.9715 34.2808C48.9658 34.3017 48.9519 34.3196 48.9331 34.3304L43.6975 37.3494C43.6851 37.3563 43.671 37.3598 43.6568 37.3596Z" fill="#455A64"/>
<path d="M43.657 38.1195C43.643 38.1197 43.6293 38.116 43.6173 38.1088C43.6053 38.1016 43.5955 38.0912 43.5892 38.0787C43.5837 38.0694 43.5802 38.0591 43.5788 38.0484C43.5774 38.0377 43.5781 38.0268 43.581 38.0164C43.5838 38.006 43.5887 37.9962 43.5954 37.9877C43.602 37.9792 43.6103 37.9721 43.6197 37.9668L48.8518 34.9478C48.8608 34.942 48.8709 34.9381 48.8814 34.9364C48.892 34.9348 48.9028 34.9354 48.9131 34.9383C48.9234 34.9412 48.9329 34.9463 48.9411 34.9532C48.9493 34.9601 48.9559 34.9687 48.9604 34.9784C48.9659 34.9872 48.9696 34.9971 48.9712 35.0074C48.9728 35.0177 48.9723 35.0283 48.9698 35.0384C48.9672 35.0485 48.9627 35.058 48.9564 35.0663C48.9502 35.0747 48.9423 35.0817 48.9333 35.0869L43.6977 38.1093C43.6853 38.1162 43.6713 38.1197 43.657 38.1195Z" fill="#E0E0E0"/>
<path d="M43.657 38.8758C43.6435 38.8761 43.63 38.8727 43.6181 38.8662C43.6062 38.8596 43.5963 38.8501 43.5892 38.8385C43.5837 38.8292 43.5802 38.8189 43.5788 38.8082C43.5774 38.7975 43.5781 38.7866 43.581 38.7762C43.5838 38.7657 43.5887 38.756 43.5954 38.7475C43.602 38.739 43.6103 38.7319 43.6197 38.7266L48.8518 35.7076C48.8607 35.7021 48.8706 35.6985 48.8809 35.6969C48.8912 35.6952 48.9017 35.6957 48.9119 35.6983C48.922 35.7008 48.9315 35.7053 48.9398 35.7116C48.9482 35.7179 48.9552 35.7257 48.9604 35.7348C48.966 35.7439 48.9697 35.754 48.9714 35.7646C48.973 35.7752 48.9726 35.786 48.97 35.7963C48.9675 35.8067 48.963 35.8165 48.9567 35.8252C48.9503 35.8338 48.9424 35.8411 48.9333 35.8467L43.6977 38.8657C43.6853 38.8726 43.6713 38.8761 43.657 38.8758Z" fill="#E0E0E0"/>
<path d="M43.6568 39.6527C43.6428 39.6529 43.629 39.6492 43.617 39.642C43.605 39.6348 43.5953 39.6244 43.589 39.612C43.5831 39.603 43.5792 39.5929 43.5775 39.5824C43.5759 39.5718 43.5766 39.561 43.5794 39.5507C43.5823 39.5404 43.5874 39.5309 43.5943 39.5227C43.6012 39.5145 43.6098 39.508 43.6195 39.5034L48.8516 36.481C48.8702 36.4711 48.8918 36.4688 48.9121 36.4745C48.9323 36.4802 48.9495 36.4935 48.9602 36.5116C48.9657 36.5204 48.9694 36.5303 48.971 36.5406C48.9726 36.5509 48.9721 36.5615 48.9696 36.5716C48.967 36.5817 48.9625 36.5912 48.9562 36.5995C48.95 36.6079 48.9421 36.6149 48.9331 36.6201L43.6975 39.6425C43.6851 39.6494 43.671 39.6529 43.6568 39.6527Z" fill="#E0E0E0"/>
<path d="M43.6568 44.9036C43.6428 44.9039 43.629 44.9002 43.617 44.893C43.605 44.8858 43.5953 44.8754 43.589 44.8629C43.5831 44.854 43.5792 44.8439 43.5775 44.8334C43.5759 44.8228 43.5766 44.812 43.5794 44.8017C43.5823 44.7914 43.5874 44.7818 43.5943 44.7737C43.6012 44.7655 43.6098 44.7589 43.6195 44.7544L48.8516 41.732C48.8702 41.7221 48.8918 41.7198 48.9121 41.7255C48.9323 41.7311 48.9495 41.7444 48.9602 41.7626C48.9657 41.7714 48.9694 41.7813 48.971 41.7916C48.9726 41.8019 48.9721 41.8124 48.9696 41.8226C48.967 41.8327 48.9625 41.8422 48.9562 41.8505C48.95 41.8589 48.9421 41.8659 48.9331 41.8711L43.6975 44.8935C43.6851 44.9004 43.671 44.9039 43.6568 44.9036Z" fill="#455A64"/>
<path d="M43.657 45.6634C43.6432 45.663 43.6297 45.659 43.6178 45.6519C43.6059 45.6447 43.5961 45.6347 43.5892 45.6227C43.5837 45.6134 43.5802 45.603 43.5788 45.5923C43.5774 45.5816 43.5781 45.5708 43.581 45.5603C43.5838 45.5499 43.5887 45.5402 43.5954 45.5317C43.602 45.5232 43.6103 45.516 43.6197 45.5108L48.8518 42.4918C48.8608 42.4859 48.8709 42.482 48.8814 42.4804C48.892 42.4787 48.9028 42.4794 48.9131 42.4823C48.9234 42.4852 48.9329 42.4902 48.9411 42.4972C48.9493 42.5041 48.9559 42.5126 48.9604 42.5223C48.9659 42.5312 48.9696 42.5411 48.9712 42.5514C48.9728 42.5617 48.9723 42.5722 48.9698 42.5823C48.9672 42.5924 48.9627 42.602 48.9564 42.6103C48.9502 42.6186 48.9423 42.6256 48.9333 42.6309L43.6977 45.6532C43.6853 45.6601 43.6713 45.6636 43.657 45.6634Z" fill="#E0E0E0"/>
<path d="M43.6568 46.4369C43.6428 46.4371 43.6291 46.4335 43.6171 46.4263C43.6051 46.4191 43.5953 46.4086 43.589 46.3962C43.5836 46.3871 43.5801 46.377 43.5788 46.3666C43.5774 46.3561 43.5782 46.3455 43.581 46.3354C43.5839 46.3252 43.5888 46.3158 43.5954 46.3076C43.602 46.2994 43.6102 46.2926 43.6195 46.2876L48.8516 43.2687C48.8605 43.2632 48.8704 43.2595 48.8807 43.2579C48.891 43.2563 48.9015 43.2568 48.9117 43.2593C48.9218 43.2618 48.9313 43.2664 48.9396 43.2726C48.948 43.2789 48.955 43.2868 48.9602 43.2958C48.9658 43.3049 48.9695 43.3151 48.9712 43.3256C48.9728 43.3362 48.9724 43.347 48.9698 43.3574C48.9673 43.3678 48.9628 43.3776 48.9565 43.3862C48.9501 43.3949 48.9422 43.4022 48.9331 43.4077L43.6975 46.4267C43.6851 46.4336 43.6711 46.4371 43.6568 46.4369Z" fill="#E0E0E0"/>
<path d="M43.6568 47.1798C43.6428 47.18 43.629 47.1763 43.617 47.1691C43.605 47.1619 43.5953 47.1515 43.589 47.1391C43.5831 47.1301 43.5792 47.12 43.5775 47.1095C43.5759 47.0989 43.5766 47.0881 43.5794 47.0778C43.5823 47.0675 43.5874 47.058 43.5943 47.0498C43.6012 47.0416 43.6098 47.0351 43.6195 47.0305L48.8516 44.0081C48.8702 43.9982 48.8918 43.9959 48.9121 44.0016C48.9323 44.0073 48.9495 44.0206 48.9602 44.0387C48.9657 44.0475 48.9694 44.0574 48.971 44.0677C48.9726 44.078 48.9721 44.0886 48.9696 44.0987C48.967 44.1088 48.9625 44.1183 48.9562 44.1266C48.95 44.135 48.9421 44.142 48.9331 44.1472L43.6975 47.1696C43.6851 47.1765 43.671 47.18 43.6568 47.1798Z" fill="#E0E0E0"/>
<path d="M19.0369 65.9516C19.0229 65.9518 19.009 65.9485 18.9966 65.942C18.9841 65.9354 18.9735 65.9259 18.9656 65.9143C18.9602 65.905 18.9567 65.8947 18.9553 65.884C18.9539 65.8733 18.9546 65.8624 18.9575 65.852C18.9603 65.8415 18.9652 65.8318 18.9718 65.8233C18.9785 65.8148 18.9868 65.8077 18.9962 65.8024L24.2283 62.7834C24.2374 62.7778 24.2476 62.7741 24.2581 62.7725C24.2687 62.7708 24.2795 62.7713 24.2899 62.7738C24.3003 62.7763 24.3101 62.7808 24.3187 62.7872C24.3274 62.7935 24.3347 62.8014 24.3403 62.8105C24.3504 62.8296 24.3528 62.8518 24.3471 62.8726C24.3415 62.8933 24.3281 62.9112 24.3097 62.9225L19.0946 65.9415C19.077 65.9511 19.0567 65.9546 19.0369 65.9516Z" fill="#455A64"/>
<path d="M19.0367 66.7114C19.0223 66.7115 19.0081 66.7078 18.9956 66.7007C18.983 66.6935 18.9726 66.6832 18.9654 66.6707C18.9601 66.6616 18.9566 66.6515 18.9552 66.6411C18.9539 66.6306 18.9547 66.62 18.9575 66.6099C18.9604 66.5997 18.9652 66.5903 18.9718 66.5821C18.9785 66.5739 18.9867 66.5671 18.996 66.5621L24.2281 63.5398C24.2471 63.5297 24.2693 63.5272 24.2901 63.5329C24.3109 63.5386 24.3288 63.5519 24.3401 63.5703C24.35 63.5888 24.3523 63.6105 24.3466 63.6307C24.3409 63.6509 24.3276 63.6682 24.3095 63.6788L19.0944 66.7012L19.0367 66.7114Z" fill="#E0E0E0"/>
<path d="M19.0369 67.4678C19.0226 67.4673 19.0087 67.4633 18.9962 67.4562C18.9838 67.4492 18.9733 67.4392 18.9656 67.4271C18.9602 67.4178 18.9567 67.4075 18.9553 67.3967C18.9539 67.386 18.9546 67.3752 18.9575 67.3647C18.9603 67.3543 18.9652 67.3446 18.9718 67.3361C18.9785 67.3276 18.9868 67.3205 18.9962 67.3152L24.2283 64.2962C24.2376 64.2908 24.248 64.2873 24.2587 64.2858C24.2694 64.2844 24.2803 64.2852 24.2907 64.288C24.3011 64.2909 24.3108 64.2957 24.3194 64.3024C24.3279 64.309 24.335 64.3173 24.3403 64.3267C24.3502 64.3453 24.3525 64.3669 24.3468 64.3871C24.3411 64.4074 24.3279 64.4246 24.3097 64.4353L19.0946 67.4678C19.0758 67.474 19.0556 67.474 19.0369 67.4678Z" fill="#E0E0E0"/>
<path d="M19.0368 68.2276C19.0196 68.2268 19.0032 68.2205 18.9898 68.2097C18.9765 68.199 18.9669 68.1843 18.9623 68.1677C18.9578 68.1512 18.9587 68.1336 18.9647 68.1176C18.9708 68.1015 18.9817 68.0878 18.9961 68.0784L24.2282 65.0594C24.2373 65.0538 24.2474 65.0501 24.258 65.0485C24.2686 65.0468 24.2794 65.0473 24.2898 65.0498C24.3002 65.0523 24.31 65.0568 24.3186 65.0632C24.3273 65.0695 24.3346 65.0774 24.3401 65.0865C24.3502 65.1056 24.3527 65.1278 24.347 65.1485C24.3414 65.1693 24.328 65.1872 24.3096 65.1985L19.0944 68.2175L19.0368 68.2276Z" fill="#E0E0E0"/>
<path d="M79.9325 9.46287V50.8092C79.9143 51.1539 79.8147 51.4895 79.6419 51.7884C79.4691 52.0873 79.228 52.341 78.9383 52.529L52.5063 67.7934C52.4044 67.8563 52.2868 67.8892 52.167 67.8884C52.1253 67.8933 52.0832 67.8933 52.0415 67.8884C52.012 67.8818 51.9835 67.8716 51.9566 67.8579L51.9023 67.8307L51.8447 67.79C51.825 67.776 51.8068 67.7601 51.7904 67.7425C51.7125 67.6686 51.6502 67.5798 51.6071 67.4813C51.5378 67.323 51.502 67.1521 51.502 66.9793V25.8365C51.5215 25.4921 51.6217 25.1571 51.7943 24.8584C51.967 24.5597 52.2074 24.3057 52.4961 24.1167L78.9282 8.88282C79.0255 8.81377 79.1384 8.76989 79.2568 8.75509C79.3752 8.74029 79.4955 8.75504 79.6068 8.79801C79.6365 8.81244 79.6649 8.82947 79.6916 8.84889C79.779 8.92369 79.8466 9.01879 79.8887 9.12584C79.9307 9.2329 79.9457 9.34863 79.9325 9.46287Z" fill="#455A64"/>
<path d="M79.3794 9.08982C79.4112 9.08838 79.4428 9.0954 79.471 9.11017H79.488C79.488 9.11017 79.5931 9.19837 79.5931 9.44938V50.8092C79.5754 51.0943 79.4917 51.3714 79.3486 51.6186C79.2055 51.8658 79.007 52.0765 78.7686 52.2339L52.34 67.4984C52.2919 67.5284 52.2371 67.5459 52.1805 67.5493H52.1228H52.1058L52.0787 67.5289H52.0583L52.0414 67.512C51.999 67.4685 51.9646 67.418 51.9396 67.3627C51.8901 67.2481 51.8647 67.1246 51.8649 66.9997V25.8366C51.8857 25.5523 51.9707 25.2764 52.1135 25.0296C52.2563 24.7828 52.4533 24.5717 52.6895 24.4119L79.1215 9.17801C79.2027 9.12538 79.2963 9.09497 79.393 9.08982H79.3794ZM79.393 8.75061C79.2369 8.75537 79.0848 8.80098 78.9519 8.8829L52.5198 24.1168C52.2311 24.3057 51.9907 24.5598 51.818 24.8585C51.6454 25.1572 51.5452 25.4922 51.5256 25.8366V66.9489C51.5257 67.1217 51.5615 67.2926 51.6308 67.4509C51.6738 67.5493 51.7361 67.6381 51.814 67.7121C51.8305 67.7297 51.8487 67.7456 51.8683 67.7596L51.926 67.8003L51.9803 67.8274C52.0072 67.8411 52.0357 67.8514 52.0651 67.8579C52.1068 67.8629 52.149 67.8629 52.1907 67.8579C52.3022 67.8535 52.4108 67.8209 52.5062 67.763L78.9383 52.4985C79.228 52.3106 79.4691 52.0568 79.6418 51.7579C79.8146 51.459 79.9142 51.1235 79.9325 50.7787V9.46295C79.9434 9.3509 79.9272 9.23786 79.8853 9.13336C79.8434 9.02887 79.7769 8.93599 79.6915 8.86255C79.6015 8.79559 79.4916 8.76093 79.3794 8.76418L79.393 8.75061Z" fill="#455A64"/>
<g opacity="0.8">
<path opacity="0.8" d="M79.9325 9.46287V50.8092C79.9143 51.1539 79.8147 51.4895 79.6419 51.7884C79.4691 52.0873 79.228 52.341 78.9383 52.529L52.5063 67.7934C52.4044 67.8563 52.2868 67.8892 52.167 67.8884C52.1253 67.8933 52.0832 67.8933 52.0415 67.8884C52.012 67.8818 51.9835 67.8716 51.9566 67.8579L51.9023 67.8307L51.8447 67.79C51.825 67.776 51.8068 67.7601 51.7904 67.7425C51.7125 67.6686 51.6502 67.5798 51.6071 67.4813C51.5378 67.323 51.502 67.1521 51.502 66.9793V25.8365C51.5215 25.4921 51.6217 25.1571 51.7943 24.8584C51.967 24.5597 52.2074 24.3057 52.4961 24.1167L78.9282 8.88282C79.0255 8.81377 79.1384 8.76989 79.2568 8.75509C79.3752 8.74029 79.4955 8.75504 79.6068 8.79801C79.6365 8.81244 79.6649 8.82947 79.6916 8.84889C79.779 8.92369 79.8466 9.01879 79.8887 9.12584C79.9307 9.2329 79.9457 9.34863 79.9325 9.46287Z" fill="#455A64"/>
</g>
<path d="M79.6068 8.78449C79.4955 8.74152 79.3752 8.72677 79.2568 8.74157C79.1384 8.75636 79.0255 8.80025 78.9282 8.86929L52.4961 24.1032C52.2074 24.2921 51.967 24.5462 51.7943 24.8449C51.6217 25.1435 51.5215 25.4786 51.5019 25.823V29.0693L50.2363 28.3264V25.1039C50.2544 24.76 50.3536 24.4252 50.5258 24.1269C50.698 23.8286 50.9383 23.5752 51.2271 23.3875L77.6625 8.15356C77.7649 8.07729 77.8867 8.03141 78.0139 8.02121C78.1412 8.01101 78.2687 8.0369 78.3819 8.09589C78.5719 8.21462 79.3964 8.68951 79.6068 8.78449Z" fill="#4CAF4F"/>
<path d="M79.9326 9.46294C79.9326 8.8354 79.4847 8.58438 78.9385 8.89985L52.5064 24.1338C52.2182 24.3221 51.9783 24.5756 51.8062 24.8738C51.6341 25.172 51.5345 25.5064 51.5156 25.8502V29.0964L79.9326 12.7092V9.46294Z" fill="#4CAF4F"/>
<g opacity="0.4">
<path opacity="0.4" d="M78.9384 8.88293L52.5064 24.1168C52.2155 24.3013 51.9752 24.5555 51.8074 24.8563L50.5486 24.1236C50.7093 23.8288 50.9429 23.58 51.2272 23.4011L77.6593 8.16719C77.7628 8.09224 77.8848 8.04694 78.0121 8.03619C78.1395 8.02543 78.2674 8.04961 78.382 8.10614C78.5584 8.21807 79.3829 8.68618 79.5933 8.78456C79.4843 8.74703 79.3678 8.73637 79.2538 8.7535C79.1398 8.77063 79.0316 8.81503 78.9384 8.88293Z" fill="white"/>
</g>
<path opacity="0.15" d="M50.2432 28.3434V25.1175C50.2572 24.7654 50.3624 24.4229 50.5485 24.1237L51.8108 24.853C51.6285 25.1509 51.5267 25.491 51.5156 25.8401V29.0829L50.2432 28.3434Z" fill="#103E13"/>
<path d="M73.9505 13.1468C73.7719 13.288 73.6284 13.4687 73.5313 13.6747C73.4342 13.8807 73.386 14.1063 73.3907 14.334C73.3907 14.8089 73.6418 15.0531 73.9505 14.8733C74.1286 14.7315 74.2717 14.5507 74.3687 14.3449C74.4658 14.139 74.5143 13.9136 74.5104 13.6861C74.5104 13.1942 74.2593 12.967 73.9505 13.1468Z" fill="#455A64"/>
<path d="M75.9695 11.9765C75.7915 12.1183 75.6484 12.2991 75.5513 12.5049C75.4542 12.7108 75.4058 12.9362 75.4096 13.1637C75.4096 13.642 75.6607 13.8828 75.9695 13.7064C76.1485 13.5653 76.2925 13.3847 76.3903 13.1788C76.488 12.9728 76.5367 12.7471 76.5327 12.5192C76.5327 12.0409 76.2817 11.8001 75.9695 11.9765Z" fill="#455A64"/>
<path d="M77.9883 10.8198C77.8103 10.9616 77.6672 11.1424 77.5701 11.3482C77.473 11.5541 77.4246 11.7795 77.4284 12.007C77.4284 12.4853 77.6795 12.7261 77.9883 12.5463C78.1679 12.4058 78.3124 12.2253 78.4101 12.0192C78.5079 11.8131 78.5563 11.5871 78.5515 11.3591C78.5515 10.874 78.3005 10.6298 77.9883 10.8198Z" fill="#455A64"/>
<path d="M51.8786 67.7833L51.753 67.7121C51.6542 67.6493 51.5523 67.5916 51.4476 67.5391L51.2814 67.4441L51.0235 67.2948L50.803 67.1693L50.6808 67.1015C50.615 67.0692 50.5571 67.0229 50.5112 66.9658C50.4549 66.906 50.409 66.8372 50.3754 66.7623C50.3003 66.5984 50.2621 66.4201 50.2635 66.2399V28.34L51.5291 29.0828V66.9488C51.5352 67.121 51.5708 67.2908 51.6343 67.4509C51.6773 67.5493 51.7396 67.6381 51.8175 67.7121C51.8314 67.7321 51.8501 67.7484 51.8718 67.7596L51.8786 67.7833Z" fill="#37474F"/>
<path d="M53.9993 30.46C54.0008 30.4124 54.0136 30.3659 54.0366 30.3243L54.5659 29.2252C54.5714 29.2134 54.5795 29.2029 54.5897 29.1947C54.5925 29.1917 54.5959 29.1894 54.5997 29.1878C54.6035 29.1861 54.6076 29.1853 54.6117 29.1853C54.6158 29.1853 54.6199 29.1861 54.6237 29.1878C54.6275 29.1894 54.6309 29.1917 54.6338 29.1947C54.6458 29.2088 54.6519 29.2271 54.6507 29.2456V29.6153C54.6549 29.6537 54.6549 29.6923 54.6507 29.7307C54.6507 29.7578 54.6304 29.7917 54.6134 29.829L54.3318 30.4091L54.6134 30.6669C54.6289 30.6839 54.6415 30.7034 54.6507 30.7246C54.6556 30.7583 54.6556 30.7926 54.6507 30.8263V31.1723C54.6499 31.198 54.6442 31.2234 54.6338 31.2469C54.6237 31.2674 54.6085 31.285 54.5897 31.2978C54.5897 31.2978 54.5897 31.2978 54.5659 31.2978L54.0434 30.8331C54.0301 30.8221 54.0198 30.8079 54.0133 30.792C54.0068 30.776 54.0043 30.7587 54.0061 30.7415L53.9993 30.46Z" fill="#4CAF4F"/>
<path d="M55.9402 27.709C55.9486 27.6715 55.9611 27.6351 55.9775 27.6004C55.9952 27.5664 56.0223 27.5381 56.0556 27.519L56.2558 27.4037C56.2558 27.4037 56.2863 27.4037 56.2965 27.4037C56.3032 27.4102 56.3083 27.4182 56.3112 27.427C56.3142 27.4359 56.3149 27.4453 56.3134 27.4546C56.3151 27.4681 56.3151 27.4818 56.3134 27.4953L55.4007 31.3724C55.3923 31.4088 55.3798 31.4441 55.3634 31.4776C55.3467 31.5152 55.3181 31.5462 55.2819 31.5658L55.0919 31.6777C55.0861 31.6821 55.0789 31.6845 55.0716 31.6845C55.0642 31.6845 55.0571 31.6821 55.0512 31.6777C55.0442 31.6706 55.0388 31.6621 55.0353 31.6528C55.0318 31.6434 55.0303 31.6334 55.0309 31.6235C55.0298 31.6099 55.0298 31.5963 55.0309 31.5828L55.9402 27.709Z" fill="#4CAF4F"/>
<path d="M57.3449 28.7979C57.3434 28.8465 57.3306 28.8941 57.3076 28.937L56.7783 30.0326L56.7546 30.0666C56.748 30.0708 56.7403 30.0731 56.7325 30.0731C56.7247 30.0731 56.717 30.0708 56.7104 30.0666C56.7039 30.0491 56.7039 30.0298 56.7104 30.0123V29.6426C56.7061 29.6054 56.7061 29.5678 56.7104 29.5306C56.7207 29.4955 56.7344 29.4614 56.7512 29.4289L57.0294 28.8488L56.7512 28.5944C56.7343 28.5777 56.7205 28.5582 56.7104 28.5367C56.7056 28.503 56.7056 28.4687 56.7104 28.435V28.0652C56.7061 28.0406 56.7061 28.0153 56.7104 27.9906C56.7205 27.9701 56.7357 27.9526 56.7546 27.9397C56.758 27.9373 56.7622 27.9359 56.7664 27.9359C56.7707 27.9359 56.7748 27.9373 56.7783 27.9397L57.3076 28.4248C57.3209 28.4365 57.3312 28.4513 57.3377 28.4678C57.3442 28.4843 57.3467 28.5021 57.3449 28.5198V28.7979Z" fill="#4CAF4F"/>
<path d="M58.8176 28.5469C58.8253 28.5409 58.8349 28.5376 58.8447 28.5376C58.8545 28.5376 58.8641 28.5409 58.8719 28.5469C58.8871 28.5661 58.8944 28.5904 58.8922 28.6148V29.0184C58.892 29.0501 58.885 29.0813 58.8719 29.11C58.8592 29.1356 58.8406 29.1577 58.8176 29.1745L58.5699 29.3169C58.563 29.3234 58.5539 29.327 58.5444 29.327C58.535 29.327 58.5259 29.3234 58.519 29.3169C58.5101 29.3089 58.5034 29.2988 58.4992 29.2876C58.4951 29.2764 58.4937 29.2643 58.4952 29.2525V28.8454C58.495 28.8134 58.5032 28.7818 58.519 28.7539C58.5284 28.7283 58.5464 28.7067 58.5699 28.6928L58.8176 28.5469Z" fill="#4CAF4F"/>
<path d="M59.6555 28.0652C59.6627 28.0594 59.6717 28.0563 59.681 28.0563C59.6902 28.0563 59.6992 28.0594 59.7064 28.0652C59.7217 28.0843 59.729 28.1087 59.7268 28.133V28.5367C59.7265 28.5683 59.7196 28.5995 59.7064 28.6283C59.697 28.6539 59.679 28.6754 59.6555 28.6893L59.4044 28.8352C59.3972 28.841 59.3882 28.8441 59.379 28.8441C59.3697 28.8441 59.3607 28.841 59.3535 28.8352C59.3382 28.8161 59.3309 28.7918 59.3332 28.7674V28.3637C59.3334 28.3321 59.3403 28.3009 59.3535 28.2721C59.3638 28.2461 59.3815 28.2237 59.4044 28.2077L59.6555 28.0652Z" fill="#4CAF4F"/>
<path d="M60.4902 27.5835C60.4976 27.5768 60.5073 27.5731 60.5173 27.5731C60.5273 27.5731 60.537 27.5768 60.5445 27.5835C60.5521 27.5923 60.5578 27.6025 60.5613 27.6136C60.5648 27.6247 60.566 27.6364 60.5648 27.6479V28.055C60.5646 28.0866 60.5576 28.1178 60.5445 28.1466C60.5329 28.1719 60.514 28.1932 60.4902 28.2076L60.2425 28.3535C60.2353 28.3593 60.2263 28.3624 60.217 28.3624C60.2078 28.3624 60.1988 28.3593 60.1916 28.3535C60.1827 28.3448 60.1759 28.3341 60.1718 28.3223C60.1677 28.3106 60.1663 28.298 60.1678 28.2857V27.882C60.1676 27.8499 60.1758 27.8183 60.1916 27.7904C60.2018 27.7644 60.2196 27.742 60.2425 27.726L60.4902 27.5835Z" fill="#4CAF4F"/>
<path d="M54.2233 33.4179L71.3481 23.5401C71.4906 23.4587 71.6094 23.5164 71.6094 23.6724C71.6028 23.7602 71.5757 23.8452 71.5304 23.9206C71.485 23.996 71.4226 24.0597 71.3481 24.1066L54.2334 33.9844C54.0875 34.0692 53.9722 34.0115 53.9722 33.8521C53.9774 33.7652 54.0028 33.6807 54.0463 33.6053C54.0899 33.53 54.1505 33.4658 54.2233 33.4179Z" fill="#4CAF4F"/>
<path d="M58.1558 37.9565L75.2705 28.0787C75.413 27.9973 75.5317 28.055 75.5317 28.211C75.5251 28.2992 75.4981 28.3847 75.4527 28.4606C75.4074 28.5366 75.345 28.6009 75.2705 28.6486L58.1558 38.5264C58.0099 38.6078 57.8945 38.5501 57.8945 38.3941C57.9003 38.3057 57.927 38.2199 57.9725 38.1438C58.0179 38.0678 58.0807 38.0036 58.1558 37.9565Z" fill="#C8E6C9"/>
<path d="M58.1558 40.2292L68.8779 34.0421C69.0238 33.9573 69.1392 34.0149 69.1392 34.1743C69.1329 34.2622 69.1059 34.3472 69.0605 34.4227C69.0151 34.4981 68.9525 34.5618 68.8779 34.6085L58.1558 40.7957C58.0099 40.8771 57.8945 40.8195 57.8945 40.6634C57.9003 40.5755 57.927 40.4902 57.9725 40.4147C58.0179 40.3391 58.0808 40.2756 58.1558 40.2292Z" fill="#C8E6C9"/>
<path d="M58.1558 42.4986L68.8779 36.3114C69.0238 36.2266 69.1392 36.2877 69.1392 36.4437C69.1329 36.5315 69.1059 36.6166 69.0605 36.692C69.0151 36.7675 68.9525 36.8312 68.8779 36.8779L58.1558 43.0651C58.0099 43.1499 57.8945 43.0888 57.8945 42.9328C57.9003 42.8448 57.927 42.7595 57.9725 42.684C58.0179 42.6085 58.0808 42.5449 58.1558 42.4986Z" fill="#C8E6C9"/>
<path d="M72.366 22.9532L77.2486 20.1242C77.3945 20.0428 77.5099 20.1005 77.5099 20.2565C77.5041 20.3449 77.4774 20.4307 77.432 20.5068C77.3866 20.5828 77.3237 20.647 77.2486 20.6941L72.366 23.5231C72.2201 23.6045 72.1047 23.5469 72.1047 23.3908C72.1105 23.3024 72.1372 23.2167 72.1827 23.1406C72.2281 23.0645 72.2909 23.0003 72.366 22.9532Z" fill="#4CAF4F"/>
<path d="M58.4544 55.972L71.3481 48.5094C71.4906 48.4246 71.6093 48.4857 71.6093 48.6417C71.6022 48.7293 71.575 48.8141 71.5296 48.8894C71.4843 48.9647 71.4222 49.0286 71.3481 49.0759L58.4544 56.5385C58.3085 56.6199 58.1931 56.5622 58.1931 56.4062C58.2 56.3185 58.2271 56.2336 58.2725 56.1583C58.3178 56.0829 58.3801 56.0192 58.4544 55.972Z" fill="#4CAF4F"/>
<path d="M72.366 47.9191L77.2351 45.08C77.381 44.9952 77.4963 45.0562 77.4963 45.2123C77.4906 45.3002 77.4638 45.3855 77.4184 45.461C77.3729 45.5366 77.3101 45.6001 77.2351 45.6464L72.366 48.4721C72.2201 48.5569 72.1047 48.4958 72.1047 48.3398C72.1131 48.2543 72.141 48.1719 72.1863 48.099C72.2316 48.0261 72.2931 47.9645 72.366 47.9191Z" fill="#4CAF4F"/>
<path d="M60.6429 47.858L77.235 38.2923C77.3809 38.2109 77.4963 38.2686 77.4963 38.4246C77.4905 38.513 77.4638 38.5988 77.4183 38.6749C77.3729 38.7509 77.3101 38.8151 77.235 38.8622L60.6429 48.4279C60.5004 48.5093 60.3816 48.4517 60.3816 48.2922C60.3887 48.2046 60.416 48.1198 60.4613 48.0445C60.5066 47.9692 60.5688 47.9054 60.6429 47.858Z" fill="#4CAF4F"/>
<path d="M56.4795 52.6103L77.235 40.5616C77.3809 40.4802 77.4962 40.5379 77.4962 40.6939C77.4904 40.7823 77.4637 40.8681 77.4183 40.9442C77.3729 41.0202 77.31 41.0844 77.235 41.1315L56.4795 53.1768C56.337 53.2616 56.2183 53.2006 56.2183 53.0445C56.2248 52.9568 56.2519 52.8718 56.2973 52.7964C56.3427 52.721 56.4051 52.6573 56.4795 52.6103Z" fill="#4CAF4F"/>
<path d="M57.4569 54.2759L71.3481 46.2367C71.4906 46.1553 71.6094 46.2129 71.6094 46.369C71.6028 46.4572 71.5758 46.5426 71.5304 46.6186C71.4851 46.6945 71.4227 46.7589 71.3481 46.8065L57.4671 54.8458C57.3212 54.9272 57.2058 54.8696 57.2058 54.7135C57.2105 54.626 57.2356 54.5408 57.2792 54.4648C57.3229 54.3888 57.3837 54.3241 57.4569 54.2759Z" fill="#E8F5E9"/>
<path d="M56.4795 50.2562L59.2245 48.6721C59.367 48.5873 59.4858 48.6484 59.4858 48.8044C59.4792 48.8922 59.4521 48.9771 59.4068 49.0525C59.3614 49.1279 59.299 49.1917 59.2245 49.2386L56.4795 50.8227C56.337 50.9075 56.2183 50.8465 56.2183 50.6904C56.224 50.6025 56.2508 50.5172 56.2962 50.4416C56.3417 50.3661 56.4045 50.3025 56.4795 50.2562Z" fill="#4CAF4F"/>
<path d="M54.2232 35.6941L66.2279 28.7606C66.3738 28.6758 66.4925 28.7369 66.4925 28.8929C66.4861 28.9811 66.4588 29.0665 66.4127 29.142C66.3667 29.2175 66.3033 29.281 66.2279 29.3271L54.2232 36.2606C54.0773 36.3454 53.9619 36.2843 53.9619 36.1283C53.9677 36.0403 53.9944 35.955 54.0399 35.8795C54.0853 35.804 54.1482 35.7404 54.2232 35.6941Z" fill="#4CAF4F"/>
<path opacity="0.6" d="M54.2232 35.6941L66.2279 28.7606C66.3738 28.6758 66.4925 28.7369 66.4925 28.8929C66.4861 28.9811 66.4588 29.0665 66.4127 29.142C66.3667 29.2175 66.3033 29.281 66.2279 29.3271L54.2232 36.2606C54.0773 36.3454 53.9619 36.2843 53.9619 36.1283C53.9677 36.0403 53.9944 35.955 54.0399 35.8795C54.0853 35.804 54.1482 35.7404 54.2232 35.6941Z" fill="white"/>
<path d="M54.2232 37.9565L56.6492 36.5556C56.7917 36.4708 56.9105 36.5285 56.9105 36.6879C56.9034 36.7755 56.8761 36.8603 56.8308 36.9356C56.7855 37.0109 56.7233 37.0748 56.6492 37.1221L54.2232 38.523C54.0773 38.6078 53.9619 38.5468 53.9619 38.3907C53.9677 38.3028 53.9944 38.2175 54.0399 38.142C54.0853 38.0664 54.1482 38.0029 54.2232 37.9565Z" fill="#4CAF4F"/>
<path opacity="0.6" d="M54.2232 37.9565L56.6492 36.5556C56.7917 36.4708 56.9105 36.5285 56.9105 36.6879C56.9034 36.7755 56.8761 36.8603 56.8308 36.9356C56.7855 37.0109 56.7233 37.0748 56.6492 37.1221L54.2232 38.523C54.0773 38.6078 53.9619 38.5468 53.9619 38.3907C53.9677 38.3028 53.9944 38.2175 54.0399 38.142C54.0853 38.0664 54.1482 38.0029 54.2232 37.9565Z" fill="white"/>
<path d="M54.2232 40.2293L56.6492 38.8284C56.7917 38.7436 56.9105 38.8046 56.9105 38.9607C56.9034 39.0483 56.8761 39.1331 56.8308 39.2084C56.7855 39.2837 56.7233 39.3475 56.6492 39.3949L54.2232 40.7958C54.0773 40.8806 53.9619 40.8195 53.9619 40.6635C53.9677 40.5755 53.9944 40.4902 54.0399 40.4147C54.0853 40.3392 54.1482 40.2756 54.2232 40.2293Z" fill="#4CAF4F"/>
<path opacity="0.6" d="M54.2232 40.2293L56.6492 38.8284C56.7917 38.7436 56.9105 38.8046 56.9105 38.9607C56.9034 39.0483 56.8761 39.1331 56.8308 39.2084C56.7855 39.2837 56.7233 39.3475 56.6492 39.3949L54.2232 40.7958C54.0773 40.8806 53.9619 40.8195 53.9619 40.6635C53.9677 40.5755 53.9944 40.4902 54.0399 40.4147C54.0853 40.3392 54.1482 40.2756 54.2232 40.2293Z" fill="white"/>
<path d="M54.2232 42.4986L56.6492 41.0977C56.7917 41.0129 56.9105 41.0739 56.9105 41.23C56.9034 41.3176 56.8761 41.4023 56.8308 41.4777C56.7855 41.553 56.7233 41.6168 56.6492 41.6641L54.2232 43.0651C54.0773 43.1499 53.9619 43.0888 53.9619 42.9328C53.9682 42.845 53.9952 42.7599 54.0406 42.6844C54.086 42.609 54.1485 42.5453 54.2232 42.4986Z" fill="#4CAF4F"/>
<path opacity="0.6" d="M54.2232 42.4986L56.6492 41.0977C56.7917 41.0129 56.9105 41.0739 56.9105 41.23C56.9034 41.3176 56.8761 41.4023 56.8308 41.4777C56.7855 41.553 56.7233 41.6168 56.6492 41.6641L54.2232 43.0651C54.0773 43.1499 53.9619 43.0888 53.9619 42.9328C53.9682 42.845 53.9952 42.7599 54.0406 42.6844C54.086 42.609 54.1485 42.5453 54.2232 42.4986Z" fill="white"/>
<path d="M54.2232 44.7679L56.6492 43.3669C56.7917 43.2821 56.9105 43.3432 56.9105 43.4992C56.9034 43.5869 56.8761 43.6716 56.8308 43.747C56.7855 43.8223 56.7233 43.8861 56.6492 43.9334L54.2232 45.3344C54.0773 45.4192 53.9619 45.3581 53.9619 45.2021C53.9682 45.1143 53.9952 45.0292 54.0406 44.9537C54.086 44.8783 54.1485 44.8146 54.2232 44.7679Z" fill="#4CAF4F"/>
<path opacity="0.6" d="M54.2232 44.7679L56.6492 43.3669C56.7917 43.2821 56.9105 43.3432 56.9105 43.4992C56.9034 43.5869 56.8761 43.6716 56.8308 43.747C56.7855 43.8223 56.7233 43.8861 56.6492 43.9334L54.2232 45.3344C54.0773 45.4192 53.9619 45.3581 53.9619 45.2021C53.9682 45.1143 53.9952 45.0292 54.0406 44.9537C54.086 44.8783 54.1485 44.8146 54.2232 44.7679Z" fill="white"/>
<path d="M58.1558 58.4651L68.8779 52.278C69.0238 52.1932 69.1392 52.2542 69.1392 52.4102C69.1329 52.4981 69.1059 52.5831 69.0605 52.6586C69.0151 52.734 68.9525 52.7977 68.8779 52.8444L58.1558 59.0316C58.0099 59.1164 57.8945 59.0554 57.8945 58.8993C57.9003 58.8114 57.927 58.7261 57.9725 58.6506C58.0179 58.575 58.0808 58.5115 58.1558 58.4651Z" fill="#C8E6C9"/>
<path d="M58.1558 60.7346L68.8779 54.5474C69.0238 54.4626 69.1392 54.5236 69.1392 54.6797C69.1334 54.7676 69.1067 54.8529 69.0612 54.9284C69.0158 55.004 68.9529 55.0675 68.8779 55.1138L58.1558 61.301C58.0099 61.3858 57.8945 61.3248 57.8945 61.1687C57.9009 61.0809 57.9278 60.9958 57.9732 60.9204C58.0186 60.845 58.0812 60.7813 58.1558 60.7346Z" fill="#C8E6C9"/>
<path d="M70.4388 51.3757L77.1774 47.4985C77.3233 47.4171 77.4387 47.4748 77.4387 47.6308C77.4329 47.7192 77.4062 47.805 77.3607 47.881C77.3153 47.9571 77.2525 48.0213 77.1774 48.0684L70.4388 51.9422C70.2962 52.027 70.1775 51.9659 70.1775 51.8099C70.1841 51.7221 70.2111 51.6371 70.2565 51.5617C70.3019 51.4863 70.3643 51.4226 70.4388 51.3757Z" fill="#C8E6C9"/>
<path d="M70.4388 53.645L77.1774 49.7678C77.3233 49.6864 77.4387 49.7441 77.4387 49.9035C77.4323 49.9913 77.4054 50.0764 77.36 50.1518C77.3146 50.2273 77.252 50.291 77.1774 50.3377L70.4388 54.2115C70.2962 54.2963 70.1775 54.2352 70.1775 54.0792C70.1846 53.9915 70.2119 53.9068 70.2572 53.8314C70.3025 53.7561 70.3647 53.6923 70.4388 53.645Z" fill="#C8E6C9"/>
<path d="M54.2232 60.7346L56.6492 59.3336C56.7917 59.2488 56.9105 59.3099 56.9105 59.4659C56.9039 59.5537 56.8768 59.6386 56.8315 59.714C56.7861 59.7895 56.7237 59.8532 56.6492 59.9001L54.2232 61.301C54.0773 61.3858 53.9619 61.3282 53.9619 61.1687C53.9682 61.0809 53.9952 60.9959 54.0406 60.9204C54.086 60.845 54.1485 60.7813 54.2232 60.7346Z" fill="#4CAF4F"/>
<path opacity="0.6" d="M54.2232 60.7346L56.6492 59.3336C56.7917 59.2488 56.9105 59.3099 56.9105 59.4659C56.9039 59.5537 56.8768 59.6386 56.8315 59.714C56.7861 59.7895 56.7237 59.8532 56.6492 59.9001L54.2232 61.301C54.0773 61.3858 53.9619 61.3282 53.9619 61.1687C53.9682 61.0809 53.9952 60.9959 54.0406 60.9204C54.086 60.845 54.1485 60.7813 54.2232 60.7346Z" fill="white"/>
<path d="M54.2232 63.0038L56.6492 61.6029C56.7917 61.5215 56.9105 61.5791 56.9105 61.7352C56.9039 61.8229 56.8768 61.9079 56.8315 61.9833C56.7861 62.0587 56.7237 62.1224 56.6492 62.1694L54.2232 63.5737C54.0773 63.6551 53.9619 63.5974 53.9619 63.4414C53.9677 63.353 53.9944 63.2672 54.0398 63.1912C54.0853 63.1151 54.1481 63.0509 54.2232 63.0038Z" fill="#4CAF4F"/>
<path opacity="0.6" d="M54.2232 63.0038L56.6492 61.6029C56.7917 61.5215 56.9105 61.5791 56.9105 61.7352C56.9039 61.8229 56.8768 61.9079 56.8315 61.9833C56.7861 62.0587 56.7237 62.1224 56.6492 62.1694L54.2232 63.5737C54.0773 63.6551 53.9619 63.5974 53.9619 63.4414C53.9677 63.353 53.9944 63.2672 54.0398 63.1912C54.0853 63.1151 54.1481 63.0509 54.2232 63.0038Z" fill="white"/>
<path d="M67.2459 28.1738L70.3539 26.3861C70.4964 26.3013 70.6152 26.3624 70.6152 26.5184C70.6086 26.6062 70.5815 26.6911 70.5362 26.7665C70.4908 26.8419 70.4284 26.9057 70.3539 26.9526L67.2459 28.7402C67.1 28.825 66.9812 28.7674 66.9812 28.6079C66.9882 28.5199 67.0157 28.4347 67.0617 28.3593C67.1077 28.2839 67.1708 28.2203 67.2459 28.1738Z" fill="#4CAF4F"/>
<path opacity="0.6" d="M67.2459 28.1738L70.3539 26.3861C70.4964 26.3013 70.6152 26.3624 70.6152 26.5184C70.6086 26.6062 70.5815 26.6911 70.5362 26.7665C70.4908 26.8419 70.4284 26.9057 70.3539 26.9526L67.2459 28.7402C67.1 28.825 66.9812 28.7674 66.9812 28.6079C66.9882 28.5199 67.0157 28.4347 67.0617 28.3593C67.1077 28.2839 67.1708 28.2203 67.2459 28.1738Z" fill="white"/>
<path d="M57.9693 44.8562L73.1126 36.1283C73.2551 36.0435 73.3738 36.1046 73.3738 36.2606C73.3672 36.3483 73.3402 36.4333 73.2948 36.5087C73.2494 36.5841 73.187 36.6478 73.1126 36.6948L57.9693 45.4193C57.8268 45.5041 57.708 45.443 57.708 45.287C57.7151 45.1998 57.7424 45.1155 57.7878 45.0407C57.8331 44.966 57.8953 44.9028 57.9693 44.8562Z" fill="#E8F5E9"/>
<path d="M54.2232 49.3439L77.235 36.0265C77.3809 35.9417 77.4963 36.0027 77.4963 36.1588C77.4905 36.2467 77.4638 36.332 77.4183 36.4076C77.3729 36.4831 77.31 36.5467 77.235 36.593L54.2232 49.9104C54.0773 49.9952 53.9619 49.9341 53.9619 49.7781C53.9677 49.6901 53.9944 49.6048 54.0399 49.5293C54.0853 49.4538 54.1482 49.3902 54.2232 49.3439Z" fill="#E8F5E9"/>
<path d="M74.127 35.5414L77.235 33.7538C77.3809 33.669 77.4963 33.73 77.4963 33.8861C77.4905 33.974 77.4638 34.0593 77.4184 34.1349C77.3729 34.2104 77.3101 34.274 77.235 34.3203L74.127 36.1113C73.9811 36.1927 73.8657 36.135 73.8657 35.9756C73.872 35.8878 73.899 35.8027 73.9444 35.7273C73.9898 35.6518 74.0524 35.5882 74.127 35.5414Z" fill="#E8F5E9"/>
<path d="M58.1558 35.6907L70.1605 28.7572C70.3064 28.6724 70.4251 28.7335 70.4251 28.8895C70.4182 28.9775 70.3906 29.0627 70.3446 29.1382C70.2986 29.2136 70.2356 29.2771 70.1605 29.3237L58.1558 36.2605C58.0099 36.3453 57.8911 36.2843 57.8911 36.1282C57.897 36.0395 57.9241 35.9534 57.9702 35.8772C58.0162 35.8011 58.0799 35.7371 58.1558 35.6907Z" fill="#4CAF4F"/>
<path opacity="0.6" d="M58.1558 35.6907L70.1605 28.7572C70.3064 28.6724 70.4251 28.7335 70.4251 28.8895C70.4182 28.9775 70.3906 29.0627 70.3446 29.1382C70.2986 29.2136 70.2356 29.2771 70.1605 29.3237L58.1558 36.2605C58.0099 36.3453 57.8911 36.2843 57.8911 36.1282C57.897 36.0395 57.9241 35.9534 57.9702 35.8772C58.0162 35.8011 58.0799 35.7371 58.1558 35.6907Z" fill="white"/>
<path d="M71.1785 28.1704L74.2865 26.3828C74.429 26.298 74.5478 26.3556 74.5478 26.515C74.5407 26.6027 74.5134 26.6874 74.4681 26.7628C74.4228 26.8381 74.3606 26.9019 74.2865 26.9492L71.1785 28.7369C71.0326 28.8217 70.9138 28.7606 70.9138 28.6046C70.9208 28.5165 70.9484 28.4314 70.9943 28.3559C71.0403 28.2805 71.1034 28.2169 71.1785 28.1704Z" fill="#4CAF4F"/>
<path opacity="0.6" d="M71.1785 28.1704L74.2865 26.3828C74.429 26.298 74.5478 26.3556 74.5478 26.515C74.5407 26.6027 74.5134 26.6874 74.4681 26.7628C74.4228 26.8381 74.3606 26.9019 74.2865 26.9492L71.1785 28.7369C71.0326 28.8217 70.9138 28.7606 70.9138 28.6046C70.9208 28.5165 70.9484 28.4314 70.9943 28.3559C71.0403 28.2805 71.1034 28.2169 71.1785 28.1704Z" fill="white"/>
<path d="M17.9408 76.5757L8.23664 82.1726C8.12265 82.2469 8.02787 82.3471 7.96005 82.465C7.89223 82.5829 7.85329 82.7152 7.84644 82.851V94.564C7.85247 94.7 7.89105 94.8326 7.95895 94.9507C8.02685 95.0687 8.12207 95.1687 8.23664 95.2424L8.97633 95.6596C9.09732 95.7207 9.23098 95.7526 9.36653 95.7526C9.50209 95.7526 9.63575 95.7207 9.75674 95.6596L19.4745 90.0626C19.5885 89.9884 19.6833 89.8882 19.7511 89.7703C19.8189 89.6524 19.8579 89.5201 19.8647 89.3842V77.6442C19.8583 77.5078 19.8192 77.375 19.7507 77.257C19.6822 77.1389 19.5863 77.039 19.4711 76.9657L18.7348 76.5485C18.6099 76.4893 18.4727 76.4609 18.3345 76.4656C18.1964 76.4703 18.0614 76.5081 17.9408 76.5757Z" fill="#4CAF4F"/>
<path opacity="0.2" d="M9.74317 95.6392C9.62165 95.6986 9.4882 95.7294 9.35296 95.7294C9.21773 95.7294 9.08427 95.6986 8.96276 95.6392L8.23664 95.222C8.12148 95.149 8.0258 95.0491 7.95782 94.9309C7.88985 94.8128 7.85162 94.6798 7.84644 94.5436V82.8443C7.85317 82.7033 7.89644 82.5666 7.97198 82.4474L9.4819 83.3225C9.4109 83.4382 9.37115 83.5703 9.36654 83.7059V95.4154C9.35296 95.6427 9.51244 95.7715 9.74317 95.6392Z" fill="#103E13"/>
<path opacity="0.5" d="M19.8444 77.5899C19.8139 77.3931 19.6544 77.3219 19.461 77.4338L9.74323 83.0342C9.62811 83.1048 9.53338 83.2042 9.46839 83.3225L7.95508 82.4474C8.01992 82.3347 8.11211 82.2402 8.22313 82.1726L17.9409 76.5756C18.0619 76.5145 18.1955 76.4827 18.3311 76.4827C18.4667 76.4827 18.6003 76.5145 18.7213 76.5756L19.4576 76.9928C19.5609 77.0591 19.6488 77.1466 19.7155 77.2496C19.7822 77.3525 19.8262 77.4686 19.8444 77.5899Z" fill="white"/>
<path d="M19.461 77.4338L9.74323 83.0342C9.62905 83.1083 9.53412 83.2084 9.46628 83.3264C9.39843 83.4443 9.35961 83.5767 9.35303 83.7126V95.4221C9.35303 95.6698 9.52947 95.7614 9.74323 95.646L19.461 90.0491C19.5745 89.9746 19.6688 89.8743 19.7361 89.7564C19.8033 89.6385 19.8416 89.5062 19.8478 89.3706V77.6442C19.8478 77.4101 19.6748 77.3049 19.461 77.4338Z" fill="#4CAF4F"/>
<path d="M9.99773 89.0959C9.99539 89.0137 10.0092 88.9319 10.0384 88.8551C10.0747 88.7764 10.1167 88.7004 10.164 88.6278L12.4543 84.9236C12.4653 84.9078 12.4778 84.893 12.4916 84.8795L12.5188 84.8592C12.5305 84.8489 12.5456 84.8433 12.5612 84.8433C12.5768 84.8433 12.5919 84.8489 12.6036 84.8592C12.6164 84.8747 12.6259 84.8926 12.6317 84.9118C12.6375 84.931 12.6395 84.9511 12.6375 84.9711V86.4026C12.6411 86.5059 12.619 86.6085 12.5731 86.7011C12.5374 86.7679 12.4978 86.8324 12.4543 86.8944L11.4364 88.4345L12.4543 88.8279C12.4961 88.8408 12.536 88.8591 12.5731 88.8822C12.6172 88.9093 12.6375 88.984 12.6375 89.1027V90.5342C12.6383 90.587 12.6267 90.6393 12.6036 90.6868C12.5857 90.7282 12.5563 90.7635 12.5188 90.7886H12.4916C12.4794 90.7921 12.4665 90.7921 12.4543 90.7886L10.164 89.7302C10.1163 89.7118 10.0734 89.6828 10.0384 89.6454C10.0052 89.588 9.99098 89.5215 9.99773 89.4555V89.0959Z" fill="white"/>
<path d="M14.9956 82.8137C15.0154 82.734 15.0439 82.6566 15.0805 82.5831C15.1161 82.5075 15.1742 82.4447 15.2467 82.4033L16.0136 81.9589C16.0264 81.9482 16.0426 81.9423 16.0594 81.9423C16.0761 81.9423 16.0923 81.9482 16.1052 81.9589C16.1188 81.9747 16.1291 81.993 16.1355 82.0128C16.1419 82.0326 16.1443 82.0535 16.1425 82.0743C16.145 82.1025 16.145 82.1308 16.1425 82.1591L14.2051 90.4154C14.1879 90.4933 14.1605 90.5686 14.1236 90.6393C14.088 90.7178 14.0287 90.783 13.954 90.8259L13.2007 91.2601C13.1884 91.2706 13.1728 91.2764 13.1566 91.2764C13.1404 91.2764 13.1248 91.2706 13.1125 91.2601C13.0989 91.2443 13.0886 91.226 13.0822 91.2062C13.0757 91.1864 13.0734 91.1655 13.0752 91.1447C13.071 91.1166 13.071 91.088 13.0752 91.0599L14.9956 82.8137Z" fill="white"/>
<path d="M19.2066 84.1502C19.2083 84.2323 19.1945 84.314 19.1659 84.391C19.1288 84.4682 19.0869 84.543 19.0403 84.6149L16.7466 88.3191C16.7375 88.3353 16.726 88.3501 16.7127 88.3632L16.6856 88.3835C16.6516 88.4039 16.6211 88.4039 16.6007 88.3835C16.5878 88.3681 16.5782 88.3502 16.5723 88.331C16.5665 88.3118 16.5646 88.2916 16.5668 88.2716V86.8435C16.5625 86.7412 16.5847 86.6396 16.6313 86.5484C16.6754 86.4704 16.7127 86.4059 16.7466 86.355L17.7645 84.8082L16.7466 84.4249C16.7053 84.4106 16.6664 84.39 16.6313 84.3639C16.5872 84.3333 16.5668 84.2587 16.5668 84.1434V82.7119C16.5661 82.6591 16.5777 82.6068 16.6007 82.5593C16.6175 82.5172 16.6472 82.4816 16.6856 82.4575H16.7127H16.7466L19.0403 83.5159C19.088 83.5343 19.131 83.5633 19.1659 83.6007C19.1977 83.6587 19.2118 83.7247 19.2066 83.7906V84.1502Z" fill="white"/>
<path d="M122.208 116.747C122.449 117.222 122.557 117.753 122.52 118.284C122.497 118.748 122.218 119.352 122.344 120.4C122.47 121.448 122.71 121.781 122.822 122.52C122.888 122.86 122.886 123.209 122.815 123.547C122.745 123.885 122.608 124.206 122.412 124.491C121.978 125.197 121.021 125.756 119.127 125.689C117.6 125.634 116.983 124.851 116.949 123.952L122.208 116.747Z" fill="#263238"/>
<path d="M121.774 114.583C121.821 114.778 121.851 114.976 121.865 115.176C121.923 115.533 122.028 115.855 122.113 116.218C122.137 116.309 122.157 116.401 122.177 116.493C122.323 117.195 122.177 117.921 122.177 118.636C122.236 119.482 122.385 120.319 122.622 121.133C122.961 122.619 123.019 123.613 121.719 124.64C121.041 125.183 120.284 125.2 119.416 125.224C118.748 125.247 118.086 125.088 117.502 124.763C116.945 124.352 116.952 124.006 116.949 123.874C116.898 122.296 117.468 120.461 117.583 118.887C117.626 118.464 117.635 118.037 117.61 117.612C117.556 117.09 117.376 116.571 117.319 116.045C117.278 115.849 117.303 115.645 117.39 115.465C117.478 115.365 117.586 115.285 117.707 115.231C117.828 115.177 117.959 115.149 118.092 115.149C118.771 115.058 119.477 114.99 120.172 114.939C120.336 114.908 120.505 114.942 120.644 115.034C120.78 115.156 120.783 115.373 120.82 115.539C120.858 115.706 120.987 115.919 121.16 115.879C121.217 115.86 121.267 115.825 121.305 115.778C121.342 115.731 121.365 115.674 121.37 115.614C121.387 115.499 121.438 114.596 121.434 114.464C121.448 114.471 121.692 114.434 121.774 114.583Z" fill="#37474F"/>
<path d="M98.796 119.817C98.6842 120.095 98.6842 120.407 98.796 120.685C98.9079 120.943 100.201 121.744 101.989 121.703C103.312 121.661 104.6 121.267 105.721 120.563C106.417 120.139 107.129 120.085 108.015 120.068C108.901 120.051 109.939 119.729 110.241 119.332C110.354 118.943 110.354 118.53 110.241 118.141L98.796 119.817Z" fill="#263238"/>
<path d="M105.27 114.535C105.201 114.663 105.14 114.794 105.087 114.929C104.868 115.414 104.529 115.835 104.103 116.153C103.486 116.58 102.824 116.937 102.128 117.218C101.687 117.415 101.226 117.469 100.771 117.626C100.267 117.787 99.7812 118 99.322 118.263C98.6027 118.704 98.4669 119.888 99.244 120.39C99.9226 120.821 101.711 121.333 103.631 120.872C104.68 120.621 105.871 119.559 107.235 119.515C108.1 119.484 109.746 119.308 110.329 118.674C110.543 117.727 110.309 117.459 110.115 116.638C110.012 116.184 109.957 115.72 109.952 115.254C109.952 115.01 110.115 114.308 109.613 114.237L109.562 114.763C109.562 114.763 109.464 114.939 108.928 115.034C108.755 115.064 108.619 115.292 108.527 115.499C108.436 115.706 108.378 115.865 108.188 115.862C108.129 115.853 108.073 115.829 108.026 115.793C107.979 115.756 107.942 115.707 107.92 115.651C107.879 115.541 107.846 115.427 107.822 115.312C107.753 115.127 107.645 114.96 107.505 114.821C107.365 114.682 107.196 114.575 107.011 114.508C106.703 114.404 106.384 114.337 106.061 114.308C105.816 114.271 105.613 114.166 105.382 114.376C105.338 114.424 105.3 114.478 105.27 114.535Z" fill="#37474F"/>
<path d="M119.192 74.1897C119.531 79.3694 119.711 82.385 120.637 96.5199C121.319 98.939 121.752 101.421 121.93 103.928C122.113 107.056 122.558 116.479 122.558 116.479C122.558 116.479 120.037 118.548 117.129 117.592C117.129 117.592 114.489 103.738 113.566 99.4167C112.684 95.2682 112.005 90.733 112.005 90.733L111.35 96.5199C111.35 96.5199 111.466 99.0945 111.384 102.938C111.344 104.993 110.366 116.119 110.366 116.119C110.366 116.119 106.827 117.727 104.439 115.661C104.439 115.661 104.266 97.6189 104.228 95.76C104.188 93.6366 104.568 72.2833 104.568 72.2833L119.192 74.1897Z" fill="#455A64"/>
<path d="M111.992 90.7364L110.183 81.2622C110.183 81.2622 107.387 81.018 105.843 79.4576C105.843 79.4576 106.118 80.9875 109.633 81.9033L111.381 90.6278L111.35 96.5199L111.992 90.7364Z" fill="#37474F"/>
<path d="M122.476 114.78C121.401 115.71 120.019 116.208 118.598 116.177C118.598 116.177 121.007 115.818 122.452 114.23L122.476 114.78Z" fill="#37474F"/>
<path d="M110.478 114.807C110.478 114.807 108.012 115.668 105.932 115.01C105.932 115.01 107.537 116.089 110.441 115.204L110.478 114.807Z" fill="#37474F"/>
<path d="M84.4604 54.9158C84.4429 54.8347 84.4082 54.7584 84.3586 54.6919C84.2724 54.5354 84.2288 54.359 84.2324 54.1804C84.236 54.0017 84.2865 53.8272 84.379 53.6743C84.439 53.5996 84.4891 53.5175 84.5283 53.43C84.5961 53.2435 84.5113 53.0332 84.5283 52.833C84.5893 51.9409 86.2044 52.331 86.7168 52.4938C86.8661 52.5447 87.7347 52.7686 88.074 52.8873C88.0437 52.3977 88.0918 51.9065 88.2165 51.4321C88.4473 50.506 89.2107 50.601 89.2548 51.1675C89.2968 51.6804 89.3923 52.1874 89.5398 52.6804C89.6348 53.0433 89.8791 53.4029 90.0183 53.9389C90.2185 54.6173 90.1676 54.9972 90.8462 55.6349C91.8641 56.5949 97.0894 60.1362 97.0894 60.1362C98.3924 59.2984 103.434 56.198 105.324 55.1736C107.153 54.1797 108.086 54.9802 108.086 54.9802L106.492 60.852C106.492 60.852 100.204 64.0948 97.9377 65.0853C96.3565 65.7637 95.6576 65.3838 93.9135 63.8302C92.5291 62.5209 90.7037 60.6281 88.7323 58.8845C87.9451 58.1858 87.3751 57.8296 86.8186 57.8025C86.6082 57.8025 86.3979 57.7787 86.1909 57.7584C85.7226 57.7041 85.1729 57.5888 84.9456 57.124C84.8676 56.968 84.8302 56.7848 84.7658 56.6288C84.6674 56.3778 84.5113 56.1539 84.4265 55.9029C84.3566 55.7346 84.3331 55.5507 84.3586 55.3703C84.3586 55.2245 84.4808 55.0786 84.4604 54.9158Z" fill="#E8F5E9"/>
<path d="M108.419 54.5292C106.81 54.5292 106.186 54.5292 104.144 55.6893C102.101 56.8494 98.1174 59.485 98.1174 59.485C98.1174 59.485 99.9022 60.4789 100.258 64.0067L106.705 60.9809L108.419 54.5292Z" fill="#455A64"/>
<path d="M87.453 53.4268C87.9857 53.5557 88.152 53.8915 88.1893 54.6411C88.2097 55.0855 88.3963 55.8962 88.9019 56.1913C88.6678 56.1829 88.4418 56.1036 88.2538 55.964C88.0095 55.7436 87.945 55.7232 87.8263 55.8657C87.7385 55.9613 87.6291 56.0346 87.5073 56.0794C87.5946 56.1668 87.6514 56.28 87.6691 56.4023C87.6868 56.5245 87.6646 56.6492 87.6057 56.7578C87.3987 57.1581 86.3571 57.2361 85.4749 56.8528C85.4749 56.8528 86.8898 57.192 87.1714 56.7307C87.453 56.2693 86.693 55.7673 86.1535 55.6554C86.1535 55.6554 87.5107 55.8826 87.6871 55.4315C87.8636 54.9803 87.2868 54.6852 86.486 54.5394C86.486 54.5394 87.6057 54.6649 87.7686 54.2748C87.8295 54.1194 87.8311 53.947 87.7729 53.7905C87.7146 53.634 87.6008 53.5045 87.453 53.4268Z" fill="#C8E6C9"/>
<path d="M97.0757 60.1465C97.7816 60.6178 98.3282 61.2919 98.6433 62.08C98.6433 62.08 98.7552 60.5908 97.5303 59.8582L97.0757 60.1465Z" fill="#C8E6C9"/>
<path d="M104.374 60.3296C104.574 56.3371 106.183 54.7259 108.419 54.5292L113.444 54.1899C114.801 54.5054 118.33 55.1838 118.33 55.1838C119.792 55.6214 120.82 59.4341 120.478 61.6051C120.135 63.776 119.419 65.4314 119.219 69.0847C119.277 72.5446 119.328 73.2298 119.328 74.5866C116.203 76.571 107.808 76.9849 104.507 74.9937C104.507 74.9937 104.449 71.6491 104.381 69.5188C104.266 65.8656 104.306 61.7034 104.374 60.3296Z" fill="#4CAF4F"/>
<path d="M105.694 43.3929C105.492 43.5082 105.325 43.6759 105.21 43.8783C105.096 44.0807 105.038 44.3103 105.043 44.5428C105.035 44.8911 105.134 45.2334 105.328 45.5231C105.62 45.8927 106.025 46.157 106.481 46.2762C106.678 46.3232 106.87 46.3879 107.055 46.4695C107.285 46.6337 107.501 46.8176 107.699 47.019C108.008 47.2565 108.314 47.5007 108.629 47.7314C109.255 48.1985 109.909 48.6267 110.587 49.0136C111.239 49.3866 111.92 49.7065 112.623 49.9702C113.366 50.2449 113.98 50.0041 114.774 50.0753L114.659 52.2259C114.659 52.2259 114.923 51.7307 115.225 51.1404C115.487 50.6316 116.583 48.0401 116.583 48.0401C117.01 47.0224 117.553 45.9573 117.488 44.821C117.434 43.9017 117.251 43.0944 116.552 42.7043C116.494 41.646 116.253 41.1304 115.51 40.5639C114.962 40.1932 114.332 39.9605 113.675 39.8855C112.932 39.7997 112.18 39.826 111.445 39.9635C110.346 40.1399 109.247 40.4214 108.134 40.3637C107.539 40.3004 106.938 40.3382 106.356 40.4757C105.986 40.5956 105.665 40.8318 105.441 41.1491C105.216 41.4664 105.1 41.8477 105.111 42.2362C105.087 42.6398 105.409 43.3047 105.694 43.3929Z" fill="#37474F"/>
<path d="M112.657 43.6676C112.657 44.3461 113.281 45.306 114.231 46.1337C114.119 46.7615 114.136 47.4056 114.282 48.0265C114.34 48.2195 114.43 48.4016 114.547 48.5658C114.59 48.6346 114.648 48.6928 114.717 48.7362C114.786 48.7796 114.863 48.8072 114.944 48.8169C115.164 48.8169 115.253 48.7015 115.32 48.5285C115.421 48.3093 115.534 48.0964 115.66 47.8908C115.716 47.803 115.781 47.7212 115.853 47.6466C116.192 47.3379 117.173 46.9682 117.631 48.0129C118.089 49.0577 117.231 50.5367 116.437 50.7571C115.08 51.1404 114.771 50.2076 114.771 50.2076L114.794 54.7327C114.411 55.8792 112.287 56.9952 110.577 56.7679C108.867 56.5407 109.41 55.5095 110.105 54.8107L110.017 53.2402C109.408 53.3005 108.794 53.2777 108.192 53.1723C107.482 53.0366 106.899 52.3718 106.604 51.2897C106.133 49.2281 106.064 47.0953 106.4 45.0075C106.658 43.7321 106.973 43.1826 107.126 43.0333C107.126 43.3115 107.659 44.1629 109.04 44.3529C110.499 44.5632 111.605 44.1018 112.657 43.6676Z" fill="#E8F5E9"/>
<path d="M110.01 53.2469C111.272 53.1316 112.297 52.9586 113.01 52.5685C113.532 52.2937 113.984 51.4355 114.119 51.1302C114.119 51.1302 114.085 52.3039 113.383 52.9552C112.392 53.8745 110.048 53.8745 110.048 53.8745L110.01 53.2469Z" fill="#C8E6C9"/>
<path d="M110.672 47.4871C110.673 47.5768 110.7 47.6643 110.75 47.7388C110.8 47.8132 110.871 47.8714 110.953 47.9059C111.036 47.9405 111.127 47.95 111.215 47.9333C111.303 47.9166 111.385 47.8744 111.449 47.8119C111.513 47.7494 111.558 47.6694 111.577 47.5818C111.597 47.4942 111.59 47.4029 111.558 47.3191C111.525 47.2354 111.469 47.163 111.396 47.1108C111.323 47.0587 111.237 47.0291 111.147 47.0258C111.085 47.0249 111.024 47.0361 110.967 47.0588C110.91 47.0815 110.858 47.1153 110.814 47.1581C110.77 47.2009 110.734 47.252 110.71 47.3085C110.686 47.365 110.673 47.4257 110.672 47.4871Z" fill="#263238"/>
<path d="M110.838 45.9912L111.948 46.4491C112.005 46.2977 112.002 46.1298 111.939 45.9806C111.876 45.8314 111.757 45.7124 111.608 45.6486C111.535 45.6187 111.457 45.604 111.379 45.6052C111.3 45.6064 111.222 45.6235 111.15 45.6555C111.078 45.6875 111.013 45.7337 110.96 45.7914C110.906 45.8491 110.865 45.9171 110.838 45.9912Z" fill="#263238"/>
<path d="M111.272 49.9565L109.576 50.635C109.616 50.7487 109.679 50.8531 109.761 50.9419C109.842 51.0306 109.941 51.1019 110.051 51.1513C110.161 51.2008 110.28 51.2274 110.401 51.2296C110.522 51.2318 110.642 51.2096 110.753 51.1641C110.978 51.0679 111.158 50.8889 111.254 50.6641C111.351 50.4393 111.358 50.186 111.272 49.9565Z" fill="#388E3B"/>
<path d="M110.285 51.1472C110.284 51.1755 110.284 51.2038 110.285 51.232C110.444 51.2577 110.608 51.2389 110.757 51.1777C110.928 51.1046 111.073 50.9824 111.175 50.8266C111.276 50.6708 111.329 50.4885 111.327 50.3026C111.267 50.2891 111.205 50.2823 111.144 50.2822C110.915 50.284 110.697 50.3759 110.536 50.538C110.375 50.7 110.285 50.919 110.285 51.1472Z" fill="#C8E6C9"/>
<path d="M106.685 46.4219L107.781 45.9979C107.756 45.926 107.716 45.8599 107.665 45.8035C107.613 45.7472 107.551 45.7019 107.482 45.6702C107.412 45.6385 107.337 45.6212 107.261 45.6192C107.185 45.6172 107.109 45.6307 107.038 45.6587C106.89 45.7137 106.77 45.8247 106.704 45.9677C106.638 46.1107 106.631 46.2739 106.685 46.4219Z" fill="#263238"/>
<path d="M106.967 47.3887C106.963 47.4503 106.972 47.512 106.992 47.5702C107.013 47.6284 107.044 47.682 107.086 47.7278C107.127 47.7736 107.177 47.8107 107.233 47.8369C107.289 47.8631 107.349 47.878 107.411 47.8806C107.506 47.8873 107.601 47.8654 107.684 47.8177C107.767 47.77 107.833 47.6987 107.875 47.6129C107.917 47.5271 107.932 47.4308 107.919 47.3364C107.905 47.2419 107.864 47.1536 107.8 47.0828C107.736 47.012 107.652 46.962 107.56 46.9391C107.467 46.9162 107.37 46.9216 107.28 46.9545C107.19 46.9874 107.113 47.0463 107.057 47.1237C107.001 47.201 106.97 47.2933 106.967 47.3887Z" fill="#263238"/>
<path d="M109.403 49.7327L107.713 49.4139L109.308 46.7137L109.403 49.7327Z" fill="#C8E6C9"/>
<path d="M118.622 55.2653C120.736 55.6316 122.015 56.31 122.558 57.9789C123.328 60.3534 125.483 67.0799 125.927 69.4714C126.199 70.9402 126.623 71.8696 125.378 72.8363C122.41 74.9829 119.312 76.9428 116.101 78.7047C113.278 80.1836 109.016 80.4753 109.016 80.4753L112.107 78.6063L112.657 77.5581L120.919 70.2414L117.797 61.0217C117.797 61.0217 117.01 56.2829 118.622 55.2653Z" fill="#E8F5E9"/>
<path d="M120.919 70.2413C121.59 69.8955 122.335 69.7163 123.09 69.7189C123.09 69.7189 122.358 69.088 120.739 69.7189L120.919 70.2413Z" fill="#C8E6C9"/>
<path d="M118.33 55.1838C119.297 55.3636 120.366 55.4688 121.35 56.0929C122.334 56.7171 122.514 57.4735 123.27 59.8039C124.027 62.1343 124.919 65.5704 124.919 65.5704C124.919 65.5704 123.067 67.1376 119.877 67.1817C119.877 67.1817 118.306 62.8228 117.919 61.8527C117.533 60.8826 116.559 57.755 118.33 55.1838Z" fill="#455A64"/>
<path d="M114.923 76.1233V76.415C114.927 76.5588 114.892 76.701 114.823 76.8272C114.754 76.9534 114.653 77.0592 114.53 77.1341L106.828 81.8084C106.703 81.8785 106.562 81.9154 106.419 81.9154C106.275 81.9154 106.135 81.8785 106.01 81.8084L91.501 73.8641C91.3756 73.7938 91.2706 73.6921 91.1963 73.569C91.1219 73.4459 91.0808 73.3057 91.0769 73.162V72.9652L106.41 81.3708L114.923 76.1233Z" fill="#4CAF4F"/>
<g opacity="0.5">
<path opacity="0.5" d="M114.923 76.1233V76.415C114.927 76.5588 114.892 76.701 114.823 76.8272C114.754 76.9534 114.653 77.0592 114.53 77.1341L106.828 81.8084C106.703 81.8785 106.562 81.9154 106.419 81.9154C106.275 81.9154 106.135 81.8785 106.01 81.8084L91.501 73.8641C91.3756 73.7938 91.2706 73.6921 91.1963 73.569C91.1219 73.4459 91.0808 73.3057 91.0769 73.162V72.9652L106.41 81.3708L114.923 76.1233Z" fill="white"/>
</g>
<g opacity="0.1">
<path opacity="0.1" d="M114.923 76.1233V76.415C114.927 76.5588 114.892 76.701 114.823 76.8272C114.754 76.9534 114.653 77.0592 114.53 77.1341L106.828 81.8084C106.703 81.8785 106.562 81.9154 106.419 81.9154C106.275 81.9154 106.135 81.8785 106.01 81.8084L91.501 73.8641C91.3756 73.7938 91.2706 73.6921 91.1963 73.569C91.1219 73.4459 91.0808 73.3057 91.0769 73.162V72.9652L106.41 81.3708L114.923 76.1233Z" fill="#103E13"/>
</g>
<path d="M91.0735 72.9652L99.4578 67.8771C99.5322 67.8345 99.6164 67.8121 99.7021 67.8121C99.7878 67.8121 99.872 67.8345 99.9464 67.8771L114.876 76.0588C114.892 76.0684 114.905 76.0821 114.915 76.0984C114.924 76.1148 114.929 76.1333 114.929 76.1521C114.929 76.1709 114.924 76.1894 114.915 76.2057C114.905 76.2221 114.892 76.2357 114.876 76.2454L106.41 81.3844L91.0735 72.9652Z" fill="#4CAF4F"/>
<g opacity="0.85">
<path opacity="0.85" d="M91.0735 72.9652L99.4578 67.8771C99.5322 67.8345 99.6164 67.8121 99.7021 67.8121C99.7878 67.8121 99.872 67.8345 99.9464 67.8771L114.876 76.0588C114.892 76.0684 114.905 76.0821 114.915 76.0984C114.924 76.1148 114.929 76.1333 114.929 76.1521C114.929 76.1709 114.924 76.1894 114.915 76.2057C114.905 76.2221 114.892 76.2357 114.876 76.2454L106.41 81.3844L91.0735 72.9652Z" fill="white"/>
</g>
<path d="M106.335 80.5737L110.858 77.8295L97.4286 70.4686L92.8818 73.1993L106.335 80.5737Z" fill="#4CAF4F"/>
<g opacity="0.6">
<path opacity="0.6" d="M106.335 80.5737L110.858 77.8295L97.4286 70.4686L92.8818 73.1993L106.335 80.5737Z" fill="white"/>
</g>
<path d="M108.561 73.2501L108.476 73.301L106.261 74.6476L102.216 72.4292L102.131 72.3851L104.432 70.9875L108.561 73.2501Z" fill="#4CAF4F"/>
<path d="M108.477 73.3011L106.261 74.6478L102.216 72.4293L104.435 71.0861L108.477 73.3011Z" fill="#4CAF4F"/>
<g opacity="0.6">
<path opacity="0.6" d="M108.477 73.3011L106.261 74.6478L102.216 72.4293L104.435 71.0861L108.477 73.3011Z" fill="white"/>
</g>
<path d="M106.407 81.3708V81.9136C106.264 81.9182 106.122 81.8843 105.996 81.8152L91.501 73.8641C91.3756 73.7938 91.2706 73.6921 91.1963 73.569C91.1219 73.4459 91.0808 73.3057 91.0769 73.162V72.9652L106.407 81.3708Z" fill="#4CAF4F"/>
<g opacity="0.03">
<path opacity="0.03" d="M106.407 81.3708V81.9136C106.264 81.9182 106.122 81.8843 105.996 81.8152L91.501 73.8641C91.3756 73.7938 91.2706 73.6921 91.1963 73.569C91.1219 73.4459 91.0808 73.3057 91.0769 73.162V72.9652L106.407 81.3708Z" fill="white"/>
</g>
<g opacity="0.2">
<path opacity="0.2" d="M106.407 81.3708V81.9136C106.264 81.9182 106.122 81.8843 105.996 81.8152L91.501 73.8641C91.3756 73.7938 91.2706 73.6921 91.1963 73.569C91.1219 73.4459 91.0808 73.3057 91.0769 73.162V72.9652L106.407 81.3708Z" fill="#103E13"/>
</g>
<path d="M106.179 81.4962C106.045 81.5523 105.9 81.5771 105.755 81.5689C105.61 81.5607 105.468 81.5196 105.341 81.4488L90.9004 73.5316C90.774 73.4615 90.6646 73.3643 90.5802 73.2471C90.4957 73.1298 90.4382 72.9953 90.4118 72.8532L88.6474 63.5792C88.6426 63.5261 88.6426 63.4728 88.6474 63.4197C88.6441 63.2916 88.6664 63.1641 88.713 63.0447C88.7597 62.9253 88.8296 62.8164 88.9189 62.7244L103.909 70.9536C104.002 71.0035 104.083 71.0736 104.145 71.1587C104.207 71.2438 104.25 71.3418 104.269 71.4454L106.179 81.4962Z" fill="#4CAF4F"/>
<g opacity="0.4">
<path opacity="0.4" d="M106.179 81.4962C106.045 81.5523 105.9 81.5771 105.755 81.5689C105.61 81.5607 105.468 81.5196 105.341 81.4488L90.9004 73.5316C90.774 73.4615 90.6646 73.3643 90.5802 73.2471C90.4957 73.1298 90.4382 72.9953 90.4118 72.8532L88.6474 63.5792C88.6426 63.5261 88.6426 63.4728 88.6474 63.4197C88.6441 63.2916 88.6664 63.1641 88.713 63.0447C88.7597 62.9253 88.8296 62.8164 88.9189 62.7244L103.909 70.9536C104.002 71.0035 104.083 71.0736 104.145 71.1587C104.207 71.2438 104.25 71.3418 104.269 71.4454L106.179 81.4962Z" fill="white"/>
</g>
<path d="M106.407 81.3707L106.312 81.4284C106.269 81.4544 106.225 81.477 106.179 81.4963L104.269 71.459C104.25 71.3554 104.207 71.2574 104.145 71.1723C104.083 71.0872 104.002 71.0171 103.909 70.9672L88.9019 62.7379C88.9585 62.6769 89.0236 62.6244 89.0953 62.5819L104.137 70.8247C104.229 70.8763 104.309 70.9473 104.371 71.0328C104.433 71.1183 104.476 71.2163 104.496 71.32L106.407 81.3707Z" fill="#4CAF4F"/>
<g opacity="0.6">
<path opacity="0.6" d="M106.407 81.3707L106.312 81.4284C106.269 81.4544 106.225 81.477 106.179 81.4963L104.269 71.459C104.25 71.3554 104.207 71.2574 104.145 71.1723C104.083 71.0872 104.002 71.0171 103.909 70.9672L88.9019 62.7379C88.9585 62.6769 89.0236 62.6244 89.0953 62.5819L104.137 70.8247C104.229 70.8763 104.309 70.9473 104.371 71.0328C104.433 71.1183 104.476 71.2163 104.496 71.32L106.407 81.3707Z" fill="white"/>
</g>
<path d="M104.13 71.1539L104.354 71.0182C104.425 71.106 104.474 71.2095 104.496 71.3201L106.407 81.3709L106.312 81.4285C106.269 81.4545 106.225 81.4772 106.179 81.4964L104.269 71.4592C104.247 71.3478 104.2 71.2432 104.13 71.1539Z" fill="#4CAF4F"/>
<path opacity="0.5" d="M104.13 71.1539L104.354 71.0182C104.425 71.106 104.474 71.2095 104.496 71.3201L106.407 81.3709L106.312 81.4285C106.269 81.4545 106.225 81.4772 106.179 81.4964L104.269 71.4592C104.247 71.3478 104.2 71.2432 104.13 71.1539Z" fill="white"/>
<path opacity="0.1" d="M104.13 71.1539L104.354 71.0182C104.425 71.106 104.474 71.2095 104.496 71.3201L106.407 81.3709L106.312 81.4285C106.269 81.4545 106.225 81.4772 106.179 81.4964L104.269 71.4592C104.247 71.3478 104.2 71.2432 104.13 71.1539Z" fill="#103E13"/>
<path d="M97.958 73.0806C97.7167 72.3071 97.187 71.6561 96.4786 71.2624C95.7831 70.8825 95.3114 71.0725 95.4302 71.6966C95.5489 72.3208 96.2106 73.1281 96.9096 73.5114C97.6085 73.8947 98.0768 73.7014 97.958 73.0806Z" fill="#455A64"/>
<path d="M115.205 75.3024C114.397 75.8688 113.308 75.4109 112.236 75.5398C111.164 75.6687 110.248 75.9333 109.386 75.9095C108.524 75.8858 108.103 76.0588 108.707 76.7474C109.311 77.436 111.038 77.0391 111.507 77.2494C111.64 77.3273 111.754 77.4344 111.84 77.5628C111.925 77.6912 111.981 77.8374 112.002 77.9903C112.023 78.1433 112.009 78.299 111.96 78.4457C111.912 78.5923 111.831 78.7261 111.724 78.8369C111.218 79.4238 114.601 78.2908 115.052 77.5954C115.504 76.9 115.816 75.3906 115.205 75.3024Z" fill="#E8F5E9"/>
</svg>
